<?xml version="1.0" standalone="no"?>
<!DOCTYPE svg PUBLIC "-//W3C//DTD SVG 1.1//EN" "http://www.w3.org/Graphics/SVG/1.1/DTD/svg11.dtd" >
<svg>
<metadata>
Created by FontForge 20090622 at Sat Oct 14 14:00:52 2017
 By deploy user
[c] Copyright 2006, The Font Bureau, Inc. All Rights Reserved.
</metadata>
<defs>
<font id="BentonModDisp-Regular" horiz-adv-x="500" >
  <font-face 
    font-family="BentonModDisp RG"
    font-weight="400"
    font-stretch="normal"
    units-per-em="1000"
    panose-1="2 0 6 6 8 0 0 2 0 4"
    ascent="780"
    descent="-220"
    x-height="418"
    cap-height="684"
    bbox="-84 -216 947 887"
    underline-thickness="20"
    underline-position="-113"
    unicode-range="U+0020-U+FB06"
  />
<missing-glyph 
 />
    <glyph glyph-name="f_f" unicode="ff" horiz-adv-x="542" 
d="M25 0v14h8q33 0 43.5 11.5t10.5 45.5v332h-62v15h62v59q0 99 51 160t141 61q84 0 119 -49q42 49 111 49q44 0 68.5 -22t24.5 -55q0 -24 -14 -38t-35 -14q-20 0 -32 11.5t-12 31.5q0 21 16 37q11 11 11 17q0 8 -9.5 14t-23.5 6q-48 0 -66 -44t-18 -127v-97h102v-15h-102
v-332q0 -34 10.5 -45.5t43.5 -11.5h19v-14h-207v14h8q33 0 43.5 11.5t10.5 45.5v332h-188v-332q0 -34 10.5 -45.5t43.5 -11.5h24v-14h-212zM159 418h188v69q0 42 9 78q-16 4 -26 16t-10 29q0 19 15 34q7 7 7 13q0 11 -18.5 19t-48.5 8q-116 0 -116 -184v-82z" />
    <glyph glyph-name="fi" unicode="fi" horiz-adv-x="494" 
d="M25 0v15h8q33 0 43.5 11.5t10.5 45.5v331h-62v15h62v51q0 105 49 167t143 62q62 0 96.5 -25t34.5 -57q0 -20 -13.5 -34t-31.5 -14q-20 0 -33 11t-13 30q0 21 16 35q9 7 9 12q0 11 -19 19.5t-50 8.5q-116 0 -116 -184v-82h117l143 9v-355q0 -34 10.5 -45.5t43.5 -11.5h8
v-15h-196v15h8q33 0 43.5 11.5t10.5 45.5v273q0 35 -10.5 46.5t-43.5 11.5h-134v-331q0 -34 10.5 -45.5t43.5 -11.5h24v-15h-212z" />
    <glyph glyph-name="fl" unicode="fl" horiz-adv-x="491" 
d="M25 0v15h8q33 0 43.5 11.5t10.5 45.5v331h-62v15h62v59q0 93 49.5 157t142.5 64q43 0 76 -13l63 15v-624q0 -36 10.5 -48.5t43.5 -12.5h8v-15h-192v15h4q33 0 44 12.5t11 48.5v327h-188v-331q0 -34 10.5 -45.5t43.5 -11.5h24v-15h-212zM159 418h188v153q-28 9 -28 39
q0 23 16 34q7 6 7 12q0 12 -19.5 20t-47.5 8q-116 0 -116 -184v-82z" />
    <glyph glyph-name="f_f_i" unicode="ffi" horiz-adv-x="753" 
d="M25 0v14h8q33 0 43.5 11.5t10.5 45.5v332h-62v15h62v59q0 99 51 160t141 61q98 0 123 -54q52 54 136 54q62 0 96.5 -25t34.5 -57q0 -20 -13.5 -34t-31.5 -14q-19 0 -32 11t-13 31q0 21 15 34q9 7 9 12q0 11 -19 19.5t-50 8.5q-116 0 -116 -184v-82h117l143 9v-356
q0 -33 15 -45t49 -12h18v-14h-216v14h8q33 0 43.5 11.5t10.5 45.5v275q0 35 -10.5 46t-43.5 11h-134v-332q0 -34 10.5 -45.5t43.5 -11.5h24v-14h-212v14h8q33 0 43.5 11.5t10.5 45.5v332h-187v-332q0 -34 10.5 -45.5t43.5 -11.5h24v-14h-212zM159 418h187v69q0 46 13 78
q-39 11 -39 45q0 19 15 34q7 7 7 13q0 11 -18.5 19t-48.5 8q-61 1 -88.5 -48.5t-27.5 -135.5v-82z" />
    <glyph glyph-name="f_f_l" unicode="ffl" horiz-adv-x="751" 
d="M25 0v14h8q33 0 43.5 11.5t10.5 45.5v332h-62v15h62v59q0 97 50.5 159t141.5 62q41 0 71 -11.5t41.5 -24t12.5 -21.5q48 57 131 57q47 0 80 -13l63 15v-625q0 -36 10.5 -48.5t43.5 -12.5h8v-14h-192v14h4q33 0 44 12.5t11 48.5v328h-188v-332q0 -34 10.5 -45.5
t43.5 -11.5h24v-14h-212v14h8q33 0 43.5 11.5t10.5 45.5v332h-188v-332q0 -34 10.5 -45.5t43.5 -11.5h24v-14h-212zM419 418h188v153q-27 9 -27 40q0 22 15 33q7 6 7 12q0 12 -19.5 20t-47.5 8q-116 0 -116 -184v-82zM159 418h188v49q0 62 16 103q-18 0 -30.5 13.5
t-12.5 31.5q0 19 15 34q14 14 -11 27q-16 8 -49 8q-116 0 -116 -184v-82z" />
    <glyph glyph-name="f_j" unicode="fj" horiz-adv-x="484" 
d="M25 0v15h8q33 0 43.5 11.5t10.5 45.5v331h-62v15h62v49q0 105 49.5 168t142.5 63q62 0 96.5 -25t34.5 -57q0 -20 -13.5 -34t-31.5 -14q-19 0 -32 11t-13 31q0 21 15 34q9 7 9 12q0 12 -21.5 20t-47.5 8q-116 0 -116 -184v-82h117l143 9v-455q0 -73 -34 -124.5t-101 -52.5
q-44 -1 -71 20.5t-27 57.5q0 22 14.5 36.5t34.5 14.5q19 0 30.5 -12.5t11.5 -30.5t-16 -32q-17 -15 -17 -21q0 -10 12.5 -16t26.5 -5q19 1 31.5 8t22.5 37t10 85v408q0 35 -10.5 46.5t-43.5 11.5h-134v-331q0 -34 10.5 -45.5t43.5 -11.5h24v-15h-212z" />
    <glyph glyph-name=".notdef" 
 />
    <glyph glyph-name=".null" horiz-adv-x="0" 
 />
    <glyph glyph-name="nonmarkingreturn" horiz-adv-x="333" 
 />
    <glyph glyph-name="space" unicode=" " horiz-adv-x="229" 
 />
    <glyph glyph-name="exclam" unicode="!" horiz-adv-x="245" 
d="M115 193q0 170 -33 342q-12 65 -12 87q0 34 13.5 54.5t38.5 20.5t39 -20.5t14 -54.5q0 -32 -12 -87q-35 -171 -35 -342h-13zM122 -7q-24 0 -40.5 16.5t-16.5 40.5t16.5 40.5t40.5 16.5t40.5 -16.5t16.5 -40.5t-16.5 -40.5t-40.5 -16.5z" />
    <glyph glyph-name="quotedbl" unicode="&#x22;" horiz-adv-x="361" 
d="M254 410l-36 196q-14 78 44 78t44 -78l-37 -196h-15zM91 410l-36 196q-14 78 44 78t44 -78l-37 -196h-15z" />
    <glyph glyph-name="numbersign" unicode="#" horiz-adv-x="624" 
d="M108 -7l47 177h-130l20 74h130l42 157h-144l21 74h142l47 177h20l-47 -177h194l47 177h19l-47 -177h130l-20 -74h-129l-42 -157h142l-21 -74h-141l-47 -177h-19l47 177h-194l-47 -177h-20zM195 244h194l42 157h-194z" />
    <glyph glyph-name="dollar" unicode="$" horiz-adv-x="444" 
d="M213 -135v133q-78 0 -135 37t-57 102q0 28 18 49t44 21q22 0 36.5 -15.5t14.5 -37.5q0 -21 -16 -35.5t-38 -14.5q-4 0 -12.5 1.5t-11 1t-6 -4.5t2.5 -14q11 -32 61 -54t99 -20v273q-40 16 -66 30.5t-52.5 37.5t-39.5 56t-13 75q0 64 45.5 112t125.5 50v73h16v-73
q162 -7 162 -117q0 -26 -14.5 -43t-37.5 -17q-20 0 -35 14.5t-15 34.5q0 21 13 35t35 16q4 1 9.5 0t8 -1.5t4.5 0t1.5 3t-3.5 8.5q-26 48 -128 50v-255q115 -50 151 -93t36 -117q0 -72 -53 -118.5t-134 -49.5v-133h-16zM213 382v249q-58 -1 -90.5 -34.5t-32.5 -79.5
q0 -52 31 -81t92 -54zM229 14q71 3 105.5 39t34.5 84q0 49 -31 80.5t-109 63.5v-267z" />
    <glyph glyph-name="percent" unicode="%" horiz-adv-x="633" 
d="M161 360q-47 0 -93 41.5t-46 106.5t46 106.5t93 41.5t93 -41.5t46 -106.5t-46 -106.5t-93 -41.5zM124 -6l362 659h19l-362 -659h-19zM472 -8q-47 0 -93 41.5t-46 106.5t46 106.5t93 41.5t93 -41.5t46 -106.5t-46 -106.5t-93 -41.5zM161 370q70 0 70 138q0 136 -70 136
t-70 -136q0 -138 70 -138zM472 2q70 0 70 138q0 136 -70 136t-70 -136q0 -138 70 -138z" />
    <glyph glyph-name="ampersand" unicode="&#x26;" horiz-adv-x="666" 
d="M240 -10q-81 0 -130.5 51t-49.5 131q0 72 39 125t123 100q-21 69 -21 120q0 81 41 129t104 48q50 0 79 -27.5t29 -72.5t-35.5 -84.5t-129.5 -92.5q18 -47 52 -120q50 -106 96 -174q70 92 70 197q0 38 -22 52t-68 15v14h228v-14q-50 -2 -73 -19.5t-37 -67.5
q-32 -116 -87 -192q56 -80 99 -80q79 0 84 123h13q0 -75 -33.5 -117t-91.5 -42q-65 0 -120 60q-69 -62 -159 -62zM284 431q69 43 93 78.5t24 83.5q0 32 -15 59.5t-43 27.5q-37 0 -59.5 -37t-22.5 -85q0 -67 23 -127zM271 23q64 0 114 45q-49 62 -107 185q-33 71 -51 129
q-53 -35 -74 -76t-21 -98q0 -79 38.5 -132t100.5 -53z" />
    <glyph glyph-name="quotesingle" unicode="'" horiz-adv-x="200" 
d="M92 410l-36 196q-14 78 44 78t44 -78l-37 -196h-15z" />
    <glyph glyph-name="parenleft" unicode="(" horiz-adv-x="304" 
d="M263 -143q-105 74 -162.5 182t-57.5 238t57.5 238t162.5 182v-13q-142 -144 -142 -407q0 -134 33 -232t109 -175v-13z" />
    <glyph glyph-name="parenright" unicode=")" horiz-adv-x="304" 
d="M41 -143v13q76 77 109 175t33 232q0 263 -142 407v13q105 -74 162.5 -182t57.5 -238t-57.5 -238t-162.5 -182z" />
    <glyph glyph-name="asterisk" unicode="*" horiz-adv-x="459" 
d="M121 358q-7 4 -4.5 17.5t14.5 28.5q5 7 39 43t49 58q-25 8 -73 17.5t-57 12.5q-19 6 -28.5 14.5t-7.5 15.5q6 19 47 4q5 -2 50.5 -23t72.5 -29q0 26 -6 73.5t-6 59.5q0 43 18 43t18 -43q0 -12 -6 -59.5t-6 -73.5q26 8 70 28.5t53 23.5q19 7 32 5.5t15 -9.5
q2 -7 -7.5 -15.5t-28.5 -14.5q-9 -3 -57 -12.5t-73 -17.5q16 -22 49 -57.5t39 -43.5q12 -14 14.5 -28t-3.5 -18t-17.5 2.5t-22.5 22.5q-6 8 -29.5 50t-39.5 64q-16 -22 -39.5 -64t-29.5 -50q-11 -15 -22 -22t-17 -3z" />
    <glyph glyph-name="plus" unicode="+" horiz-adv-x="466" 
d="M224 126v199h-183v21h183v199h20v-199h182v-21h-182v-199h-20z" />
    <glyph glyph-name="comma" unicode="," horiz-adv-x="211" 
d="M54 -166l-10 11q48 40 74 81.5t26 67.5q0 7 -2 10.5t-6 3t-8.5 -2t-11.5 -3.5t-13 -2q-23 0 -39 15t-16 38t16 38.5t39 15.5q26 0 43.5 -22.5t17.5 -67.5q0 -89 -110 -183z" />
    <glyph glyph-name="hyphen" unicode="-" horiz-adv-x="279" 
d="M24 200v57h231v-57h-231z" />
    <glyph glyph-name="hyphen" unicode="&#xad;" horiz-adv-x="279" 
d="M24 200v57h231v-57h-231z" />
    <glyph glyph-name="period" unicode="." horiz-adv-x="212" 
d="M106 -7q-24 0 -40.5 16.5t-16.5 40.5t16.5 40.5t40.5 16.5t40.5 -16.5t16.5 -40.5t-16.5 -40.5t-40.5 -16.5z" />
    <glyph glyph-name="slash" unicode="/" horiz-adv-x="356" 
d="M1 -85l305 774h20l-306 -774h-19z" />
    <glyph glyph-name="zero" unicode="0" horiz-adv-x="514" 
d="M256 -16q-88 0 -153 95.5t-65 244.5t66.5 244t154.5 95t152.5 -95t64.5 -244t-66.5 -244.5t-153.5 -95.5zM259 -2q124 0 124 326q0 325 -127 325q-125 0 -125 -325q0 -326 128 -326z" />
    <glyph glyph-name="one" unicode="1" horiz-adv-x="308" 
d="M23 0v15h37q33 0 46.5 12t13.5 45v450q0 33 -13.5 45t-46.5 12h-37v15q134 10 165 73h12v-595q0 -33 13 -45t46 -12h29v-15h-265z" />
    <glyph glyph-name="two" unicode="2" horiz-adv-x="437" 
d="M26 0v29q27 80 85 161.5t92 115.5q62 63 84 101.5t22 94.5q0 69 -29 104.5t-75 35.5t-88 -28.5t-50 -67.5q-4 -18 6 -22q2 0 4 1q14 11 32 11q21 0 35.5 -15t14.5 -38q0 -22 -16 -37.5t-40 -15.5q-26 0 -43.5 21.5t-17.5 55.5q0 68 52 111t127 43q70 0 125 -41t55 -117
q0 -28 -7.5 -52.5t-15 -40.5t-29.5 -38.5t-31.5 -30.5t-42 -33l-41.5 -32q-124 -99 -172 -205h226q62 0 80 25.5t28 98.5h12l-9 -195h-373z" />
    <glyph glyph-name="three" unicode="3" horiz-adv-x="429" 
d="M196 -13q-72 0 -124.5 41t-52.5 106q0 34 17 54t44 20q24 0 39 -14.5t15 -38.5q0 -22 -15 -34.5t-36 -12.5q-8 0 -18.5 3t-13.5 3q-8 0 -7 -10q3 -39 49 -70.5t98 -31.5q124 0 124 168q0 79 -31.5 116t-97.5 37q-6 0 -20 -2.5t-19 -2.5q-24 0 -24 15q0 16 26 16
q5 0 18.5 -2.5t18.5 -2.5q117 0 117 157q0 144 -115 144q-41 0 -78.5 -24t-48.5 -64q-4 -16 3 -17q2 0 3 1q8 8 23 8q23 0 36.5 -13.5t13.5 -35.5q0 -20 -14.5 -34.5t-35.5 -14.5q-24 0 -39.5 18.5t-15.5 46.5q0 62 48.5 104t120.5 42q82 0 134.5 -44t52.5 -119
q0 -61 -45 -105.5t-129 -58.5q1 -1 0 -1q186 -25 186 -171q0 -76 -60 -126t-147 -50z" />
    <glyph glyph-name="four" unicode="4" horiz-adv-x="468" 
d="M192 0v15h31q31 0 44 12t13 44v89h-264v16l317 487h23v-482h88v-21h-88v-89q0 -32 13 -44t44 -12h23v-15h-244zM42 181h238v365z" />
    <glyph glyph-name="five" unicode="5" horiz-adv-x="450" 
d="M203 -14q-74 0 -123.5 40t-49.5 104q0 32 18 52t44 20q24 0 38.5 -14t14.5 -37q0 -24 -17 -39.5t-42 -11.5q-16 3 -22 0t-4 -12q8 -36 48 -61t92 -25q71 0 99.5 50t28.5 146q0 85 -32.5 132t-94.5 47q-28 0 -56.5 -9.5t-40.5 -21.5q0 -28 -7 -41t-17 -11q-14 3 -9 25
q4 17 17 31l11 302l9 4q84 -27 164 -27q77 0 123 28l7 -9q-38 -51 -85.5 -75t-114.5 -24q-48 0 -88 9l-10 -193q39 30 116 30q83 0 139.5 -49.5t56.5 -142.5q0 -97 -61.5 -157t-151.5 -60z" />
    <glyph glyph-name="six" unicode="6" horiz-adv-x="466" 
d="M243 -15q-94 0 -147 82t-53 225q0 154 69.5 261.5t179.5 107.5q59 0 93.5 -29.5t34.5 -68.5q0 -27 -16 -43t-38 -16q-24 0 -37 13.5t-13 34.5q0 28 22 43q6 4 14 6.5t12 4.5t4 6q0 15 -27 24.5t-49 9.5q-167 0 -161 -337q20 41 56.5 63t75.5 22q78 0 126 -54.5t48 -136.5
q0 -96 -57 -157t-137 -61zM244 0q103 0 103 197q0 102 -29 140.5t-68 38.5q-49 0 -85 -50.5t-36 -132.5q0 -84 29.5 -138.5t85.5 -54.5z" />
    <glyph glyph-name="seven" unicode="7" horiz-adv-x="450" 
d="M212 -14q-25 0 -37.5 25t-12.5 63q0 85 63 226t163 274h-211q-40 0 -58 -3t-36 -18.5t-26.5 -45.5t-16.5 -86h-12l18 226h376v-50q-93 -137 -134 -233.5t-41 -193.5q0 -28 6 -67.5t6 -50.5q0 -66 -47 -66z" />
    <glyph glyph-name="eight" unicode="8" horiz-adv-x="461" 
d="M229 -15q-79 0 -142 44t-63 115q0 108 141 184q-63 34 -91.5 72.5t-28.5 96.5q0 74 57 120t135 46q73 0 126.5 -38.5t53.5 -101.5q0 -49 -37.5 -91t-87.5 -71q78 -41 111.5 -82.5t33.5 -114.5q0 -80 -63 -129.5t-145 -49.5zM270 373q86 55 86 144q0 68 -37 99.5t-93 31.5
q-58 0 -95 -33.5t-37 -81.5q0 -58 75 -106q12 -8 64 -36q7 -4 20.5 -10.5t16.5 -7.5zM236 0q59 0 106.5 36.5t47.5 96.5q0 48 -31 83.5t-125 77.5q-30 13 -50 24q-52 -37 -74 -78t-22 -97q0 -73 44 -108t104 -35z" />
    <glyph glyph-name="nine" unicode="9" horiz-adv-x="466" 
d="M178 -13q-58 0 -92.5 31t-34.5 70q0 25 14.5 42.5t37.5 17.5q24 0 38 -15t14 -39q0 -27 -25 -45q-16 -12 -16 -16q-1 -15 19 -23t44 -8q171 0 162 340q-21 -40 -55.5 -63t-73.5 -23q-80 0 -128 51.5t-48 143.5q0 93 56.5 152.5t136.5 59.5q94 0 147 -82t53 -225
q0 -157 -71 -263t-178 -106zM224 273q50 0 83 54.5t33 129.5q0 81 -28 137t-83 56q-54 0 -80 -56.5t-26 -139.5q0 -181 101 -181z" />
    <glyph glyph-name="colon" unicode=":" horiz-adv-x="248" 
d="M124 319q-24 0 -40.5 16.5t-16.5 40.5t16.5 40.5t40.5 16.5t40.5 -16.5t16.5 -40.5t-16.5 -40.5t-40.5 -16.5zM124 -7q-24 0 -40.5 16.5t-16.5 40.5t16.5 40.5t40.5 16.5t40.5 -16.5t16.5 -40.5t-16.5 -40.5t-40.5 -16.5z" />
    <glyph glyph-name="semicolon" unicode=";" horiz-adv-x="248" 
d="M124 319q-24 0 -40.5 16.5t-16.5 40.5t16.5 40.5t40.5 16.5t40.5 -16.5t16.5 -40.5t-16.5 -40.5t-40.5 -16.5zM71 -166l-10 11q48 40 74 81.5t26 67.5q0 7 -2 10.5t-6 3t-8.5 -2t-11.5 -3.5t-13 -2q-23 0 -39 15t-16 38t16 38.5t39 15.5q26 0 43.5 -22.5t17.5 -67.5
q0 -89 -110 -183z" />
    <glyph glyph-name="less" unicode="&#x3c;" horiz-adv-x="489" 
d="M435 136l-381 180v15l381 180v-22l-349 -165l349 -165v-23z" />
    <glyph glyph-name="equal" unicode="=" horiz-adv-x="489" 
d="M63 415v22h364v-22h-364zM63 214v22h364v-22h-364z" />
    <glyph glyph-name="greater" unicode="&#x3e;" horiz-adv-x="489" 
d="M54 136v23l349 165l-349 165v22l381 -180v-15z" />
    <glyph glyph-name="question" unicode="?" horiz-adv-x="405" 
d="M179 197v18q0 57 11 91t59 112q37 59 37 127q0 62 -26.5 98t-70.5 36q-45 0 -80 -24.5t-37 -51.5v-6.5t1 -3t2 0t4 1.5t5.5 2t6.5 2t8 1q20 0 35 -14t15 -40q0 -20 -14.5 -35t-36.5 -15q-25 0 -41 18.5t-16 49.5q0 55 45 92t112 37q73 0 121 -40.5t48 -114.5
q0 -66 -76 -149q-58 -66 -78 -99t-20 -78v-15h-14zM187 -7q-24 0 -40.5 16.5t-16.5 40.5t16.5 40.5t40.5 16.5t40.5 -16.5t16.5 -40.5t-16.5 -40.5t-40.5 -16.5z" />
    <glyph glyph-name="at" unicode="@" horiz-adv-x="844" 
d="M439 -154q-76 0 -145.5 24t-125.5 69.5t-89 120t-33 167.5q0 118 58.5 216.5t153 152.5t200.5 54q144 0 242 -84t98 -229q0 -121 -64 -202t-154 -81q-40 0 -66.5 23.5t-30.5 61.5h-4q-33 -44 -65 -64.5t-77 -20.5q-49 0 -79.5 37.5t-30.5 104.5q0 94 64.5 173.5
t144.5 79.5q77 0 102 -92h5l14 87h76l-75 -283q-22 -85 42 -85q68 0 124 76.5t56 184.5q0 138 -92.5 218t-235.5 80q-73 0 -143.5 -32t-124.5 -85.5t-87 -130t-33 -159.5q0 -91 31.5 -162.5t85.5 -114.5t120.5 -65.5t140.5 -22.5q150 0 278 98l10 -16q-136 -99 -291 -99z
M373 89q60 0 101 74.5t41 155.5q0 50 -17 78t-49 28q-38 0 -72 -42.5t-51.5 -97t-17.5 -99.5q0 -52 15.5 -74.5t49.5 -22.5z" />
    <glyph glyph-name="A" unicode="A" horiz-adv-x="647" 
d="M-2 0v15q39 6 59 29.5t41 81.5l213 577h22l226 -617q15 -40 34.5 -54.5t55.5 -16.5v-15h-266v15h29q27 0 43 10.5t16 26.5q0 23 -20 79l-34 94h-260l-22 -61q-22 -62 -22 -98q0 -51 56 -51h19v-15h-190zM162 240h250l-125 354z" />
    <glyph glyph-name="B" unicode="B" horiz-adv-x="580" 
d="M10 0v15h29q35 0 49 12.5t14 47.5v533q0 35 -14 47.5t-49 12.5h-29v16h268q117 0 183.5 -40t66.5 -121q0 -66 -49 -107.5t-132 -58.5v-3q204 -34 204 -175q0 -79 -73 -129t-188 -50h-280zM185 359h88q78 0 120 41t42 117q0 74 -42.5 113t-123.5 39h-20q-36 0 -50 -12.5
t-14 -46.5v-251zM249 15h42q87 0 127 44.5t40 116.5q0 77 -43.5 122.5t-133.5 45.5h-96v-270q0 -34 14 -46.5t50 -12.5z" />
    <glyph glyph-name="C" unicode="C" horiz-adv-x="586" 
d="M312 -16q-107 0 -193 99.5t-86 254.5q0 157 86.5 256.5t192.5 99.5q64 0 136 -48q17 -11 34 -11q23 0 37 59h12l8 -270h-15q-28 124 -85 189t-130 65q-88 0 -133 -91t-45 -245q0 -149 49.5 -243.5t141.5 -94.5q82 0 136.5 67t72.5 179h20q-18 -127 -81 -196.5t-158 -69.5
z" />
    <glyph glyph-name="D" unicode="D" horiz-adv-x="636" 
d="M10 0v15h29q35 0 49 12.5t14 47.5v534q0 35 -14 47.5t-49 12.5h-29v15h274q134 0 226.5 -92.5t92.5 -247.5q0 -165 -92 -254.5t-229 -89.5h-272zM249 15h36q115 0 170 79t55 246q0 329 -226 329h-35q-36 0 -50 -12.5t-14 -46.5v-536q0 -34 14 -46.5t50 -12.5z" />
    <glyph glyph-name="E" unicode="E" horiz-adv-x="595" 
d="M10 0v15h29q35 0 49 13t14 48v532q0 35 -14 48t-49 13h-29v15h505l10 -246h-13q-17 123 -58 177t-142 54h-63q-36 0 -50 -12.5t-14 -47.5v-246h51q69 0 97.5 38t29.5 106h13v-311h-13q-2 152 -127 152h-51v-273q0 -35 14 -47.5t50 -12.5h82q51 0 86 16.5t56.5 53t33 76.5
t23.5 106h13l-17 -267h-516z" />
    <glyph glyph-name="F" unicode="F" horiz-adv-x="550" 
d="M10 0v15h29q35 0 49 12.5t14 47.5v534q0 35 -14 47.5t-49 12.5h-29v15h497l8 -246h-13q-17 122 -58.5 176.5t-140.5 54.5h-54q-36 0 -50 -12.5t-14 -47.5v-253h42q71 0 97.5 35.5t29.5 108.5h13v-312h-13q-4 73 -30.5 113t-96.5 40h-42v-266q0 -35 14 -47.5t50 -12.5h45
v-15h-284z" />
    <glyph glyph-name="G" unicode="G" horiz-adv-x="617" 
d="M312 -9q-108 0 -193.5 99t-85.5 248q0 155 86 255.5t193 100.5q62 0 131 -46q20 -13 39 -13q28 0 39 62h11l8 -264h-15q-31 117 -88.5 181t-127.5 64q-86 0 -132 -98t-46 -238q0 -90 21 -164t65.5 -121.5t105.5 -47.5q63 0 100.5 39.5t37.5 93.5v83q0 36 -14 48.5
t-49 12.5h-33v15h241v-15h-7q-35 0 -49 -12.5t-14 -48.5v-234h-11q-19 59 -50 59q-15 0 -35 -13q-25 -17 -39.5 -25t-37.5 -14.5t-51 -6.5z" />
    <glyph glyph-name="H" unicode="H" horiz-adv-x="660" 
d="M10 0v15h29q35 0 49 12.5t14 47.5v534q0 35 -14 47.5t-49 12.5h-29v15h267v-15h-28q-36 0 -50 -12.5t-14 -47.5v-255h290v255q0 35 -14 47.5t-49 12.5h-29v15h267v-15h-29q-35 0 -49 -12.5t-14 -47.5v-534q0 -35 14 -47.5t49 -12.5h29v-15h-267v15h29q35 0 49 12.5
t14 47.5v264h-290v-264q0 -35 14 -47.5t50 -12.5h28v-15h-267z" />
    <glyph glyph-name="I" unicode="I" horiz-adv-x="304" 
d="M15 0v15h32q35 0 49 12.5t14 47.5v534q0 35 -14 47.5t-49 12.5h-32v15h274v-15h-31q-35 0 -49 -12.5t-14 -47.5v-534q0 -35 14 -47.5t49 -12.5h31v-15h-274z" />
    <glyph glyph-name="J" unicode="J" horiz-adv-x="447" 
d="M161 -10q-64 0 -103.5 33t-39.5 89q0 37 19.5 60.5t49.5 23.5q24 0 38 -14.5t14 -37.5t-15 -38t-34 -15q-20 0 -35 10q-6 4 -9.5 -0.5t-3.5 -13.5q0 -33 32.5 -57.5t74.5 -24.5q114 0 114 172v432q0 35 -14 47.5t-49 12.5h-40v15h278v-15h-28q-36 0 -50 -12.5t-14 -47.5
v-406q0 -104 -51.5 -158.5t-133.5 -54.5z" />
    <glyph glyph-name="K" unicode="K" horiz-adv-x="650" 
d="M10 0v15h29q35 0 49 12.5t14 47.5v534q0 35 -14 47.5t-49 12.5h-29v15h267v-15h-28q-36 0 -50 -12.5t-14 -47.5v-325l218 240q39 43 49.5 62t10.5 37q0 46 -77 46h-10v15h245v-15q-40 0 -65 -15.5t-63 -57.5l-166 -180l229 -339q24 -35 41 -48.5t48 -13.5h12v-15h-255v15
h23q45 0 45 27q0 13 -14 33l-187 278l-84 -93v-185q0 -35 14 -47.5t50 -12.5h28v-15h-267z" />
    <glyph glyph-name="L" unicode="L" horiz-adv-x="545" 
d="M10 0v15h29q35 0 49 12.5t14 47.5v534q0 35 -14 47.5t-49 12.5h-29v15h284v-15h-45q-36 0 -50 -12.5t-14 -47.5v-534q0 -35 14 -47.5t50 -12.5h45q48 0 81.5 11.5t54.5 30t34 53t19 68.5t11 89h16l-17 -267h-483z" />
    <glyph glyph-name="M" unicode="M" horiz-adv-x="790" 
d="M359 -12l-234 627h-2v-476q0 -74 19.5 -99t76.5 -25h4v-15h-220v15h12q50 0 68.5 25.5t18.5 98.5v469q0 35 -14 48t-49 13h-29v15h184l206 -576l209 576h171v-15h-28q-35 0 -49.5 -12.5t-14.5 -47.5v-533q0 -35 14.5 -48t49.5 -13h28v-15h-267v15h30q35 0 48.5 13
t13.5 48v539h-1l-229 -627h-16z" />
    <glyph glyph-name="N" unicode="N" horiz-adv-x="696" 
d="M570 -14l-441 598v-446q0 -74 20 -98.5t77 -24.5h4v-15h-223v15h13q51 0 69.5 25t18.5 98v477q-13 19 -43.5 36t-65.5 18v15h160l416 -565v426q0 74 -20 99t-77 25h-4v15h223v-15h-12q-51 0 -70 -25.5t-19 -98.5v-559h-26z" />
    <glyph glyph-name="O" unicode="O" horiz-adv-x="626" 
d="M312 -16q-106 0 -192.5 102.5t-86.5 253.5q0 152 87.5 256t193.5 104q105 0 192 -103t87 -253q0 -152 -85.5 -256t-195.5 -104zM314 0q181 0 181 340q0 73 -9 132.5t-29.5 108.5t-57 76t-87.5 27q-181 0 -181 -340q0 -73 9 -132.5t29.5 -108.5t57 -76t87.5 -27z" />
    <glyph glyph-name="P" unicode="P" horiz-adv-x="543" 
d="M10 0v15h29q35 0 49 12.5t14 47.5v534q0 35 -14 47.5t-49 12.5h-29v15h274q113 0 179 -46t66 -135q0 -94 -72.5 -143t-186.5 -49h-85v-236q0 -35 14 -47.5t50 -12.5h45v-15h-284zM185 326h88q42 0 73 11.5t47 28t25.5 41.5t12 45.5t2.5 46.5q0 28 -2.5 49.5t-12 45.5
t-25.5 39.5t-45 25.5t-69 10h-30q-36 0 -50 -12.5t-14 -47.5v-283z" />
    <glyph glyph-name="Q" unicode="Q" horiz-adv-x="626" 
d="M501 -192q-110 0 -99 197q-42 -21 -90 -21q-106 0 -192.5 102.5t-86.5 253.5q0 152 87.5 256t193.5 104q105 0 192 -103t87 -253q0 -102 -39 -181t-104 -128q20 -88 38 -116.5t44 -28.5q23 0 38 28t16 85h15q0 -88 -24.5 -141.5t-75.5 -53.5zM275 3l1 3q-73 29 -73 107
q0 46 30 75t74 29q59 0 92 -41.5t42 -104.5q54 90 54 267q0 346 -183 346q-181 0 -181 -342q0 -143 35.5 -232.5t108.5 -106.5zM333 2q40 0 70 24q5 93 -23.5 133t-72.5 40q-38 0 -62 -23.5t-24 -62.5q0 -49 32.5 -80t79.5 -31z" />
    <glyph glyph-name="R" unicode="R" horiz-adv-x="615" 
d="M509 -9q-49 0 -80.5 34.5t-41.5 126.5q-7 60 -15.5 94t-26 51.5t-36.5 22t-56 4.5h-68v-248q0 -35 14.5 -48t49.5 -13h33v-15h-272v15h29q36 0 49.5 13t13.5 48v533q0 35 -13.5 47.5t-49.5 12.5h-29v15h266q117 1 183.5 -41.5t66.5 -130.5q0 -73 -50.5 -119t-138.5 -62
v-3q43 -17 72 -48t49 -90q28 -82 45.5 -108.5t43.5 -26.5q39 0 38 95h15q6 -77 -20 -118t-71 -41zM185 339h95q84 0 119 48.5t35 121.5q0 34 -5.5 58.5t-21 49.5t-49 38.5t-84.5 13.5h-25q-36 0 -50 -12t-14 -47v-271z" />
    <glyph glyph-name="S" unicode="S" horiz-adv-x="526" 
d="M312 -11q-39 0 -75 8.5t-50.5 15t-41.5 20.5q-34 18 -48 18q-25 0 -38 -61h-13l-7 271h15q13 -68 41.5 -119.5t65.5 -80t76 -42.5t79 -14q58 0 96 37t38 99q0 63 -46 97t-137 62q-105 33 -143 57q-79 51 -79 152q0 79 52.5 132t129.5 53q75 0 139 -45q25 -17 40 -17
q22 0 40 61h13l7 -269h-15q-27 131 -89 193t-133 62q-59 0 -95.5 -38.5t-36.5 -93.5q0 -57 35.5 -91.5t144.5 -65.5q116 -33 168 -78.5t52 -132.5q0 -85 -53 -137.5t-132 -52.5z" />
    <glyph glyph-name="T" unicode="T" horiz-adv-x="597" 
d="M148 0v15h46q35 0 49 12.5t14 47.5v594h-26q-51 0 -86 -16.5t-56 -53t-32 -76.5t-22 -106h-14l13 267h531l11 -267h-14q-10 65 -21.5 105.5t-32.5 77t-56 53t-86 16.5h-26v-594q0 -35 14 -47.5t49 -12.5h45v-15h-300z" />
    <glyph glyph-name="U" unicode="U" horiz-adv-x="674" 
d="M334 -10q-123 0 -180 64t-57 173v381q0 35 -14 48t-49 13h-29v15h267v-15h-28q-35 0 -49.5 -13t-14.5 -48v-407q0 -88 47 -138t138 -50q84 0 132.5 57t48.5 140v333q0 74 -19.5 100t-77.5 26h-3v15h221v-15h-12q-50 0 -69 -26.5t-19 -99.5v-322q0 -109 -62 -170t-171 -61
z" />
    <glyph glyph-name="V" unicode="V" horiz-adv-x="665" 
d="M324 -19l-228 617q-15 39 -33 54t-57 17v15h263v-15h-28q-27 0 -42 -10.5t-15 -26.5q0 -28 13 -66l170 -481l163 449q23 63 23 92q0 43 -63 43h-18v15h190v-15q-41 -6 -57 -23t-39 -76l-222 -589h-20z" />
    <glyph glyph-name="W" unicode="W" horiz-adv-x="941" 
d="M291 -19l-184 600q-16 52 -32.5 69t-61.5 19v15h235v-15h-9q-55 0 -55 -35q0 -27 12 -68l138 -466l125 388l-7 25l-16 51l-8 25q-13 43 -33 60.5t-58 19.5v15h249v-15h-29q-51 0 -51 -37q0 -26 12 -66l141 -472l139 432q20 63 20 97q0 21 -15.5 33.5t-43.5 12.5h-18v15
h189v-15q-40 -6 -59 -27.5t-37 -74.5l-196 -586h-20l-149 479l-157 -479h-21z" />
    <glyph glyph-name="X" unicode="X" horiz-adv-x="638" 
d="M7 0v15q45 4 70 23.5t62 75.5l146 219l-177 274q-23 36 -38 49t-45 13h-6v15h238v-15h-21q-47 0 -47 -27q0 -10 14 -33l134 -212l100 159q32 51 32 79q0 34 -51 34h-25v15h204v-15q-45 -2 -63.5 -17t-63.5 -83l-124 -186l196 -305q23 -36 38.5 -49.5t45.5 -13.5h5v-15
h-241v15h23q48 0 48 27q0 12 -13 33l-154 244l-122 -192q-33 -52 -33 -76q0 -36 60 -36h17v-15h-209z" />
    <glyph glyph-name="Y" unicode="Y" horiz-adv-x="640" 
d="M182 0v15h38q34 0 48.5 16.5t14.5 53.5v194l-196 328q-20 33 -38 47.5t-48 14.5h-6v15h244v-15h-25q-45 0 -45 -30q0 -11 11 -30l178 -302l132 234q31 55 31 85q0 20 -15.5 31.5t-42.5 11.5h-16v15h198v-15q-13 -2 -24.5 -6t-19.5 -8t-17.5 -13.5t-15 -14.5t-14.5 -19
l-13 -20.5l-15 -25.5l-15 -26l-144 -246v-205q0 -37 14.5 -53.5t47.5 -16.5h38v-15h-285z" />
    <glyph glyph-name="Z" unicode="Z" horiz-adv-x="574" 
d="M21 0v15l424 654h-170q-105 0 -144.5 -53t-56.5 -178h-14l9 246h470v-15l-424 -654h214q43 0 75 12.5t51 31t33.5 55t22 68t16.5 86.5h14l-17 -268h-503z" />
    <glyph glyph-name="bracketleft" unicode="[" horiz-adv-x="304" 
d="M65 -130v814h202v-14h-131v-786h131v-14h-202z" />
    <glyph glyph-name="backslash" unicode="\" horiz-adv-x="356" 
d="M336 -85l-306 774h20l305 -774h-19z" />
    <glyph glyph-name="bracketright" unicode="]" horiz-adv-x="304" 
d="M37 -130v14h130v786h-130v14h202v-814h-202z" />
    <glyph glyph-name="asciicircum" unicode="^" horiz-adv-x="459" 
d="M70 407l-11 6l141 274h59l141 -274l-11 -6l-160 189z" />
    <glyph glyph-name="underscore" unicode="_" horiz-adv-x="422" 
d="M-2 -106v15h425v-15h-425z" />
    <glyph glyph-name="grave" unicode="`" 
d="M307 474l-133 74q-38 22 -38 50q0 13 11 23.5t26 10.5q30 0 54 -33l87 -118z" />
    <glyph glyph-name="a" unicode="a" horiz-adv-x="431" 
d="M135 -11q-50 0 -81.5 25t-31.5 71q0 63 60.5 101.5t203.5 72.5v29q0 129 -98 129q-39 0 -69.5 -13.5t-30.5 -27.5q0 -4 5 -4q16 0 29 -13t13 -31q0 -19 -13 -32.5t-32 -13.5q-20 0 -32.5 13t-12.5 35q0 42 43 71.5t119 29.5q150 0 150 -147v-205q0 -55 26 -55q34 0 35 80
h14q-1 -66 -21 -89.5t-55 -23.5q-33 0 -53 22t-17 72h-2q-15 -40 -56.5 -68t-92.5 -28zM175 24q44 0 77.5 35.5t33.5 111.5v72q-105 -21 -143 -56t-38 -85q0 -35 18 -56.5t52 -21.5z" />
    <glyph glyph-name="b" unicode="b" horiz-adv-x="466" 
d="M46 -18q13 74 13 188v444q0 35 -10.5 46t-43.5 11h-17v14l141 15v-217l-3 -157h2q30 53 62.5 78t79.5 25q67 0 119.5 -63.5t52.5 -154.5q0 -98 -54 -159.5t-121 -61.5q-48 0 -79 24.5t-59 74.5h-2l-68 -107h-13zM256 6q102 0 102 203q0 91 -24 147.5t-76 56.5
q-53 0 -91.5 -57.5t-38.5 -145.5q0 -84 37 -144t91 -60z" />
    <glyph glyph-name="c" unicode="c" horiz-adv-x="401" 
d="M213 -15q-78 0 -133.5 61.5t-55.5 160.5q0 92 64 159t152 67q57 0 96 -33.5t39 -78.5q0 -25 -14 -40t-36 -15q-20 0 -33 14t-13 33q0 16 9.5 29t26.5 17q4 1 10 1t8.5 0.5t2.5 4.5q0 16 -27.5 34t-70.5 18q-65 0 -96 -55t-31 -150q0 -86 34.5 -139.5t100.5 -53.5
q76 0 130 72l10 -7q-27 -45 -72 -72t-101 -27z" />
    <glyph glyph-name="d" unicode="d" horiz-adv-x="476" 
d="M196 -10q-67 0 -119.5 61t-52.5 158q0 93 51.5 156.5t124.5 63.5q86 0 138 -103h3q-3 42 -3 151v136q0 34 -11 45.5t-44 11.5h-25v14l151 15v-624q0 -34 10.5 -46t42.5 -12h8v-14l-132 -15l4 112h-3q-60 -110 -143 -110zM211 6q45 0 86 56.5t41 147.5q0 100 -42 152
t-84 52q-104 0 -104 -202q0 -91 25 -148.5t78 -57.5z" />
    <glyph glyph-name="e" unicode="e" horiz-adv-x="417" 
d="M214 -15q-87 0 -138.5 60t-51.5 162q0 98 58 162t136 64q67 0 119.5 -50.5t52.5 -140.5q0 -20 -2 -30h-282q0 -86 34 -140.5t96 -54.5q53 0 86.5 22.5t62.5 64.5l11 -8q-66 -111 -182 -111zM106 228h150q29 0 40 10t11 35q0 64 -23 104.5t-69 40.5q-51 0 -79 -50.5
t-30 -139.5z" />
    <glyph glyph-name="f" unicode="f" horiz-adv-x="282" 
d="M25 0v14h8q33 0 43.5 11t10.5 45v333h-62v15h62v69q0 91 42.5 151t119.5 60q44 0 68.5 -22t24.5 -55q0 -24 -14 -38t-35 -14q-20 0 -32 11.5t-12 31.5q0 21 16 37q11 11 11 17q0 8 -9.5 14t-23.5 6q-48 0 -66 -44t-18 -127v-97h102v-15h-102v-333q0 -34 10.5 -45
t43.5 -11h19v-14h-207z" />
    <glyph glyph-name="g" unicode="g" horiz-adv-x="457" 
d="M204 -206q-86 0 -142.5 25.5t-56.5 72.5q0 44 43.5 74t118.5 31q-129 15 -129 70q0 24 18 42t53 39q-33 21 -53.5 55.5t-20.5 73.5q0 68 49 112t121 44q78 0 128 -53q32 53 71 53q23 0 38 -13.5t15 -35.5q0 -16 -10.5 -28t-26.5 -12t-25 11.5t-9 27.5q0 20 -10 20
q-15 0 -32 -33q30 -45 30 -93q0 -67 -49 -112t-120 -45q-39 0 -83 21q-36 -22 -36 -48q0 -36 133 -37q204 -2 204 -123q0 -63 -62.5 -101t-156.5 -38zM205 134q34 0 55 24t27.5 53.5t6.5 65.5t-6.5 65.5t-27.5 53.5t-55 24q-49 0 -69 -42t-20 -101t20 -101t69 -42zM210 -192
q75 0 126 29.5t51 71.5q0 81 -176 81q-78 0 -112.5 -28.5t-34.5 -68.5q0 -44 44 -64.5t102 -20.5z" />
    <glyph glyph-name="h" unicode="h" horiz-adv-x="479" 
d="M15 0v14h7q31 0 42.5 11t11.5 45v543q0 35 -10.5 46.5t-43.5 11.5h-9v14l133 15v-265l-5 -132h2q18 55 59.5 89.5t95.5 34.5q118 0 118 -149v-208q0 -34 10.5 -45t44.5 -11h2v-14h-193v14h10q34 0 44.5 11t10.5 45v233q0 92 -70 92q-54 0 -91 -47.5t-37 -113.5v-164
q0 -34 10.5 -45t43.5 -11h10v-14h-196z" />
    <glyph glyph-name="i" unicode="i" horiz-adv-x="223" 
d="M103 531q-23 0 -39 16.5t-16 38.5t16 38.5t39 16.5t39 -16.5t16 -38.5t-16 -38.5t-39 -16.5zM15 0v14h8q33 0 43.5 11t10.5 45v278q0 35 -10.5 46t-43.5 11h-8v13l133 8v-356q0 -34 10.5 -45t43.5 -11h8v-14h-195z" />
    <glyph glyph-name="j" unicode="j" horiz-adv-x="214" 
d="M104 531q-22 0 -38.5 16.5t-16.5 38.5t16.5 38.5t38.5 16.5t38.5 -16.5t16.5 -38.5t-16.5 -38.5t-38.5 -16.5zM14 -205q-44 -1 -71 20.5t-27 57.5q0 22 14.5 36.5t34.5 14.5q19 0 30.5 -12.5t11.5 -30.5t-16 -32q-17 -15 -17 -21q0 -10 12.5 -16t26.5 -5q19 1 31.5 8
t22.5 37t10 85v409q0 35 -10.5 46.5t-43.5 11.5h-17v14l143 9v-455q0 -73 -34 -124.5t-101 -52.5z" />
    <glyph glyph-name="k" unicode="k" horiz-adv-x="474" 
d="M17 0v14h5q33 0 43.5 11t10.5 45v544q0 35 -10.5 46t-43.5 11h-9v14l134 15v-525l151 162q26 27 26 44q0 23 -51 26v11h176v-11q-40 -4 -59 -15t-50 -42l-82 -84l36 -51l72 -102l37 -51q14 -19 20.5 -26.5t19.5 -14t32 -7.5v-14h-186v13q43 4 43 23q0 8 -13 27l-108 155
l-64 -64v-84q0 -34 10.5 -45t44.5 -11h6v-14h-191z" />
    <glyph glyph-name="l" unicode="l" horiz-adv-x="216" 
d="M13 0v14h4q34 0 44.5 12t10.5 48v537q0 36 -10.5 48t-44.5 12h-8v14l134 15v-626q0 -36 10.5 -48t43.5 -12h8v-14h-192z" />
    <glyph glyph-name="m" unicode="m" horiz-adv-x="735" 
d="M13 0v14h7q33 0 43.5 11t10.5 45v279q0 34 -10.5 45.5t-43.5 11.5h-7v12l133 8l-5 -123h2q19 58 60.5 91t91.5 33q100 0 114 -113q23 53 62.5 83t86.5 30q60 0 87.5 -37t27.5 -112v-208q0 -34 10.5 -45t44.5 -11h2v-14h-193v14h10q34 0 44.5 11t10.5 45v233q0 92 -67 92
q-53 0 -89 -49t-36 -113v-163q0 -34 10.5 -45t44.5 -11h9v-14h-200v14h10q34 0 44.5 11t10.5 45v233q0 92 -67 92q-53 0 -89 -48.5t-36 -113.5v-163q0 -34 10.5 -45t43.5 -11h10v-14h-198z" />
    <glyph glyph-name="n" unicode="n" horiz-adv-x="478" 
d="M13 0v14h7q33 0 43.5 11t10.5 45v279q0 34 -10.5 45.5t-43.5 11.5h-7v12l133 8l-5 -123h2q20 59 62.5 91.5t92.5 32.5q118 0 118 -149v-208q0 -34 10.5 -45t44.5 -11h2v-14h-193v14h10q34 0 44.5 11t10.5 45v233q0 92 -70 92q-54 0 -91 -47.5t-37 -114.5v-163
q0 -34 10.5 -45t43.5 -11h10v-14h-198z" />
    <glyph glyph-name="o" unicode="o" horiz-adv-x="439" 
d="M220 -15q-73 0 -134.5 66.5t-61.5 158.5q0 94 61 158.5t135 64.5t134.5 -63.5t60.5 -157.5q0 -92 -61 -159.5t-134 -67.5zM220 -1q111 0 111 210q0 94 -27 152t-84 58t-84 -57t-27 -151q0 -95 26.5 -153.5t84.5 -58.5z" />
    <glyph glyph-name="p" unicode="p" horiz-adv-x="474" 
d="M1 -204v14h12q33 0 43.5 11t10.5 46v481q0 35 -10.5 46t-43.5 11h-7v13l130 8l-3 -102h2q54 105 140 105q66 0 120.5 -62t54.5 -157t-55 -157.5t-124 -62.5q-89 0 -137 108h-1q4 -62 4 -125v-106q0 -35 10.5 -46t43.5 -11h23v-14h-213zM263 6q54 0 78.5 56t24.5 146
q0 89 -24 147t-77 58q-45 0 -87 -52.5t-42 -151.5q0 -79 37 -141t90 -62z" />
    <glyph glyph-name="q" unicode="q" horiz-adv-x="461" 
d="M259 -204v14h24q33 0 44 11.5t11 45.5v73l4 159h-3q-47 -109 -143 -109q-64 0 -118 61.5t-54 156.5q0 96 53.5 158.5t122.5 62.5q86 0 138 -103h3l70 110l13 -1q-17 -69 -17 -185v-383q0 -35 10.5 -46t43.5 -11h12v-14h-214zM212 6q52 0 89 63.5t37 140.5
q0 90 -41.5 146.5t-85.5 56.5q-53 0 -78 -56.5t-25 -146.5q0 -204 104 -204z" />
    <glyph glyph-name="r" unicode="r" horiz-adv-x="365" 
d="M13 0v14h7q33 0 43.5 11t10.5 45v280q0 33 -11 44.5t-43 11.5h-7v12l133 8l-7 -169h2q49 174 147 174q37 0 58.5 -19t21.5 -46q0 -28 -14 -43.5t-36 -15.5q-19 0 -32 11.5t-13 29.5q0 21 21 40q8 6 8 12q0 10 -22 10q-50 0 -91.5 -77.5t-41.5 -143.5v-119q0 -34 10.5 -45
t43.5 -11h23v-14h-211z" />
    <glyph glyph-name="s" unicode="s" horiz-adv-x="394" 
d="M221 -10q-36 0 -82 17.5t-53 17.5q-24 0 -36 -34h-10v170h9q12 -71 63 -114t113 -43q44 0 72.5 23t28.5 58q0 33 -27 51t-105 40t-113.5 48.5t-35.5 86.5q0 53 36 85t94 32q32 0 67.5 -13t47.5 -13q26 0 36 25h10v-152h-9q-12 63 -53.5 101t-103.5 38q-35 0 -59 -21
t-24 -53q0 -33 27 -49.5t96 -34.5q86 -23 122 -52.5t36 -86.5q0 -59 -40.5 -93t-106.5 -34z" />
    <glyph glyph-name="t" unicode="t" horiz-adv-x="304" 
d="M182 -13q-55 0 -85 32t-30 96v288h-68v12q114 20 127 184h13v-180h135v-16h-135v-293q0 -94 68 -94q32 0 53.5 34.5t24.5 98.5h14q0 -76 -31.5 -119t-85.5 -43z" />
    <glyph glyph-name="u" unicode="u" horiz-adv-x="472" 
d="M182 -10q-121 0 -121 142v216q0 34 -10.5 45.5t-43.5 11.5h-9v13l134 8v-312q0 -99 74 -99q46 0 85 54.5t39 117.5v160q0 35 -10.5 46.5t-43.5 11.5h-20v13l146 8v-350q0 -34 11 -46t44 -12h7v-13l-133 -15l5 124h-2q-20 -53 -61.5 -88.5t-90.5 -35.5z" />
    <glyph glyph-name="v" unicode="v" horiz-adv-x="442" 
d="M215 -20l-148 360q-15 36 -29 49.5t-43 15.5v13h200v-13q-50 -4 -52 -29q-1 -20 11 -52l96 -255l89 230q19 51 19 68q0 19 -13 27.5t-42 10.5v13h144v-13q-28 -2 -42 -17t-28 -48l-148 -360h-14z" />
    <glyph glyph-name="w" unicode="w" horiz-adv-x="637" 
d="M205 -20l-137 359q-13 34 -28.5 49t-44.5 17v13h194v-13q-49 -4 -51 -29q-1 -16 11 -50l90 -257l82 212l-23 70q-9 27 -21 38.5t-41 15.5v13h185v-13q-51 -5 -53 -29q-1 -12 11 -51l79 -252l79 226q16 46 16 68q0 19 -13 27.5t-42 10.5v13h144v-13q-28 -2 -41.5 -17.5
t-26.5 -48.5l-136 -359h-14l-93 274l-113 -274h-13z" />
    <glyph glyph-name="x" unicode="x" horiz-adv-x="455" 
d="M8 0v13q32 2 51.5 15.5t53.5 56.5l89 116l-121 166q-16 22 -27.5 29.5t-38.5 9.5v12h190v-12q-42 -4 -42 -20q0 -12 13 -31l75 -111l69 95q20 27 20 43q0 21 -55 24v12h153v-12q-30 -2 -49.5 -17.5t-52.5 -56.5l-77 -99l133 -181q16 -21 26.5 -28.5t32.5 -10.5v-13h-183
v13q42 3 42 19q0 11 -14 31l-86 126l-81 -111q-20 -27 -20 -40q0 -22 61 -25v-13h-162z" />
    <glyph glyph-name="y" unicode="y" horiz-adv-x="446" 
d="M87 -208q-40 0 -62 21.5t-22 53.5q0 23 14.5 38t36.5 15q17 0 29 -13t12 -29q0 -21 -14 -35q-11 -11 -11 -17q0 -17 26 -17q31 0 55.5 34.5t50.5 98.5l13 31l-150 364q-14 36 -29 51t-44 17v13h201v-13q-50 -4 -52 -30q-1 -18 12 -53l99 -262l90 236q19 49 19 70
q0 19 -13 28t-42 11v13h148v-13q-30 -2 -43.5 -17t-27.5 -51l-161 -394q-36 -87 -66.5 -119t-68.5 -32z" />
    <glyph glyph-name="z" unicode="z" horiz-adv-x="401" 
d="M17 0v10l274 395h-90q-68 0 -102 -35t-54 -117h-10l11 165h328v-8l-275 -397h114q74 0 107.5 39.5t48.5 121.5h10l-11 -174h-351z" />
    <glyph glyph-name="braceleft" unicode="{" horiz-adv-x="397" 
d="M342 -130q-205 0 -205 142q0 19 9 62.5t9 63.5q0 61 -32 96.5t-97 35.5v14q65 0 97 35.5t32 96.5q0 20 -9 63.5t-9 62.5q0 142 205 142h18v-14q-73 0 -110 -30t-37 -82q0 -22 8 -66t8 -67q0 -71 -37.5 -103t-115.5 -43v-4q76 -8 114.5 -43t38.5 -104q0 -23 -8 -66.5
t-8 -65.5q0 -52 37 -82t110 -30v-14h-18z" />
    <glyph glyph-name="bar" unicode="|" horiz-adv-x="221" 
d="M102 -204v893h17v-893h-17z" />
    <glyph glyph-name="braceright" unicode="}" horiz-adv-x="397" 
d="M37 -130v14q73 0 110 30t37 82q0 22 -8 65.5t-8 66.5q0 69 38.5 104t114.5 43v4q-78 11 -115.5 43t-37.5 103q0 23 8 67t8 66q0 52 -37 82t-110 30v14h18q205 0 205 -142q0 -19 -9 -62.5t-9 -63.5q0 -61 32 -96.5t97 -35.5v-14q-65 0 -97 -35.5t-32 -96.5q0 -20 9 -63.5
t9 -62.5q0 -142 -205 -142h-18z" />
    <glyph glyph-name="asciitilde" unicode="~" horiz-adv-x="339" 
d="M42 163l-9 3q11 56 30.5 81.5t56.5 25.5q21 0 64 -10t57 -10q22 0 34 8t22 34l9 -3q-10 -56 -29.5 -82t-57.5 -26q-21 0 -64 10.5t-57 10.5q-22 0 -34 -8t-22 -34z" />
    <glyph glyph-name="nbspace" unicode="&#xa0;" horiz-adv-x="115" 
 />
    <glyph glyph-name="exclamdown" unicode="&#xa1;" horiz-adv-x="245" 
d="M114 496h13q0 -171 35 -342q12 -55 12 -87q0 -34 -14 -54.5t-39 -20.5t-38.5 20t-13.5 55q0 22 12 87q33 172 33 342zM121 696q24 0 40.5 -16.5t16.5 -40.5t-16.5 -40.5t-40.5 -16.5t-40.5 16.5t-16.5 40.5t16.5 40.5t40.5 16.5z" />
    <glyph glyph-name="cent" unicode="&#xa2;" horiz-adv-x="401" 
d="M91 -135l41 139q-50 26 -81 80t-31 127q0 94 64 162.5t152 68.5q9 0 25 -2l29 98h17l-30 -101q42 -11 68 -41.5t26 -67.5q0 -28 -14.5 -42.5t-37.5 -14.5q-19 0 -32 15.5t-13 34.5q0 38 34 46q3 1 6.5 1h5.5h4.5h4t2.5 1t1 3q0 13 -16.5 27.5t-43.5 21.5l-109 -371
q31 -31 79 -31q76 0 130 74l10 -7q-27 -45 -72 -73t-101 -28q-32 0 -62 12l-39 -132h-17zM150 64l106 360q-14 2 -22 2q-65 0 -96 -56.5t-31 -153.5t43 -152z" />
    <glyph glyph-name="sterling" unicode="&#xa3;" horiz-adv-x="463" 
d="M87 -9q-33 0 -56.5 20t-23.5 50q0 37 25.5 58.5t64.5 21.5t97 -32q10 29 10 60q0 68 -52 151h-116v15h106q-20 31 -29 46.5t-18.5 43t-9.5 53.5q0 76 55 129.5t145 53.5q67 0 107.5 -35.5t40.5 -84.5q0 -30 -15 -48t-39 -18q-21 0 -34 14t-13 32q0 19 12 34t37 16
q6 0 13.5 -1t10 -0.5t2.5 5.5q0 21 -33.5 46.5t-88.5 25.5q-53 0 -83.5 -35t-30.5 -100q0 -27 6.5 -54t19.5 -65.5t18 -57.5h163v-15h-159q14 -56 14 -108q0 -62 -21 -113q51 -29 98 -29q60 0 87.5 31.5t32.5 102.5h13q5 -107 -26.5 -159t-106.5 -52q-59 0 -117 66
q-41 -68 -106 -68zM88 4q57 0 92 69q-24 27 -42.5 40.5t-42.5 13.5q-31 0 -52 -16.5t-21 -44.5q0 -29 18 -45.5t48 -16.5z" />
    <glyph glyph-name="currency" unicode="&#xa4;" horiz-adv-x="482" 
d="M282 -15q-35 0 -69.5 16t-65.5 48t-53.5 87t-28.5 126h-57v16h56q-2 30 -2 46q0 14 2 48v0h-1v0h-1h-1h-1h-1h-1h-1h-1h-1h-1h-1h-1h-2h-1h-1h-1h-1h-2h-1h-1h-2h-1h-2h-1h-2h-1h-2h-1h-2h-2h-1h-2h-2h-1h-2h-10v16h57q12 135 80 205t155 70q59 0 101 -35t42 -87
q0 -29 -15 -46t-38 -17q-21 0 -35 13.5t-14 36.5q0 19 11.5 33.5t31.5 16.5h8h7t5 1.5t2.5 4t-0.5 7.5q-7 22 -37 39.5t-72 17.5q-44 0 -77 -39t-49 -96.5t-19 -124.5h174v-16h-175q0 -4 -0.5 -21.5t-0.5 -26.5q0 -31 1 -46h175v-16h-174q2 -111 37.5 -185t102.5 -74
q50 0 84.5 39t48.5 98h17q-40 -155 -160 -155z" />
    <glyph glyph-name="yen" unicode="&#xa5;" horiz-adv-x="529" 
d="M134 0v14h35q31 0 45 16.5t14 53.5v182h-188v16h186l-69 123h-117v16h108l-85 150q-20 35 -35.5 48.5t-43.5 13.5h-6v14h231v-14h-23q-18 0 -29.5 -7t-11.5 -18q0 -16 10 -35l141 -262l108 194q39 73 39 92q0 36 -53 36h-15v14h184v-14q-44 -7 -70 -35.5t-65 -97.5
l-45 -79h113v-16h-122l-66 -115v-8h188v-16h-188v-182q0 -37 13 -53.5t44 -16.5h35v-14h-262z" />
    <glyph glyph-name="brokenbar" unicode="&#xa6;" horiz-adv-x="221" 
d="M102 317v372h17v-372h-17zM102 -204v372h17v-372h-17z" />
    <glyph glyph-name="section" unicode="&#xa7;" horiz-adv-x="495" 
d="M243 -14q-69 0 -102 26t-33 54q0 21 11.5 34.5t30.5 13.5t31 -11t12 -29q0 -22 -21 -32q-5 -3 -11 -3.5t-8 -1.5t-2 -5q0 -6 10.5 -13t33 -13.5t48.5 -6.5q39 0 61.5 21.5t22.5 53.5q0 18 -7 33t-16.5 25t-28.5 21t-31.5 16.5t-37.5 15.5t-36 15q-105 47 -105 128
q0 42 31 72.5t71 39.5q-59 34 -59 108q0 48 40 80.5t104 32.5q69 0 102 -26t33 -54q0 -21 -11.5 -34.5t-30.5 -13.5t-31 11t-12 29q0 21 21 32q5 3 11 3.5t8 1.5t2 5q0 6 -10.5 13t-33.5 13.5t-50 6.5q-37 0 -59.5 -21.5t-22.5 -53.5q0 -35 24 -57.5t67 -41.5q8 -4 33 -14.5
t35.5 -15.5t30.5 -15.5t29.5 -20t21.5 -23t16.5 -30t4.5 -36.5q0 -42 -28.5 -71t-73.5 -41q59 -34 59 -108q0 -48 -40 -80.5t-104 -32.5zM305 218q30 4 46 24.5t16 50.5q0 65 -92 101q-51 19 -84 34q-29 -2 -46 -21t-17 -47q0 -68 80 -103q16 -7 51.5 -20.5t45.5 -18.5z" />
    <glyph glyph-name="dieresis" unicode="&#xa8;" 
d="M335 476q-22 0 -37.5 16t-15.5 37t15.5 37t37.5 16q21 0 37 -16t16 -37t-16 -37t-37 -16zM165 476q-20 0 -36.5 16t-16.5 37t16.5 37t36.5 16q22 0 37.5 -16t15.5 -37t-15.5 -37t-37.5 -16z" />
    <glyph glyph-name="copyright" unicode="&#xa9;" horiz-adv-x="798" 
d="M399 -16q-151 0 -254.5 103.5t-103.5 254.5t103.5 254.5t254.5 103.5t254.5 -103t103.5 -255q0 -151 -103.5 -254.5t-254.5 -103.5zM399 -1q144 0 243 99.5t99 243.5t-99 243.5t-243 99.5t-243 -99.5t-99 -243.5t99 -243.5t243 -99.5zM400 135q-77 0 -130.5 56.5
t-53.5 152.5q0 90 55 150t129 60q39 0 83 -27q17 -10 29 -10q15 0 26 37h9l5 -168h-12q-15 77 -54 117t-89 40q-53 0 -79.5 -56.5t-26.5 -139.5q0 -92 28.5 -145.5t85.5 -53.5q115 0 145 152h12q-13 -80 -55.5 -122.5t-106.5 -42.5z" />
    <glyph glyph-name="ordfeminine" unicode="&#xaa;" horiz-adv-x="381" 
d="M141 332q-35 0 -57 19t-22 50q0 46 40.5 69t140.5 51v49q0 40 -15 56.5t-49 16.5q-29 0 -49.5 -10.5t-20.5 -20.5q0 -3 1 -4t5 -1h5q13 -2 20 -9q10 -10 10 -24q0 -16 -11 -26.5t-25 -10.5q-16 0 -27 10t-11 28q0 36 32.5 58t87.5 22q52 0 75.5 -23t23.5 -79v-162
q0 -31 18 -31q6 0 10 2.5t8.5 15t6.5 36.5h11q-3 -80 -55 -80q-21 0 -35.5 16.5t-15.5 48.5h-1q-13 -31 -40 -49t-61 -18zM62 250v16h266v-16h-266zM165 361q32 0 55 30t23 73v45q-66 -21 -94 -44.5t-28 -54.5q0 -22 11.5 -35.5t32.5 -13.5z" />
    <glyph glyph-name="guillemotleft" unicode="&#xab;" horiz-adv-x="459" 
d="M406 0l-207 225l207 224h14l-124 -224l124 -225h-14zM225 0l-207 225l207 224h14l-123 -224l123 -225h-14z" />
    <glyph glyph-name="logicalnot" unicode="&#xac;" horiz-adv-x="825" 
d="M621 358q-81 0 -136.5 55.5t-55.5 135.5q0 59 37.5 101.5t87.5 42.5q32 0 54 -18.5t22 -43.5q0 -17 -12.5 -30.5t-30.5 -13.5q-19 0 -32 12t-13 29q0 21 11 32q9 9 7.5 15.5t-10.5 6.5q-32 0 -56.5 -29t-24.5 -77q0 -63 57 -118t122 -55q49 0 77.5 22.5t28.5 53.5
q0 9 -6.5 10.5t-15.5 -7.5q-11 -11 -32 -11q-17 0 -29 13t-12 32q0 18 13.5 30.5t30.5 12.5q25 0 43.5 -22t18.5 -54q0 -50 -42.5 -87.5t-101.5 -37.5zM204 358q-59 0 -101.5 37.5t-42.5 87.5q0 32 18.5 54t43.5 22q17 0 30.5 -12.5t13.5 -30.5q0 -19 -12 -32t-29 -13
q-21 0 -32 11q-9 9 -15.5 7.5t-6.5 -10.5q0 -31 28.5 -53.5t77.5 -22.5q65 0 122 55t57 118q0 48 -24.5 77t-56.5 29q-9 0 -10.5 -6.5t7.5 -15.5q11 -11 11 -32q0 -17 -13 -29t-32 -12q-18 0 -30.5 13.5t-12.5 30.5q0 25 22 43.5t54 18.5q50 0 87.5 -42.5t37.5 -101.5
q0 -80 -55.5 -135.5t-136.5 -55.5zM554 -9q-50 0 -87.5 42.5t-37.5 101.5q0 80 55.5 135.5t136.5 55.5q59 0 101.5 -37.5t42.5 -87.5q0 -32 -18.5 -54t-43.5 -22q-17 0 -30.5 12.5t-13.5 30.5q0 19 12 32t29 13q21 0 32 -11q9 -9 15.5 -7.5t6.5 10.5q0 31 -28.5 53.5
t-77.5 22.5q-65 0 -122 -55t-57 -118q0 -48 24.5 -77t56.5 -29q9 0 10.5 6.5t-7.5 15.5q-11 11 -11 32q0 17 13 29t32 12q18 0 30.5 -13.5t12.5 -30.5q0 -25 -22 -43.5t-54 -18.5zM271 -9q-32 0 -54 18.5t-22 43.5q0 17 12.5 30.5t30.5 13.5q19 0 32 -12t13 -29
q0 -21 -11 -32q-9 -9 -7.5 -15.5t10.5 -6.5q32 0 56.5 29t24.5 77q0 63 -57 118t-122 55q-49 0 -77.5 -22.5t-28.5 -53.5q0 -9 6.5 -10.5t15.5 7.5q11 11 32 11q17 0 29 -13t12 -32q0 -18 -13.5 -30.5t-30.5 -12.5q-25 0 -43.5 22t-18.5 54q0 50 42.5 87.5t101.5 37.5
q81 0 136.5 -55.5t55.5 -135.5q0 -59 -37.5 -101.5t-87.5 -42.5z" />
    <glyph glyph-name="registered" unicode="&#xae;" horiz-adv-x="449" 
d="M225 327q-77 0 -130.5 53t-53.5 130t53.5 130t130.5 53t130.5 -53t53.5 -130t-53.5 -130t-130.5 -53zM225 342q71 0 119 48.5t48 119.5t-48 119.5t-119 48.5t-119 -48.5t-48 -119.5t48 -119.5t119 -48.5zM300 407q-38 0 -42 58q-4 43 -32 43h-25v-75q0 -8 3.5 -10.5
t12.5 -2.5h18v-10h-99v10h11q17 0 17 13v162q0 14 -17 14h-11v11h85q89 0 89 -54q0 -20 -19.5 -35.5t-47.5 -17.5q26 -6 43 -48q9 -22 14 -28.5t14 -6.5q14 0 13 34h7q2 -28 -8 -42.5t-26 -14.5zM201 519h28q40 0 40 46q0 44 -38 44h-14q-16 0 -16 -14v-76z" />
    <glyph glyph-name="macron" unicode="&#xaf;" 
d="M130 471v58h240v-58h-240z" />
    <glyph glyph-name="macron" unicode="&#x2c9;" 
d="M130 471v58h240v-58h-240z" />
    <glyph glyph-name="degree" unicode="&#xb0;" horiz-adv-x="330" 
d="M165 426q-49 0 -83 34t-34 83t34 83t83 34t83 -34t34 -83t-34 -83t-83 -34zM165 441q43 0 71 29t28 73q0 42 -28.5 72t-70.5 30t-70.5 -29.5t-28.5 -72.5t28.5 -72.5t70.5 -29.5z" />
    <glyph glyph-name="plusminus" unicode="&#xb1;" horiz-adv-x="751" 
d="M25 0v14h8q33 0 43.5 11.5t10.5 45.5v332h-62v15h62v59q0 97 50.5 159t141.5 62q41 0 71 -11.5t41.5 -24t12.5 -21.5q48 57 131 57q47 0 80 -13l63 15v-625q0 -36 10.5 -48.5t43.5 -12.5h8v-14h-192v14h4q33 0 44 12.5t11 48.5v328h-188v-332q0 -34 10.5 -45.5
t43.5 -11.5h24v-14h-212v14h8q33 0 43.5 11.5t10.5 45.5v332h-188v-332q0 -34 10.5 -45.5t43.5 -11.5h24v-14h-212zM419 418h188v153q-27 9 -27 40q0 22 15 33q7 6 7 12q0 12 -19.5 20t-47.5 8q-116 0 -116 -184v-82zM159 418h188v49q0 62 16 103q-18 0 -30.5 13.5
t-12.5 31.5q0 19 15 34q14 14 -11 27q-16 8 -49 8q-116 0 -116 -184v-82z" />
    <glyph glyph-name="twosuperior" unicode="&#xb2;" horiz-adv-x="346" 
d="M50 301v15q37 81 112 156q31 31 44 52.5t13 48.5q0 80 -65 80q-27 0 -51.5 -17t-25.5 -40q0 -9 9 -8q20 3 32 -7t12 -26q0 -15 -10.5 -24t-26.5 -9q-17 0 -27.5 14t-10.5 32q0 42 33.5 71.5t77.5 29.5q53 0 85 -26t32 -69q0 -18 -5 -32.5t-22.5 -31.5t-26.5 -24t-41 -30
q-44 -33 -67 -55.5t-38 -52.5h131q30 0 41.5 14t17.5 51h9l-5 -112h-227z" />
    <glyph glyph-name="threesuperior" unicode="&#xb3;" horiz-adv-x="359" 
d="M166 287q-43 0 -74.5 24t-31.5 61q0 21 11 33.5t28 12.5q15 0 25 -10t10 -24q0 -16 -12 -24t-35 -5q-5 1 -8 0t-2 -4q2 -17 27.5 -33.5t58.5 -16.5q34 0 54.5 25.5t20.5 66.5q0 37 -21 58.5t-57 21.5q-7 0 -15 -1.5t-10 -1.5q-15 0 -15 11q0 12 16 12q2 0 10 -1.5
t14 -1.5q71 0 71 84q0 81 -70 81q-27 0 -48 -13t-24 -31q-1 -2 2 -3.5t7 -1.5q39 2 39 -32q0 -15 -8.5 -23.5t-21.5 -8.5q-16 0 -26.5 12.5t-10.5 30.5q0 34 31 61t74 27q52 0 84 -28t32 -73q0 -33 -33 -59.5t-80 -28.5v-2q53 -2 87 -28t34 -65q0 -46 -39.5 -74t-93.5 -28z
" />
    <glyph glyph-name="acute" unicode="&#xb4;" 
d="M194 474l-8 7l88 118q24 33 54 33q15 0 26 -10.5t11 -23.5q0 -28 -38 -50z" />
    <glyph glyph-name="mu" unicode="&#xb5;" horiz-adv-x="825" 
d="M621 358q-81 0 -136.5 55.5t-55.5 135.5q0 59 37.5 101.5t87.5 42.5q32 0 54 -18.5t22 -43.5q0 -17 -12.5 -30.5t-30.5 -13.5q-19 0 -32 12t-13 29q0 21 11 32q9 9 7.5 15.5t-10.5 6.5q-32 0 -56.5 -29t-24.5 -77q0 -63 57 -118t122 -55q49 0 77.5 22.5t28.5 53.5
q0 9 -6.5 10.5t-15.5 -7.5q-11 -11 -32 -11q-17 0 -29 13t-12 32q0 18 13.5 30.5t30.5 12.5q25 0 43.5 -22t18.5 -54q0 -50 -42.5 -87.5t-101.5 -37.5zM204 358q-59 0 -101.5 37.5t-42.5 87.5q0 32 18.5 54t43.5 22q17 0 30.5 -12.5t13.5 -30.5q0 -19 -12 -32t-29 -13
q-21 0 -32 11q-9 9 -15.5 7.5t-6.5 -10.5q0 -31 28.5 -53.5t77.5 -22.5q65 0 122 55t57 118q0 48 -24.5 77t-56.5 29q-9 0 -10.5 -6.5t7.5 -15.5q11 -11 11 -32q0 -17 -13 -29t-32 -12q-18 0 -30.5 13.5t-12.5 30.5q0 25 22 43.5t54 18.5q50 0 87.5 -42.5t37.5 -101.5
q0 -80 -55.5 -135.5t-136.5 -55.5zM554 -9q-50 0 -87.5 42.5t-37.5 101.5q0 80 55.5 135.5t136.5 55.5q59 0 101.5 -37.5t42.5 -87.5q0 -32 -18.5 -54t-43.5 -22q-17 0 -30.5 12.5t-13.5 30.5q0 19 12 32t29 13q21 0 32 -11q9 -9 15.5 -7.5t6.5 10.5q0 31 -28.5 53.5
t-77.5 22.5q-65 0 -122 -55t-57 -118q0 -48 24.5 -77t56.5 -29q9 0 10.5 6.5t-7.5 15.5q-11 11 -11 32q0 17 13 29t32 12q18 0 30.5 -13.5t12.5 -30.5q0 -25 -22 -43.5t-54 -18.5zM271 -9q-32 0 -54 18.5t-22 43.5q0 17 12.5 30.5t30.5 13.5q19 0 32 -12t13 -29
q0 -21 -11 -32q-9 -9 -7.5 -15.5t10.5 -6.5q32 0 56.5 29t24.5 77q0 63 -57 118t-122 55q-49 0 -77.5 -22.5t-28.5 -53.5q0 -9 6.5 -10.5t15.5 7.5q11 11 32 11q17 0 29 -13t12 -32q0 -18 -13.5 -30.5t-30.5 -12.5q-25 0 -43.5 22t-18.5 54q0 50 42.5 87.5t101.5 37.5
q81 0 136.5 -55.5t55.5 -135.5q0 -59 -37.5 -101.5t-87.5 -42.5z" />
    <glyph glyph-name="mu" unicode="&#x3bc;" horiz-adv-x="825" 
d="M621 358q-81 0 -136.5 55.5t-55.5 135.5q0 59 37.5 101.5t87.5 42.5q32 0 54 -18.5t22 -43.5q0 -17 -12.5 -30.5t-30.5 -13.5q-19 0 -32 12t-13 29q0 21 11 32q9 9 7.5 15.5t-10.5 6.5q-32 0 -56.5 -29t-24.5 -77q0 -63 57 -118t122 -55q49 0 77.5 22.5t28.5 53.5
q0 9 -6.5 10.5t-15.5 -7.5q-11 -11 -32 -11q-17 0 -29 13t-12 32q0 18 13.5 30.5t30.5 12.5q25 0 43.5 -22t18.5 -54q0 -50 -42.5 -87.5t-101.5 -37.5zM204 358q-59 0 -101.5 37.5t-42.5 87.5q0 32 18.5 54t43.5 22q17 0 30.5 -12.5t13.5 -30.5q0 -19 -12 -32t-29 -13
q-21 0 -32 11q-9 9 -15.5 7.5t-6.5 -10.5q0 -31 28.5 -53.5t77.5 -22.5q65 0 122 55t57 118q0 48 -24.5 77t-56.5 29q-9 0 -10.5 -6.5t7.5 -15.5q11 -11 11 -32q0 -17 -13 -29t-32 -12q-18 0 -30.5 13.5t-12.5 30.5q0 25 22 43.5t54 18.5q50 0 87.5 -42.5t37.5 -101.5
q0 -80 -55.5 -135.5t-136.5 -55.5zM554 -9q-50 0 -87.5 42.5t-37.5 101.5q0 80 55.5 135.5t136.5 55.5q59 0 101.5 -37.5t42.5 -87.5q0 -32 -18.5 -54t-43.5 -22q-17 0 -30.5 12.5t-13.5 30.5q0 19 12 32t29 13q21 0 32 -11q9 -9 15.5 -7.5t6.5 10.5q0 31 -28.5 53.5
t-77.5 22.5q-65 0 -122 -55t-57 -118q0 -48 24.5 -77t56.5 -29q9 0 10.5 6.5t-7.5 15.5q-11 11 -11 32q0 17 13 29t32 12q18 0 30.5 -13.5t12.5 -30.5q0 -25 -22 -43.5t-54 -18.5zM271 -9q-32 0 -54 18.5t-22 43.5q0 17 12.5 30.5t30.5 13.5q19 0 32 -12t13 -29
q0 -21 -11 -32q-9 -9 -7.5 -15.5t10.5 -6.5q32 0 56.5 29t24.5 77q0 63 -57 118t-122 55q-49 0 -77.5 -22.5t-28.5 -53.5q0 -9 6.5 -10.5t15.5 7.5q11 11 32 11q17 0 29 -13t12 -32q0 -18 -13.5 -30.5t-30.5 -12.5q-25 0 -43.5 22t-18.5 54q0 50 42.5 87.5t101.5 37.5
q81 0 136.5 -55.5t55.5 -135.5q0 -59 -37.5 -101.5t-87.5 -42.5z" />
    <glyph glyph-name="paragraph" unicode="&#xb6;" horiz-adv-x="513" 
d="M220 -5v324q-173 22 -173 169q0 76 50 117.5t136 41.5h222v-15h-80v-637h-16v637h-123v-637h-16z" />
    <glyph glyph-name="periodcentered" unicode="&#xb7;" horiz-adv-x="230" 
d="M115 171q-24 0 -40.5 16.5t-16.5 40.5t16.5 40.5t40.5 16.5t40.5 -16.5t16.5 -40.5t-16.5 -40.5t-40.5 -16.5z" />
    <glyph glyph-name="periodcentered" unicode="&#x2219;" horiz-adv-x="230" 
d="M115 171q-24 0 -40.5 16.5t-16.5 40.5t16.5 40.5t40.5 16.5t40.5 -16.5t16.5 -40.5t-16.5 -40.5t-40.5 -16.5z" />
    <glyph glyph-name="cedilla" unicode="&#xb8;" 
d="M261 -203q-57 0 -106 37l8 13q40 -29 84 -29q23 0 36 14t13 37t-11.5 37.5t-29.5 14.5q-10 0 -22 -3v82h15v-63q12 3 29 3q35 0 57 -18t22 -48q0 -38 -26 -57.5t-69 -19.5z" />
    <glyph glyph-name="onesuperior" unicode="&#xb9;" horiz-adv-x="287" 
d="M60 296v15h21q20 0 28.5 6.5t8.5 24.5v234q0 19 -8.5 25.5t-28.5 6.5h-21v15q47 4 68.5 13t33.5 27h12v-321q0 -18 8 -24.5t28 -6.5h17v-15h-167z" />
    <glyph glyph-name="ordmasculine" unicode="&#xba;" horiz-adv-x="371" 
d="M185 330q-50 0 -92 47t-42 116q0 70 42 117t92 47t92 -46t42 -117t-42 -117.5t-92 -46.5zM55 250v16h260v-16h-260zM186 341q36 0 53 43.5t17 108.5t-17.5 108.5t-53.5 43.5q-70 0 -70 -151q0 -153 71 -153z" />
    <glyph glyph-name="guillemotright" unicode="&#xbb;" horiz-adv-x="459" 
d="M220 0l123 225l-123 224h14l207 -224l-207 -225h-14zM39 0l124 225l-124 224h14l207 -224l-207 -225h-14z" />
    <glyph glyph-name="onequarter" unicode="&#xbc;" horiz-adv-x="682" 
d="M60 296v15h21q20 0 28.5 6.5t8.5 24.5v234q0 19 -8.5 25.5t-28.5 6.5h-21v15q47 4 68.5 13t33.5 27h12v-321q0 -18 8 -24.5t28 -6.5h17v-15h-167zM149 -6l333 659h25l-335 -659h-23zM467 0v15h18q21 0 29.5 6.5t8.5 25.5v53h-154v16l172 264h37v-259h56v-21h-56v-53
q0 -19 8.5 -25.5t28.5 -6.5h15v-15h-163zM391 121h132v202z" />
    <glyph glyph-name="onehalf" unicode="&#xbd;" horiz-adv-x="705" 
d="M60 296v15h21q20 0 28.5 6.5t8.5 24.5v234q0 19 -8.5 25.5t-28.5 6.5h-21v15q47 4 68.5 13t33.5 27h12v-321q0 -18 8 -24.5t28 -6.5h17v-15h-167zM149 -6l333 659h25l-335 -659h-23zM401 0v15q37 81 112 156q31 31 44 52.5t13 48.5q0 80 -65 80q-27 0 -51.5 -17
t-25.5 -40q0 -9 9 -8q20 3 32 -7t12 -26q0 -15 -10.5 -24t-26.5 -9q-17 0 -27.5 14t-10.5 32q0 42 33.5 71.5t77.5 29.5q53 0 85 -26t32 -69q0 -18 -5 -32.5t-22.5 -31.5t-26.5 -24t-41 -30q-44 -33 -67 -55.5t-38 -52.5h131q30 0 41.5 14t17.5 51h9l-5 -112h-227z" />
    <glyph glyph-name="threequarters" unicode="&#xbe;" horiz-adv-x="706" 
d="M160 287q-43 0 -74.5 24t-31.5 61q0 21 11 33.5t28 12.5q15 0 25 -10t10 -24q0 -16 -12 -24t-35 -5q-5 1 -8 0t-2 -4q2 -17 27.5 -33.5t58.5 -16.5q34 0 54.5 25.5t20.5 66.5q0 37 -21 58.5t-57 21.5q-7 0 -15 -1.5t-10 -1.5q-15 0 -15 11q0 12 16 12q2 0 10 -1.5
t14 -1.5q71 0 71 84q0 81 -70 81q-27 0 -48 -13t-24 -31q-1 -2 2 -3.5t7 -1.5q39 2 39 -32q0 -15 -8.5 -23.5t-21.5 -8.5q-16 0 -26.5 12.5t-10.5 30.5q0 34 31 61t74 27q52 0 84 -28t32 -73q0 -33 -33 -59.5t-80 -28.5v-2q53 -2 87 -28t34 -65q0 -46 -39.5 -74t-93.5 -28z
M199 -6l333 659h25l-335 -659h-23zM497 0v15h18q21 0 29.5 6.5t8.5 25.5v53h-154v16l172 264h37v-259h56v-21h-56v-53q0 -19 8.5 -25.5t28.5 -6.5h15v-15h-163zM421 121h132v202z" />
    <glyph glyph-name="questiondown" unicode="&#xbf;" horiz-adv-x="405" 
d="M231 491v-18q0 -57 -11 -91t-59 -112q-37 -59 -37 -127q0 -62 26.5 -98t70.5 -36q45 0 80 24.5t37 51.5v6.5t-1 3t-2 0t-4 -1.5t-5.5 -2t-6.5 -2t-8 -1q-20 0 -35 14t-15 40q0 20 14.5 35t36.5 15q25 0 41 -18.5t16 -49.5q0 -55 -45 -92t-112 -37q-73 0 -121 40.5
t-48 114.5q0 66 76 149q58 66 78 99t20 78v15h14zM223 695q24 0 40.5 -16.5t16.5 -40.5t-16.5 -40.5t-40.5 -16.5t-40.5 16.5t-16.5 40.5t16.5 40.5t40.5 16.5z" />
    <glyph glyph-name="Agrave" unicode="&#xc0;" horiz-adv-x="647" 
d="M-2 0v15q39 6 59 29.5t41 81.5l213 577h22l226 -617q15 -40 34.5 -54.5t55.5 -16.5v-15h-266v15h29q27 0 43 10.5t16 26.5q0 23 -20 79l-34 94h-260l-22 -61q-22 -62 -22 -98q0 -51 56 -51h19v-15h-190zM162 240h250l-125 354zM368 729l-133 74q-38 22 -38 50
q0 13 11 23.5t26 10.5q30 0 54 -33l87 -118z" />
    <glyph glyph-name="Aacute" unicode="&#xc1;" horiz-adv-x="647" 
d="M-2 0v15q39 6 59 29.5t41 81.5l213 577h22l226 -617q15 -40 34.5 -54.5t55.5 -16.5v-15h-266v15h29q27 0 43 10.5t16 26.5q0 23 -20 79l-34 94h-260l-22 -61q-22 -62 -22 -98q0 -51 56 -51h19v-15h-190zM162 240h250l-125 354zM273 727l-8 7l88 118q24 33 54 33
q15 0 26 -10.5t11 -23.5q0 -28 -38 -50z" />
    <glyph glyph-name="Acircumflex" unicode="&#xc2;" horiz-adv-x="647" 
d="M-2 0v15q39 6 59 29.5t41 81.5l213 577h22l226 -617q15 -40 34.5 -54.5t55.5 -16.5v-15h-266v15h29q27 0 43 10.5t16 26.5q0 23 -20 79l-34 94h-260l-22 -61q-22 -62 -22 -98q0 -51 56 -51h19v-15h-190zM162 240h250l-125 354zM213 709l-7 4l89 143h51l89 -143l-6 -4
l-109 76z" />
    <glyph glyph-name="Atilde" unicode="&#xc3;" horiz-adv-x="647" 
d="M-2 0v15q39 6 59 29.5t41 81.5l213 577h22l226 -617q15 -40 34.5 -54.5t55.5 -16.5v-15h-266v15h29q27 0 43 10.5t16 26.5q0 23 -20 79l-34 94h-260l-22 -61q-22 -62 -22 -98q0 -51 56 -51h19v-15h-190zM162 240h250l-125 354zM208 724l-9 2q12 51 30.5 74t53.5 22
q19 -1 63.5 -13t57.5 -12q15 -1 24 8t19 32l8 -2q-12 -52 -30.5 -75.5t-52.5 -22.5q-20 1 -64 13.5t-57 12.5q-15 1 -24 -8t-19 -31z" />
    <glyph glyph-name="Adieresis" unicode="&#xc4;" horiz-adv-x="647" 
d="M-2 0v15q39 6 59 29.5t41 81.5l213 577h22l226 -617q15 -40 34.5 -54.5t55.5 -16.5v-15h-266v15h29q27 0 43 10.5t16 26.5q0 23 -20 79l-34 94h-260l-22 -61q-22 -62 -22 -98q0 -51 56 -51h19v-15h-190zM162 240h250l-125 354zM406 729q-22 0 -37.5 16t-15.5 37t15.5 37
t37.5 16q21 0 37 -16t16 -37t-16 -37t-37 -16zM236 729q-20 0 -36.5 16t-16.5 37t16.5 37t36.5 16q22 0 37.5 -16t15.5 -37t-15.5 -37t-37.5 -16z" />
    <glyph glyph-name="Aring" unicode="&#xc5;" horiz-adv-x="647" 
d="M-2 0v15q39 6 59 29.5t41 81.5l207 561q-29 5 -48.5 28.5t-19.5 54.5q0 35 24.5 60t59.5 25t59.5 -25t24.5 -60q0 -31 -18.5 -54t-47.5 -29l220 -601q15 -40 34.5 -54.5t55.5 -16.5v-15h-266v15h29q27 0 43 10.5t16 26.5q0 20 -20 79l-34 94h-260l-22 -61
q-22 -66 -22 -98q0 -51 56 -51h19v-15h-190zM321 702q28 0 43 19t15 49q0 31 -15 49.5t-43 18.5q-27 0 -42.5 -19t-15.5 -49q0 -29 16 -48.5t42 -19.5zM162 240h250l-125 354z" />
    <glyph glyph-name="AE" unicode="&#xc6;" horiz-adv-x="904" 
d="M-21 0v14q39 6 63 30.5t55 81.5q214 362 280 483q17 30 17 43q0 18 -57 18h-23v14h510l10 -246h-13q-17 123 -58 177t-142 54h-63q-36 0 -50 -12.5t-14 -47.5v-246h51q69 0 97.5 37.5t29.5 105.5h13v-310h-13q-2 152 -127 152h-51v-273q0 -35 14 -47.5t50 -12.5h82
q51 0 86 16.5t56.5 53t33 76.5t23.5 106h13l-17 -267h-516v15h29q35 0 49 13t14 48v149h-234l-35 -61q-3 -6 -13 -22t-15.5 -27t-11 -26.5t-5.5 -28.5q0 -45 55 -45h19v-15h-192zM186 240h225v387h-3z" />
    <glyph glyph-name="Ccedilla" unicode="&#xc7;" horiz-adv-x="586" 
d="M326 -203q-58 0 -106 37l8 13q39 -29 84 -29q23 0 36 14t13 37t-11.5 37.5t-29.5 14.5q-10 0 -22 -3v67q-104 7 -184.5 105.5t-80.5 247.5q0 157 86.5 256.5t192.5 99.5q64 0 136 -48q17 -11 34 -11q23 0 37 59h12l8 -270h-15q-28 124 -85 189t-130 65q-88 0 -133 -91
t-45 -245q0 -149 49.5 -243.5t141.5 -94.5q82 0 136.5 67t72.5 179h20q-17 -123 -77 -192.5t-151 -73.5h-10v-47q12 3 29 3q35 0 57 -18t22 -48q0 -38 -26 -57.5t-69 -19.5z" />
    <glyph glyph-name="Egrave" unicode="&#xc8;" horiz-adv-x="595" 
d="M10 0v15h29q35 0 49 13t14 48v532q0 35 -14 48t-49 13h-29v15h505l10 -246h-13q-17 123 -58 177t-142 54h-63q-36 0 -50 -12.5t-14 -47.5v-246h51q69 0 97.5 38t29.5 106h13v-311h-13q-2 152 -127 152h-51v-273q0 -35 14 -47.5t50 -12.5h82q51 0 86 16.5t56.5 53t33 76.5
t23.5 106h13l-17 -267h-516zM354 727l-133 74q-38 22 -38 50q0 13 11 23.5t26 10.5q30 0 54 -33l87 -118z" />
    <glyph glyph-name="Eacute" unicode="&#xc9;" horiz-adv-x="595" 
d="M10 0v15h29q35 0 49 13t14 48v532q0 35 -14 48t-49 13h-29v15h505l10 -246h-13q-17 123 -58 177t-142 54h-63q-36 0 -50 -12.5t-14 -47.5v-246h51q69 0 97.5 38t29.5 106h13v-311h-13q-2 152 -127 152h-51v-273q0 -35 14 -47.5t50 -12.5h82q51 0 86 16.5t56.5 53t33 76.5
t23.5 106h13l-17 -267h-516zM254 727l-8 7l88 118q24 33 54 33q15 0 26 -10.5t11 -23.5q0 -28 -38 -50z" />
    <glyph glyph-name="Ecircumflex" unicode="&#xca;" horiz-adv-x="595" 
d="M10 0v15h29q35 0 49 13t14 48v532q0 35 -14 48t-49 13h-29v15h505l10 -246h-13q-17 123 -58 177t-142 54h-63q-36 0 -50 -12.5t-14 -47.5v-246h51q69 0 97.5 38t29.5 106h13v-311h-13q-2 152 -127 152h-51v-273q0 -35 14 -47.5t50 -12.5h82q51 0 86 16.5t56.5 53t33 76.5
t23.5 106h13l-17 -267h-516zM192 716l-7 4l89 143h51l89 -143l-6 -4l-109 76z" />
    <glyph glyph-name="Edieresis" unicode="&#xcb;" horiz-adv-x="595" 
d="M10 0v15h29q35 0 49 13t14 48v532q0 35 -14 48t-49 13h-29v15h505l10 -246h-13q-17 123 -58 177t-142 54h-63q-36 0 -50 -12.5t-14 -47.5v-246h51q69 0 97.5 38t29.5 106h13v-311h-13q-2 152 -127 152h-51v-273q0 -35 14 -47.5t50 -12.5h82q51 0 86 16.5t56.5 53t33 76.5
t23.5 106h13l-17 -267h-516zM382 728q-22 0 -37.5 16t-15.5 37t15.5 37t37.5 16q21 0 37 -16t16 -37t-16 -37t-37 -16zM212 728q-20 0 -36.5 16t-16.5 37t16.5 37t36.5 16q22 0 37.5 -16t15.5 -37t-15.5 -37t-37.5 -16z" />
    <glyph glyph-name="Igrave" unicode="&#xcc;" horiz-adv-x="304" 
d="M15 0v15h32q35 0 49 12.5t14 47.5v534q0 35 -14 47.5t-49 12.5h-32v15h274v-15h-31q-35 0 -49 -12.5t-14 -47.5v-534q0 -35 14 -47.5t49 -12.5h31v-15h-274zM197 727l-133 74q-38 22 -38 50q0 13 11 23.5t26 10.5q30 0 54 -33l87 -118z" />
    <glyph glyph-name="Iacute" unicode="&#xcd;" horiz-adv-x="304" 
d="M15 0v15h32q35 0 49 12.5t14 47.5v534q0 35 -14 47.5t-49 12.5h-32v15h274v-15h-31q-35 0 -49 -12.5t-14 -47.5v-534q0 -35 14 -47.5t49 -12.5h31v-15h-274zM111 727l-8 7l88 118q24 33 54 33q15 0 26 -10.5t11 -23.5q0 -28 -38 -50z" />
    <glyph glyph-name="Icircumflex" unicode="&#xce;" horiz-adv-x="304" 
d="M15 0v15h32q35 0 49 12.5t14 47.5v534q0 35 -14 47.5t-49 12.5h-32v15h274v-15h-31q-35 0 -49 -12.5t-14 -47.5v-534q0 -35 14 -47.5t49 -12.5h31v-15h-274zM44 718l-7 4l89 143h51l89 -143l-6 -4l-109 76z" />
    <glyph glyph-name="Idieresis" unicode="&#xcf;" horiz-adv-x="304" 
d="M15 0v15h32q35 0 49 12.5t14 47.5v534q0 35 -14 47.5t-49 12.5h-32v15h274v-15h-31q-35 0 -49 -12.5t-14 -47.5v-534q0 -35 14 -47.5t49 -12.5h31v-15h-274zM236 729q-22 0 -37.5 16t-15.5 37t15.5 37t37.5 16q21 0 37 -16t16 -37t-16 -37t-37 -16zM66 729
q-20 0 -36.5 16t-16.5 37t16.5 37t36.5 16q22 0 37.5 -16t15.5 -37t-15.5 -37t-37.5 -16z" />
    <glyph glyph-name="Eth" unicode="&#xd0;" horiz-adv-x="636" 
d="M10 0v15h29q35 0 49 12.5t14 47.5v257h-83v19h83v258q0 35 -14 47.5t-49 12.5h-29v15h274q134 0 226.5 -92.5t92.5 -247.5q0 -165 -92 -254.5t-229 -89.5h-272zM249 15h36q115 0 170 79t55 246q0 329 -226 329h-35q-36 0 -50 -12.5t-14 -46.5v-259h159v-19h-159v-258
q0 -34 14 -46.5t50 -12.5z" />
    <glyph glyph-name="Ntilde" unicode="&#xd1;" horiz-adv-x="696" 
d="M570 -14l-441 598v-446q0 -74 20 -98.5t77 -24.5h4v-15h-223v15h13q51 0 69.5 25t18.5 98v477q-13 19 -43.5 36t-65.5 18v15h160l416 -565v426q0 74 -20 99t-77 25h-4v15h223v-15h-12q-51 0 -70 -25.5t-19 -98.5v-559h-26zM244 724l-9 2q12 51 30.5 74t53.5 22
q19 -1 63.5 -13t57.5 -12q15 -1 24 8t19 32l8 -2q-12 -52 -30.5 -75.5t-52.5 -22.5q-20 1 -64 13.5t-57 12.5q-15 1 -24 -8t-19 -31z" />
    <glyph glyph-name="Ograve" unicode="&#xd2;" horiz-adv-x="626" 
d="M312 -16q-106 0 -192.5 102.5t-86.5 253.5q0 152 87.5 256t193.5 104q105 0 192 -103t87 -253q0 -152 -85.5 -256t-195.5 -104zM314 0q181 0 181 340q0 73 -9 132.5t-29.5 108.5t-57 76t-87.5 27q-181 0 -181 -340q0 -73 9 -132.5t29.5 -108.5t57 -76t87.5 -27zM370 727
l-133 74q-38 22 -38 50q0 13 11 23.5t26 10.5q30 0 54 -33l87 -118z" />
    <glyph glyph-name="Oacute" unicode="&#xd3;" horiz-adv-x="626" 
d="M312 -16q-106 0 -192.5 102.5t-86.5 253.5q0 152 87.5 256t193.5 104q105 0 192 -103t87 -253q0 -152 -85.5 -256t-195.5 -104zM314 0q181 0 181 340q0 73 -9 132.5t-29.5 108.5t-57 76t-87.5 27q-181 0 -181 -340q0 -73 9 -132.5t29.5 -108.5t57 -76t87.5 -27zM267 727
l-8 7l88 118q24 33 54 33q15 0 26 -10.5t11 -23.5q0 -28 -38 -50z" />
    <glyph glyph-name="Ocircumflex" unicode="&#xd4;" horiz-adv-x="626" 
d="M312 -16q-106 0 -192.5 102.5t-86.5 253.5q0 152 87.5 256t193.5 104q105 0 192 -103t87 -253q0 -152 -85.5 -256t-195.5 -104zM314 0q181 0 181 340q0 73 -9 132.5t-29.5 108.5t-57 76t-87.5 27q-181 0 -181 -340q0 -73 9 -132.5t29.5 -108.5t57 -76t87.5 -27zM206 716
l-7 4l89 143h51l89 -143l-6 -4l-109 76z" />
    <glyph glyph-name="Otilde" unicode="&#xd5;" horiz-adv-x="626" 
d="M312 -16q-106 0 -192.5 102.5t-86.5 253.5q0 152 87.5 256t193.5 104q105 0 192 -103t87 -253q0 -152 -85.5 -256t-195.5 -104zM314 0q181 0 181 340q0 73 -9 132.5t-29.5 108.5t-57 76t-87.5 27q-181 0 -181 -340q0 -73 9 -132.5t29.5 -108.5t57 -76t87.5 -27zM194 724
l-9 2q12 51 30.5 74t53.5 22q19 -1 63.5 -13t57.5 -12q15 -1 24 8t19 32l8 -2q-12 -52 -30.5 -75.5t-52.5 -22.5q-20 1 -64 13.5t-57 12.5q-15 1 -24 -8t-19 -31z" />
    <glyph glyph-name="Odieresis" unicode="&#xd6;" horiz-adv-x="626" 
d="M312 -16q-106 0 -192.5 102.5t-86.5 253.5q0 152 87.5 256t193.5 104q105 0 192 -103t87 -253q0 -152 -85.5 -256t-195.5 -104zM314 0q181 0 181 340q0 73 -9 132.5t-29.5 108.5t-57 76t-87.5 27q-181 0 -181 -340q0 -73 9 -132.5t29.5 -108.5t57 -76t87.5 -27zM399 729
q-22 0 -37.5 16t-15.5 37t15.5 37t37.5 16q21 0 37 -16t16 -37t-16 -37t-37 -16zM229 729q-20 0 -36.5 16t-16.5 37t16.5 37t36.5 16q22 0 37.5 -16t15.5 -37t-15.5 -37t-37.5 -16z" />
    <glyph glyph-name="multiply" unicode="&#xd7;" horiz-adv-x="532" 
d="M89 132l-14 15l177 176l-177 177l15 15l176 -177l177 177l14 -14l-176 -177l176 -177l-15 -15l-176 177z" />
    <glyph glyph-name="Oslash" unicode="&#xd8;" horiz-adv-x="628" 
d="M74 -25l61 93q-102 109 -102 272q0 152 87.5 256t193.5 104q97 0 178 -87l64 97h18l-72 -109q91 -106 91 -257q0 -152 -85.5 -256t-195.5 -104q-89 0 -166 74l-54 -83h-18zM165 114l297 453q-46 117 -150 117q-181 0 -181 -340q0 -142 34 -230zM314 0q181 0 181 340
q0 127 -27 209l-296 -452q48 -97 142 -97z" />
    <glyph glyph-name="Ugrave" unicode="&#xd9;" horiz-adv-x="674" 
d="M334 -10q-123 0 -180 64t-57 173v381q0 35 -14 48t-49 13h-29v15h267v-15h-28q-35 0 -49.5 -13t-14.5 -48v-407q0 -88 47 -138t138 -50q84 0 132.5 57t48.5 140v333q0 74 -19.5 100t-77.5 26h-3v15h221v-15h-12q-50 0 -69 -26.5t-19 -99.5v-322q0 -109 -62 -170t-171 -61
zM386 727l-133 74q-38 22 -38 50q0 13 11 23.5t26 10.5q30 0 54 -33l87 -118z" />
    <glyph glyph-name="Uacute" unicode="&#xda;" horiz-adv-x="674" 
d="M334 -10q-123 0 -180 64t-57 173v381q0 35 -14 48t-49 13h-29v15h267v-15h-28q-35 0 -49.5 -13t-14.5 -48v-407q0 -88 47 -138t138 -50q84 0 132.5 57t48.5 140v333q0 74 -19.5 100t-77.5 26h-3v15h221v-15h-12q-50 0 -69 -26.5t-19 -99.5v-322q0 -109 -62 -170t-171 -61
zM325 727l-8 7l88 118q24 33 54 33q15 0 26 -10.5t11 -23.5q0 -28 -38 -50z" />
    <glyph glyph-name="Ucircumflex" unicode="&#xdb;" horiz-adv-x="674" 
d="M334 -10q-123 0 -180 64t-57 173v381q0 35 -14 48t-49 13h-29v15h267v-15h-28q-35 0 -49.5 -13t-14.5 -48v-407q0 -88 47 -138t138 -50q84 0 132.5 57t48.5 140v333q0 74 -19.5 100t-77.5 26h-3v15h221v-15h-12q-50 0 -69 -26.5t-19 -99.5v-322q0 -109 -62 -170t-171 -61
zM252 718l-7 4l89 143h51l89 -143l-6 -4l-109 76z" />
    <glyph glyph-name="Udieresis" unicode="&#xdc;" horiz-adv-x="674" 
d="M334 -10q-123 0 -180 64t-57 173v381q0 35 -14 48t-49 13h-29v15h267v-15h-28q-35 0 -49.5 -13t-14.5 -48v-407q0 -88 47 -138t138 -50q84 0 132.5 57t48.5 140v333q0 74 -19.5 100t-77.5 26h-3v15h221v-15h-12q-50 0 -69 -26.5t-19 -99.5v-322q0 -109 -62 -170t-171 -61
zM434 729q-22 0 -37.5 16t-15.5 37t15.5 37t37.5 16q21 0 37 -16t16 -37t-16 -37t-37 -16zM264 729q-20 0 -36.5 16t-16.5 37t16.5 37t36.5 16q22 0 37.5 -16t15.5 -37t-15.5 -37t-37.5 -16z" />
    <glyph glyph-name="Yacute" unicode="&#xdd;" horiz-adv-x="640" 
d="M182 0v15h38q34 0 48.5 16.5t14.5 53.5v194l-196 328q-20 33 -38 47.5t-48 14.5h-6v15h244v-15h-25q-45 0 -45 -30q0 -11 11 -30l178 -302l132 234q31 55 31 85q0 20 -15.5 31.5t-42.5 11.5h-16v15h198v-15q-13 -2 -24.5 -6t-19.5 -8t-17.5 -13.5t-15 -14.5t-14.5 -19
l-13 -20.5l-15 -25.5l-15 -26l-144 -246v-205q0 -37 14.5 -53.5t47.5 -16.5h38v-15h-285zM296 727l-8 7l88 118q24 33 54 33q15 0 26 -10.5t11 -23.5q0 -28 -38 -50z" />
    <glyph glyph-name="Thorn" unicode="&#xde;" horiz-adv-x="543" 
d="M10 0v15h29q35 0 49 12.5t14 47.5v534q0 35 -14 47.5t-49 12.5h-29v15h284v-15h-45q-36 0 -50 -12.5t-14 -47.5v-61h99q113 0 179 -46t66 -135q0 -94 -73 -143.5t-186 -49.5h-85v-99q0 -35 14 -47.5t50 -12.5h45v-15h-284zM185 190h88q42 0 73 11.5t47 28t25.5 41.5
t12 45.5t2.5 46.5q0 28 -2.5 49.5t-12 45.5t-25.5 39.5t-45 25.5t-69 10h-30q-36 0 -50 -12.5t-14 -47.5v-283z" />
    <glyph glyph-name="germandbls" unicode="&#xdf;" horiz-adv-x="525" 
d="M358 -11q-64 0 -99 27t-35 64q0 24 15 38.5t36 14.5q19 0 32 -13.5t13 -30.5q0 -25 -18 -39q-3 -3 -8.5 -6t-7.5 -5t-2 -7q0 -12 21 -21t55 -9q48 0 74.5 27t26.5 67q0 33 -20 56.5t-79 47.5q-69 28 -97.5 53.5t-28.5 66.5q0 30 8.5 52t35.5 69q13 22 18.5 34t11.5 35
t6 50q0 62 -20 94t-55 32q-82 0 -82 -170v-516h-134v14h8q33 0 43.5 12t10.5 50v327h-62v15h62v68q0 92 42.5 152t114.5 60q66 0 100.5 -36t34.5 -92q0 -21 -5 -40t-18 -39.5t-19.5 -29.5t-26 -32t-21.5 -25q-28 -33 -28 -54q0 -4 1.5 -8t4.5 -8t7 -7t11 -6.5l13.5 -6.5
t17.5 -7.5l20 -8l24 -9.5l28 -11q47 -19 73 -48t32 -52.5t6 -54.5q0 -60 -39.5 -97t-101.5 -37z" />
    <glyph glyph-name="agrave" unicode="&#xe0;" horiz-adv-x="431" 
d="M135 -11q-50 0 -81.5 25t-31.5 71q0 63 60.5 101.5t203.5 72.5v29q0 129 -98 129q-39 0 -69.5 -13.5t-30.5 -27.5q0 -4 5 -4q16 0 29 -13t13 -31q0 -19 -13 -32.5t-32 -13.5q-20 0 -32.5 13t-12.5 35q0 42 43 71.5t119 29.5q150 0 150 -147v-205q0 -55 26 -55q34 0 35 80
h14q-1 -66 -21 -89.5t-55 -23.5q-33 0 -53 22t-17 72h-2q-15 -40 -56.5 -68t-92.5 -28zM175 24q44 0 77.5 35.5t33.5 111.5v72q-105 -21 -143 -56t-38 -85q0 -35 18 -56.5t52 -21.5zM258 474l-133 74q-38 22 -38 50q0 13 11 23.5t26 10.5q30 0 54 -33l87 -118z" />
    <glyph glyph-name="aacute" unicode="&#xe1;" horiz-adv-x="431" 
d="M135 -11q-50 0 -81.5 25t-31.5 71q0 63 60.5 101.5t203.5 72.5v29q0 129 -98 129q-39 0 -69.5 -13.5t-30.5 -27.5q0 -4 5 -4q16 0 29 -13t13 -31q0 -19 -13 -32.5t-32 -13.5q-20 0 -32.5 13t-12.5 35q0 42 43 71.5t119 29.5q150 0 150 -147v-205q0 -55 26 -55q34 0 35 80
h14q-1 -66 -21 -89.5t-55 -23.5q-33 0 -53 22t-17 72h-2q-15 -40 -56.5 -68t-92.5 -28zM175 24q44 0 77.5 35.5t33.5 111.5v72q-105 -21 -143 -56t-38 -85q0 -35 18 -56.5t52 -21.5zM156 474l-8 7l88 118q24 33 54 33q15 0 26 -10.5t11 -23.5q0 -28 -38 -50z" />
    <glyph glyph-name="acircumflex" unicode="&#xe2;" horiz-adv-x="431" 
d="M135 -11q-50 0 -81.5 25t-31.5 71q0 63 60.5 101.5t203.5 72.5v29q0 129 -98 129q-39 0 -69.5 -13.5t-30.5 -27.5q0 -4 5 -4q16 0 29 -13t13 -31q0 -19 -13 -32.5t-32 -13.5q-20 0 -32.5 13t-12.5 35q0 42 43 71.5t119 29.5q150 0 150 -147v-205q0 -55 26 -55q34 0 35 80
h14q-1 -66 -21 -89.5t-55 -23.5q-33 0 -53 22t-17 72h-2q-15 -40 -56.5 -68t-92.5 -28zM175 24q44 0 77.5 35.5t33.5 111.5v72q-105 -21 -143 -56t-38 -85q0 -35 18 -56.5t52 -21.5zM101 468l-7 4l89 143h51l89 -143l-6 -4l-109 76z" />
    <glyph glyph-name="atilde" unicode="&#xe3;" horiz-adv-x="431" 
d="M135 -11q-50 0 -81.5 25t-31.5 71q0 63 60.5 101.5t203.5 72.5v29q0 129 -98 129q-39 0 -69.5 -13.5t-30.5 -27.5q0 -4 5 -4q16 0 29 -13t13 -31q0 -19 -13 -32.5t-32 -13.5q-20 0 -32.5 13t-12.5 35q0 42 43 71.5t119 29.5q150 0 150 -147v-205q0 -55 26 -55q34 0 35 80
h14q-1 -66 -21 -89.5t-55 -23.5q-33 0 -53 22t-17 72h-2q-15 -40 -56.5 -68t-92.5 -28zM175 24q44 0 77.5 35.5t33.5 111.5v72q-105 -21 -143 -56t-38 -85q0 -35 18 -56.5t52 -21.5zM91 471l-9 2q12 51 30.5 74t53.5 22q19 -1 63.5 -13t57.5 -12q15 -1 24 8t19 32l8 -2
q-12 -52 -30.5 -75.5t-52.5 -22.5q-20 1 -64 13.5t-57 12.5q-15 1 -24 -8t-19 -31z" />
    <glyph glyph-name="adieresis" unicode="&#xe4;" horiz-adv-x="431" 
d="M135 -11q-50 0 -81.5 25t-31.5 71q0 63 60.5 101.5t203.5 72.5v29q0 129 -98 129q-39 0 -69.5 -13.5t-30.5 -27.5q0 -4 5 -4q16 0 29 -13t13 -31q0 -19 -13 -32.5t-32 -13.5q-20 0 -32.5 13t-12.5 35q0 42 43 71.5t119 29.5q150 0 150 -147v-205q0 -55 26 -55q34 0 35 80
h14q-1 -66 -21 -89.5t-55 -23.5q-33 0 -53 22t-17 72h-2q-15 -40 -56.5 -68t-92.5 -28zM175 24q44 0 77.5 35.5t33.5 111.5v72q-105 -21 -143 -56t-38 -85q0 -35 18 -56.5t52 -21.5zM292 476q-22 0 -37.5 16t-15.5 37t15.5 37t37.5 16q21 0 37 -16t16 -37t-16 -37t-37 -16z
M122 476q-20 0 -36.5 16t-16.5 37t16.5 37t36.5 16q22 0 37.5 -16t15.5 -37t-15.5 -37t-37.5 -16z" />
    <glyph glyph-name="aring" unicode="&#xe5;" horiz-adv-x="431" 
d="M135 -11q-50 0 -81.5 25t-31.5 71q0 63 60.5 101.5t203.5 72.5v29q0 129 -98 129q-39 0 -69.5 -13.5t-30.5 -27.5q0 -4 5 -4q16 0 29 -13t13 -31q0 -19 -13 -32.5t-32 -13.5q-20 0 -32.5 13t-12.5 35q0 42 43 71.5t119 29.5q150 0 150 -147v-205q0 -55 26 -55q34 0 35 80
h14q-1 -66 -21 -89.5t-55 -23.5q-33 0 -53 22t-17 72h-2q-15 -40 -56.5 -68t-92.5 -28zM175 24q44 0 77.5 35.5t33.5 111.5v72q-105 -21 -143 -56t-38 -85q0 -35 18 -56.5t52 -21.5zM207 469q-35 0 -59.5 25t-24.5 60t24.5 60t59.5 25q36 0 60 -25t24 -60t-24.5 -60
t-59.5 -25zM207 486q28 0 43 19t15 49q0 31 -15 49.5t-43 18.5q-27 0 -42.5 -19t-15.5 -49q0 -29 16 -48.5t42 -19.5z" />
    <glyph glyph-name="ae" unicode="&#xe6;" horiz-adv-x="668" 
d="M135 -11q-50 0 -81.5 25t-31.5 71q0 63 60.5 101.5t203.5 72.5v29q0 129 -98 129q-39 0 -69.5 -13.5t-30.5 -27.5q0 -4 5 -4q16 0 29 -13t13 -31q0 -19 -13 -32.5t-32 -13.5q-20 0 -32.5 13t-12.5 35q0 42 43 71.5t119 29.5q95 0 130 -58q57 60 132 60q67 0 119.5 -50.5
t52.5 -140.5q0 -20 -2 -30h-282q2 -87 35 -141t95 -54q53 0 86.5 22.5t62.5 64.5l11 -8q-66 -111 -182 -111q-62 0 -107.5 32t-65.5 90h-1q-12 -51 -55 -84.5t-101 -33.5zM357 228h150q29 0 40 10t11 35q0 64 -23 104.5t-69 40.5q-51 0 -79 -50.5t-30 -139.5zM175 24
q37 0 74 36.5t37 110.5v72q-105 -21 -143 -56t-38 -85q0 -35 18 -56.5t52 -21.5z" />
    <glyph glyph-name="ccedilla" unicode="&#xe7;" horiz-adv-x="401" 
d="M220 -203q-61 0 -106 37l8 13q40 -29 84 -29q22 0 35.5 14t13.5 37t-11.5 37.5t-29.5 14.5q-10 0 -22 -3v68q-71 7 -121.5 68t-50.5 153t64 159t152 67q57 0 96 -33.5t39 -78.5q0 -28 -14.5 -41.5t-37.5 -13.5q-19 0 -32 15t-13 34q0 37 34 45q3 1 6 1h5.5h5h4t2.5 1t1 3
q0 16 -27.5 34t-70.5 18q-65 0 -96 -55t-31 -150q0 -85 36 -139t99 -54q76 0 130 72l10 -7q-27 -45 -72 -72t-101 -27h-2v-48q12 3 29 3q35 0 57 -18t22 -48q0 -38 -26 -57.5t-69 -19.5z" />
    <glyph glyph-name="egrave" unicode="&#xe8;" horiz-adv-x="417" 
d="M214 -15q-87 0 -138.5 60t-51.5 162q0 98 58 162t136 64q67 0 119.5 -50.5t52.5 -140.5q0 -20 -2 -30h-282q0 -86 34 -140.5t96 -54.5q53 0 86.5 22.5t62.5 64.5l11 -8q-66 -111 -182 -111zM106 228h150q29 0 40 10t11 35q0 64 -23 104.5t-69 40.5q-51 0 -79 -50.5
t-30 -139.5zM277 474l-133 74q-38 22 -38 50q0 13 11 23.5t26 10.5q30 0 54 -33l87 -118z" />
    <glyph glyph-name="eacute" unicode="&#xe9;" horiz-adv-x="417" 
d="M214 -15q-87 0 -138.5 60t-51.5 162q0 98 58 162t136 64q67 0 119.5 -50.5t52.5 -140.5q0 -20 -2 -30h-282q0 -86 34 -140.5t96 -54.5q53 0 86.5 22.5t62.5 64.5l11 -8q-66 -111 -182 -111zM106 228h150q29 0 40 10t11 35q0 64 -23 104.5t-69 40.5q-51 0 -79 -50.5
t-30 -139.5zM171 474l-8 7l88 118q24 33 54 33q15 0 26 -10.5t11 -23.5q0 -28 -38 -50z" />
    <glyph glyph-name="ecircumflex" unicode="&#xea;" horiz-adv-x="417" 
d="M214 -15q-87 0 -138.5 60t-51.5 162q0 98 58 162t136 64q67 0 119.5 -50.5t52.5 -140.5q0 -20 -2 -30h-282q0 -86 34 -140.5t96 -54.5q53 0 86.5 22.5t62.5 64.5l11 -8q-66 -111 -182 -111zM106 228h150q29 0 40 10t11 35q0 64 -23 104.5t-69 40.5q-51 0 -79 -50.5
t-30 -139.5zM110 468l-7 4l89 143h51l89 -143l-6 -4l-109 76z" />
    <glyph glyph-name="edieresis" unicode="&#xeb;" horiz-adv-x="417" 
d="M214 -15q-87 0 -138.5 60t-51.5 162q0 98 58 162t136 64q67 0 119.5 -50.5t52.5 -140.5q0 -20 -2 -30h-282q0 -86 34 -140.5t96 -54.5q53 0 86.5 22.5t62.5 64.5l11 -8q-66 -111 -182 -111zM106 228h150q29 0 40 10t11 35q0 64 -23 104.5t-69 40.5q-51 0 -79 -50.5
t-30 -139.5zM297 476q-22 0 -37.5 16t-15.5 37t15.5 37t37.5 16q21 0 37 -16t16 -37t-16 -37t-37 -16zM127 476q-20 0 -36.5 16t-16.5 37t16.5 37t36.5 16q22 0 37.5 -16t15.5 -37t-15.5 -37t-37.5 -16z" />
    <glyph glyph-name="igrave" unicode="&#xec;" horiz-adv-x="223" 
d="M15 0v14h8q33 0 43.5 11t10.5 45v278q0 35 -10.5 46t-43.5 11h-8v13l133 8v-356q0 -34 10.5 -45t43.5 -11h8v-14h-195zM147 474l-133 74q-38 22 -38 50q0 13 11 23.5t26 10.5q30 0 54 -33l87 -118z" />
    <glyph glyph-name="iacute" unicode="&#xed;" horiz-adv-x="223" 
d="M15 0v14h8q33 0 43.5 11t10.5 45v278q0 35 -10.5 46t-43.5 11h-8v13l133 8v-356q0 -34 10.5 -45t43.5 -11h8v-14h-195zM44 474l-8 7l88 118q24 33 54 33q15 0 26 -10.5t11 -23.5q0 -28 -38 -50z" />
    <glyph glyph-name="icircumflex" unicode="&#xee;" horiz-adv-x="223" 
d="M15 0v14h8q33 0 43.5 11t10.5 45v278q0 35 -10.5 46t-43.5 11h-8v13l133 8v-356q0 -34 10.5 -45t43.5 -11h8v-14h-195zM-6 468l-7 4l89 143h51l89 -143l-6 -4l-109 76z" />
    <glyph glyph-name="idieresis" unicode="&#xef;" horiz-adv-x="223" 
d="M15 0v14h8q33 0 43.5 11t10.5 45v278q0 35 -10.5 46t-43.5 11h-8v13l133 8v-356q0 -34 10.5 -45t43.5 -11h8v-14h-195zM187 476q-22 0 -37.5 16t-15.5 37t15.5 37t37.5 16q21 0 37 -16t16 -37t-16 -37t-37 -16zM17 476q-20 0 -36.5 16t-16.5 37t16.5 37t36.5 16
q22 0 37.5 -16t15.5 -37t-15.5 -37t-37.5 -16z" />
    <glyph glyph-name="eth" unicode="&#xf0;" horiz-adv-x="439" 
d="M220 -15q-73 0 -134.5 66.5t-61.5 158.5q0 94 61 158.5t135 64.5q71 0 105 -42q-11 104 -70 198l-25 -17l-52 -32l-26 -17l-7 12l102 65q-34 53 -79 89l9 11q57 -37 99 -81l97 62l7 -13q-93 -59 -93 -60q128 -141 128 -363q0 -120 -59 -190t-136 -70zM220 -1
q111 0 111 210q0 94 -27 152t-84 58t-84 -57t-27 -151q0 -95 26.5 -153.5t84.5 -58.5z" />
    <glyph glyph-name="ntilde" unicode="&#xf1;" horiz-adv-x="478" 
d="M13 0v14h7q33 0 43.5 11t10.5 45v279q0 34 -10.5 45.5t-43.5 11.5h-7v12l133 8l-5 -123h2q20 59 62.5 91.5t92.5 32.5q118 0 118 -149v-208q0 -34 10.5 -45t44.5 -11h2v-14h-193v14h10q34 0 44.5 11t10.5 45v233q0 92 -70 92q-54 0 -91 -47.5t-37 -114.5v-163
q0 -34 10.5 -45t43.5 -11h10v-14h-198zM133 471l-9 2q12 51 30.5 74t53.5 22q19 -1 63.5 -13t57.5 -12q15 -1 24 8t19 32l8 -2q-12 -52 -30.5 -75.5t-52.5 -22.5q-20 1 -64 13.5t-57 12.5q-15 1 -24 -8t-19 -31z" />
    <glyph glyph-name="ograve" unicode="&#xf2;" horiz-adv-x="439" 
d="M220 -15q-73 0 -134.5 66.5t-61.5 158.5q0 94 61 158.5t135 64.5t134.5 -63.5t60.5 -157.5q0 -92 -61 -159.5t-134 -67.5zM220 -1q111 0 111 210q0 94 -27 152t-84 58t-84 -57t-27 -151q0 -95 26.5 -153.5t84.5 -58.5zM267 474l-133 74q-38 22 -38 50q0 13 11 23.5
t26 10.5q30 0 54 -33l87 -118z" />
    <glyph glyph-name="oacute" unicode="&#xf3;" horiz-adv-x="439" 
d="M220 -15q-73 0 -134.5 66.5t-61.5 158.5q0 94 61 158.5t135 64.5t134.5 -63.5t60.5 -157.5q0 -92 -61 -159.5t-134 -67.5zM220 -1q111 0 111 210q0 94 -27 152t-84 58t-84 -57t-27 -151q0 -95 26.5 -153.5t84.5 -58.5zM176 474l-8 7l88 118q24 33 54 33q15 0 26 -10.5
t11 -23.5q0 -28 -38 -50z" />
    <glyph glyph-name="ocircumflex" unicode="&#xf4;" horiz-adv-x="439" 
d="M220 -15q-73 0 -134.5 66.5t-61.5 158.5q0 94 61 158.5t135 64.5t134.5 -63.5t60.5 -157.5q0 -92 -61 -159.5t-134 -67.5zM220 -1q111 0 111 210q0 94 -27 152t-84 58t-84 -57t-27 -151q0 -95 26.5 -153.5t84.5 -58.5zM109 468l-7 4l89 143h51l89 -143l-6 -4l-109 76z
" />
    <glyph glyph-name="otilde" unicode="&#xf5;" horiz-adv-x="439" 
d="M220 -15q-73 0 -134.5 66.5t-61.5 158.5q0 94 61 158.5t135 64.5t134.5 -63.5t60.5 -157.5q0 -92 -61 -159.5t-134 -67.5zM220 -1q111 0 111 210q0 94 -27 152t-84 58t-84 -57t-27 -151q0 -95 26.5 -153.5t84.5 -58.5zM101 471l-9 2q12 51 30.5 74t53.5 22
q19 -1 63.5 -13t57.5 -12q15 -1 24 8t19 32l8 -2q-12 -52 -30.5 -75.5t-52.5 -22.5q-20 1 -64 13.5t-57 12.5q-15 1 -24 -8t-19 -31z" />
    <glyph glyph-name="odieresis" unicode="&#xf6;" horiz-adv-x="439" 
d="M220 -15q-73 0 -134.5 66.5t-61.5 158.5q0 94 61 158.5t135 64.5t134.5 -63.5t60.5 -157.5q0 -92 -61 -159.5t-134 -67.5zM220 -1q111 0 111 210q0 94 -27 152t-84 58t-84 -57t-27 -151q0 -95 26.5 -153.5t84.5 -58.5zM303 476q-22 0 -37.5 16t-15.5 37t15.5 37t37.5 16
q21 0 37 -16t16 -37t-16 -37t-37 -16zM133 476q-20 0 -36.5 16t-16.5 37t16.5 37t36.5 16q22 0 37.5 -16t15.5 -37t-15.5 -37t-37.5 -16z" />
    <glyph glyph-name="divide" unicode="&#xf7;" horiz-adv-x="470" 
d="M236 447q-20 0 -35.5 15.5t-15.5 35.5t15.5 35.5t35.5 15.5t35.5 -15.5t15.5 -35.5t-15.5 -35.5t-35.5 -15.5zM42 325v21h385v-21h-385zM236 123q-20 0 -35.5 15.5t-15.5 35.5t15.5 36t35.5 16t35.5 -16t15.5 -36t-15.5 -35.5t-35.5 -15.5z" />
    <glyph glyph-name="oslash" unicode="&#xf8;" horiz-adv-x="459" 
d="M51 -30l47 69q-74 71 -74 171q0 94 61 158.5t135 64.5q62 0 115 -45l42 60h17l-48 -70q69 -66 69 -166q0 -92 -61 -159.5t-134 -67.5q-59 0 -112 44l-40 -59h-17zM126 80l183 269q-28 70 -89 70q-57 0 -84 -57t-27 -151q0 -79 17 -131zM220 -1q111 0 111 210
q0 73 -16 124l-183 -269q29 -65 88 -65z" />
    <glyph glyph-name="ugrave" unicode="&#xf9;" horiz-adv-x="472" 
d="M182 -10q-121 0 -121 142v216q0 34 -10.5 45.5t-43.5 11.5h-9v13l134 8v-312q0 -99 74 -99q46 0 85 54.5t39 117.5v160q0 35 -10.5 46.5t-43.5 11.5h-20v13l146 8v-350q0 -34 11 -46t44 -12h7v-13l-133 -15l5 124h-2q-20 -53 -61.5 -88.5t-90.5 -35.5zM267 474l-133 74
q-38 22 -38 50q0 13 11 23.5t26 10.5q30 0 54 -33l87 -118z" />
    <glyph glyph-name="uacute" unicode="&#xfa;" horiz-adv-x="472" 
d="M182 -10q-121 0 -121 142v216q0 34 -10.5 45.5t-43.5 11.5h-9v13l134 8v-312q0 -99 74 -99q46 0 85 54.5t39 117.5v160q0 35 -10.5 46.5t-43.5 11.5h-20v13l146 8v-350q0 -34 11 -46t44 -12h7v-13l-133 -15l5 124h-2q-20 -53 -61.5 -88.5t-90.5 -35.5zM194 474l-8 7
l88 118q24 33 54 33q15 0 26 -10.5t11 -23.5q0 -28 -38 -50z" />
    <glyph glyph-name="ucircumflex" unicode="&#xfb;" horiz-adv-x="472" 
d="M182 -10q-121 0 -121 142v216q0 34 -10.5 45.5t-43.5 11.5h-9v13l134 8v-312q0 -99 74 -99q46 0 85 54.5t39 117.5v160q0 35 -10.5 46.5t-43.5 11.5h-20v13l146 8v-350q0 -34 11 -46t44 -12h7v-13l-133 -15l5 124h-2q-20 -53 -61.5 -88.5t-90.5 -35.5zM112 468l-7 4
l89 143h51l89 -143l-6 -4l-109 76z" />
    <glyph glyph-name="udieresis" unicode="&#xfc;" horiz-adv-x="472" 
d="M182 -10q-121 0 -121 142v216q0 34 -10.5 45.5t-43.5 11.5h-9v13l134 8v-312q0 -99 74 -99q46 0 85 54.5t39 117.5v160q0 35 -10.5 46.5t-43.5 11.5h-20v13l146 8v-350q0 -34 11 -46t44 -12h7v-13l-133 -15l5 124h-2q-20 -53 -61.5 -88.5t-90.5 -35.5zM305 476
q-22 0 -37.5 16t-15.5 37t15.5 37t37.5 16q21 0 37 -16t16 -37t-16 -37t-37 -16zM135 476q-20 0 -36.5 16t-16.5 37t16.5 37t36.5 16q22 0 37.5 -16t15.5 -37t-15.5 -37t-37.5 -16z" />
    <glyph glyph-name="yacute" unicode="&#xfd;" horiz-adv-x="446" 
d="M87 -208q-40 0 -62 21.5t-22 53.5q0 23 14.5 38t36.5 15q17 0 29 -13t12 -29q0 -21 -14 -35q-11 -11 -11 -17q0 -17 26 -17q31 0 55.5 34.5t50.5 98.5l13 31l-150 364q-14 36 -29 51t-44 17v13h201v-13q-50 -4 -52 -30q-1 -18 12 -53l99 -262l90 236q19 49 19 70
q0 19 -13 28t-42 11v13h148v-13q-30 -2 -43.5 -17t-27.5 -51l-161 -394q-36 -87 -66.5 -119t-68.5 -32zM205 474l-8 7l88 118q24 33 54 33q15 0 26 -10.5t11 -23.5q0 -28 -38 -50z" />
    <glyph glyph-name="thorn" unicode="&#xfe;" horiz-adv-x="474" 
d="M1 -204v14h12q33 0 43.5 11t10.5 46v747q0 35 -10.5 46t-43.5 11h-7v13l130 16v-274l-3 -102h2q54 105 140 105q66 0 120.5 -62t54.5 -157t-55 -157.5t-124 -62.5q-89 0 -137 108h-1q4 -70 4 -125v-106q0 -35 10.5 -46t43.5 -11h23v-14h-213zM263 6q54 0 78.5 56
t24.5 146q0 89 -24 147t-77 58q-45 0 -87 -52.5t-42 -151.5q0 -79 37 -141t90 -62z" />
    <glyph glyph-name="ydieresis" unicode="&#xff;" horiz-adv-x="446" 
d="M87 -208q-40 0 -62 21.5t-22 53.5q0 23 14.5 38t36.5 15q17 0 29 -13t12 -29q0 -21 -14 -35q-11 -11 -11 -17q0 -17 26 -17q31 0 55.5 34.5t50.5 98.5l13 31l-150 364q-14 36 -29 51t-44 17v13h201v-13q-50 -4 -52 -30q-1 -18 12 -53l99 -262l90 236q19 49 19 70
q0 19 -13 28t-42 11v13h148v-13q-30 -2 -43.5 -17t-27.5 -51l-161 -394q-36 -87 -66.5 -119t-68.5 -32zM325 476q-22 0 -37.5 16t-15.5 37t15.5 37t37.5 16q21 0 37 -16t16 -37t-16 -37t-37 -16zM155 476q-20 0 -36.5 16t-16.5 37t16.5 37t36.5 16q22 0 37.5 -16t15.5 -37
t-15.5 -37t-37.5 -16z" />
    <glyph glyph-name="dotlessi" unicode="&#x131;" horiz-adv-x="223" 
d="M15 0v14h8q33 0 43.5 11t10.5 45v278q0 35 -10.5 46t-43.5 11h-8v13l133 8v-356q0 -34 10.5 -45t43.5 -11h8v-14h-195z" />
    <glyph glyph-name="Lslash" unicode="&#x141;" horiz-adv-x="545" 
d="M10 0v15h29q35 0 49 12.5t14 47.5v209l-76 -42v21l76 42v304q0 35 -14 47.5t-49 12.5h-29v15h284v-15h-45q-36 0 -50 -12.5t-14 -47.5v-269l185 102v-22l-185 -101v-244q0 -35 14 -47.5t50 -12.5h45q48 0 81.5 11.5t54.5 30t34 53t19 68.5t11 89h16l-17 -267h-483z" />
    <glyph glyph-name="lslash" unicode="&#x142;" horiz-adv-x="220" 
d="M17 0v14h4q34 0 44.5 12t10.5 48v206l-68 -38v18l68 38v313q0 36 -10.5 48t-44.5 12h-8v14l134 15v-373l68 38v-18l-68 -38v-235q0 -36 10.5 -48t43.5 -12h8v-14h-192z" />
    <glyph glyph-name="OE" unicode="&#x152;" horiz-adv-x="944" 
d="M875 0h-521q-137 0 -229 89.5t-92 254.5q0 155 92.5 247.5t226.5 92.5h512l10 -246h-13q-17 123 -58 177t-142 54h-63q-36 0 -50 -12.5t-14 -47.5v-246h51q69 0 97.5 38t29.5 106h13v-311h-13q-2 152 -127 152h-51v-273q0 -35 14 -47.5t50 -12.5h82q51 0 86 16.5t56.5 53
t33 76.5t23.5 106h13zM351 14h36q36 0 50 12.5t14 46.5v537q0 34 -14 46.5t-50 12.5h-35q-113 0 -169.5 -85.5t-56.5 -243.5q0 -156 56 -241t169 -85z" />
    <glyph glyph-name="oe" unicode="&#x153;" horiz-adv-x="725" 
d="M220 -15q-73 0 -134.5 66.5t-61.5 158.5q0 94 61 158.5t135 64.5q42 0 83 -23t70 -63q27 40 68 63t85 23q67 0 119.5 -50.5t52.5 -140.5q0 -20 -2 -30h-282q2 -87 35 -141t95 -54q53 0 86.5 22.5t62.5 64.5l11 -8q-66 -111 -182 -111q-103 0 -155 83q-29 -38 -68 -60.5
t-79 -22.5zM414 228h150q29 0 40 10t11 35q0 64 -23 104.5t-69 40.5q-51 0 -79 -50.5t-30 -139.5zM220 -1q111 0 111 210q0 94 -27 152t-84 58t-84 -57t-27 -151q0 -95 26.5 -153.5t84.5 -58.5z" />
    <glyph glyph-name="Scaron" unicode="&#x160;" horiz-adv-x="526" 
d="M312 -11q-39 0 -75 8.5t-50.5 15t-41.5 20.5q-34 18 -48 18q-25 0 -38 -61h-13l-7 271h15q13 -68 41.5 -119.5t65.5 -80t76 -42.5t79 -14q58 0 96 37t38 99q0 63 -46 97t-137 62q-105 33 -143 57q-79 51 -79 152q0 79 52.5 132t129.5 53q75 0 139 -45q25 -17 40 -17
q22 0 40 61h13l7 -269h-15q-27 131 -89 193t-133 62q-59 0 -95.5 -38.5t-36.5 -93.5q0 -57 35.5 -91.5t144.5 -65.5q116 -33 168 -78.5t52 -132.5q0 -85 -53 -137.5t-132 -52.5zM238 721l-89 143l7 4l108 -76l108 76l6 -4l-89 -143h-51z" />
    <glyph glyph-name="scaron" unicode="&#x161;" horiz-adv-x="394" 
d="M221 -10q-36 0 -82 17.5t-53 17.5q-24 0 -36 -34h-10v170h9q12 -71 63 -114t113 -43q44 0 72.5 23t28.5 58q0 33 -27 51t-105 40t-113.5 48.5t-35.5 86.5q0 53 36 85t94 32q32 0 67.5 -13t47.5 -13q26 0 36 25h10v-152h-9q-12 63 -53.5 101t-103.5 38q-35 0 -59 -21
t-24 -53q0 -33 27 -49.5t96 -34.5q86 -23 122 -52.5t36 -86.5q0 -59 -40.5 -93t-106.5 -34zM172 458l-89 143l7 4l108 -76l108 76l6 -4l-89 -143h-51z" />
    <glyph glyph-name="Ydieresis" unicode="&#x178;" horiz-adv-x="640" 
d="M182 0v15h38q34 0 48.5 16.5t14.5 53.5v194l-196 328q-20 33 -38 47.5t-48 14.5h-6v15h244v-15h-25q-45 0 -45 -30q0 -11 11 -30l178 -302l132 234q31 55 31 85q0 20 -15.5 31.5t-42.5 11.5h-16v15h198v-15q-13 -2 -24.5 -6t-19.5 -8t-17.5 -13.5t-15 -14.5t-14.5 -19
l-13 -20.5l-15 -25.5l-15 -26l-144 -246v-205q0 -37 14.5 -53.5t47.5 -16.5h38v-15h-285zM420 729q-22 0 -37.5 16t-15.5 37t15.5 37t37.5 16q21 0 37 -16t16 -37t-16 -37t-37 -16zM250 729q-20 0 -36.5 16t-16.5 37t16.5 37t36.5 16q22 0 37.5 -16t15.5 -37t-15.5 -37
t-37.5 -16z" />
    <glyph glyph-name="Zcaron" unicode="&#x17d;" horiz-adv-x="574" 
d="M21 0v15l424 654h-170q-105 0 -144.5 -53t-56.5 -178h-14l9 246h470v-15l-424 -654h214q43 0 75 12.5t51 31t33.5 55t22 68t16.5 86.5h14l-17 -268h-503zM265 711l-89 143l7 4l108 -76l108 76l6 -4l-89 -143h-51z" />
    <glyph glyph-name="zcaron" unicode="&#x17e;" horiz-adv-x="401" 
d="M17 0v10l274 395h-90q-68 0 -102 -35t-54 -117h-10l11 165h328v-8l-275 -397h114q74 0 107.5 39.5t48.5 121.5h10l-11 -174h-351zM174 458l-89 143l7 4l108 -76l108 76l6 -4l-89 -143h-51z" />
    <glyph glyph-name="florin" unicode="&#x192;" horiz-adv-x="388" 
d="M-2 -206q-28 0 -45.5 17.5t-17.5 41.5q0 19 11 31.5t28 12.5q18 0 28.5 -10.5t10.5 -26.5t-9.5 -27.5t-9.5 -14.5q0 -8 17 -8q31 0 44.5 46t21.5 147q13 153 20 256q3 54 12 123h-79l2 16h80q37 262 181 262q44 0 66 -25t22 -55q0 -20 -12.5 -33.5t-32.5 -13.5
q-19 0 -29 11t-10 27q0 26 26 37q17 8 17 12q0 5 -3.5 10.5t-15.5 11t-30 5.5q-41 0 -64.5 -56.5t-36.5 -192.5h107l-2 -16h-107q-3 -28 -11 -122q-10 -133 -27.5 -226t-41 -144.5t-50 -73.5t-60.5 -22z" />
    <glyph glyph-name="circumflex" unicode="&#x2c6;" 
d="M142 468l-7 4l89 143h51l89 -143l-6 -4l-109 76z" />
    <glyph glyph-name="caron" unicode="&#x2c7;" 
d="M225 458l-89 143l7 4l108 -76l108 76l6 -4l-89 -143h-51z" />
    <glyph glyph-name="breve" unicode="&#x2d8;" 
d="M250 460q-52 0 -80.5 39.5t-35.5 103.5l11 3q25 -79 105 -79q82 0 106 79l11 -3q-6 -63 -35.5 -103t-81.5 -40z" />
    <glyph glyph-name="dotaccent" unicode="&#x2d9;" 
d="M250 474q-22 0 -38.5 16t-16.5 39t16.5 39t38.5 16t38.5 -16t16.5 -39t-16.5 -39t-38.5 -16z" />
    <glyph glyph-name="ring" unicode="&#x2da;" 
d="M250 469q-35 0 -59.5 25t-24.5 60t24.5 60t59.5 25q36 0 60 -25t24 -60t-24.5 -60t-59.5 -25zM250 486q28 0 43 19t15 49q0 31 -15 49.5t-43 18.5q-27 0 -42.5 -19t-15.5 -49q0 -29 16 -48.5t42 -19.5z" />
    <glyph glyph-name="ogonek" unicode="&#x2db;" 
d="M218 -216q-33 0 -53 18t-20 51q0 65 99 147h20q-59 -64 -59 -125q0 -28 13.5 -43.5t38.5 -15.5q29 0 55 18l6 -9q-45 -41 -100 -41z" />
    <glyph glyph-name="tilde" unicode="&#x2dc;" 
d="M131 471l-9 2q12 51 30.5 74t53.5 22q19 -1 63.5 -13t57.5 -12q15 -1 24 8t19 32l8 -2q-12 -52 -30.5 -75.5t-52.5 -22.5q-20 1 -64 13.5t-57 12.5q-15 1 -24 -8t-19 -31z" />
    <glyph glyph-name="hungarumlaut" unicode="&#x2dd;" 
d="M254 455l-7 6l86 114q24 31 50 31q15 0 25.5 -9.5t10.5 -21.5q0 -26 -40 -49zM95 455l-8 6l87 114q24 31 50 31q15 0 25 -9.5t10 -21.5q0 -27 -39 -49z" />
    <glyph glyph-name="Delta" unicode="&#x394;" horiz-adv-x="484" 
d="M25 0v15h8q33 0 43.5 11.5t10.5 45.5v331h-62v15h62v49q0 105 49.5 168t142.5 63q62 0 96.5 -25t34.5 -57q0 -20 -13.5 -34t-31.5 -14q-19 0 -32 11t-13 31q0 21 15 34q9 7 9 12q0 12 -21.5 20t-47.5 8q-116 0 -116 -184v-82h117l143 9v-455q0 -73 -34 -124.5t-101 -52.5
q-44 -1 -71 20.5t-27 57.5q0 22 14.5 36.5t34.5 14.5q19 0 30.5 -12.5t11.5 -30.5t-16 -32q-17 -15 -17 -21q0 -10 12.5 -16t26.5 -5q19 1 31.5 8t22.5 37t10 85v408q0 35 -10.5 46.5t-43.5 11.5h-134v-331q0 -34 10.5 -45.5t43.5 -11.5h24v-15h-212z" />
    <glyph glyph-name="Delta" unicode="&#x2206;" horiz-adv-x="484" 
d="M25 0v15h8q33 0 43.5 11.5t10.5 45.5v331h-62v15h62v49q0 105 49.5 168t142.5 63q62 0 96.5 -25t34.5 -57q0 -20 -13.5 -34t-31.5 -14q-19 0 -32 11t-13 31q0 21 15 34q9 7 9 12q0 12 -21.5 20t-47.5 8q-116 0 -116 -184v-82h117l143 9v-455q0 -73 -34 -124.5t-101 -52.5
q-44 -1 -71 20.5t-27 57.5q0 22 14.5 36.5t34.5 14.5q19 0 30.5 -12.5t11.5 -30.5t-16 -32q-17 -15 -17 -21q0 -10 12.5 -16t26.5 -5q19 1 31.5 8t22.5 37t10 85v408q0 35 -10.5 46.5t-43.5 11.5h-134v-331q0 -34 10.5 -45.5t43.5 -11.5h24v-15h-212z" />
    <glyph glyph-name="Omega" unicode="&#x3a9;" horiz-adv-x="489" 
d="M41 314v20h407v-20h-407z" />
    <glyph glyph-name="Omega" unicode="&#x2126;" horiz-adv-x="489" 
d="M41 314v20h407v-20h-407z" />
    <glyph glyph-name="pi" unicode="&#x3c0;" horiz-adv-x="798" 
d="M399 -16q-151 0 -254.5 103.5t-103.5 254.5t103.5 254.5t254.5 103.5t254.5 -103t103.5 -255q0 -151 -103.5 -254.5t-254.5 -103.5zM399 -1q144 0 243 99.5t99 243.5t-99 243.5t-243 99.5t-243 -99.5t-99 -243.5t99 -243.5t243 -99.5zM248 144v14h18q20 0 28.5 7.5
t8.5 27.5v306q0 20 -8.5 27.5t-28.5 7.5h-18v14h175q67 0 111 -28t44 -80q0 -54 -48.5 -85.5t-114.5 -31.5h-50v-130q0 -20 8.5 -27.5t29.5 -7.5h26v-14h-181zM365 336h47q96 0 96 100q0 101 -93 101h-12q-21 0 -29.5 -7.5t-8.5 -27.5v-166z" />
    <glyph glyph-name="endash" unicode="&#x2013;" horiz-adv-x="422" 
d="M24 217v24h374v-24h-374z" />
    <glyph glyph-name="emdash" unicode="&#x2014;" horiz-adv-x="844" 
d="M24 217v24h796v-24h-796z" />
    <glyph glyph-name="quoteleft" unicode="&#x2018;" horiz-adv-x="230" 
d="M115 416q-27 0 -45 22t-18 64q0 97 110 190l10 -11q-51 -42 -75 -84t-24 -68q0 -13 4.5 -14.5t17 2.5t21.5 4q23 0 37.5 -16t14.5 -37q0 -23 -14.5 -37.5t-38.5 -14.5z" />
    <glyph glyph-name="quoteright" unicode="&#x2019;" horiz-adv-x="230" 
d="M68 415l-10 11q51 42 75 84t24 68q0 13 -4.5 14.5t-17 -2.5t-21.5 -4q-23 0 -37.5 16t-14.5 37q0 23 14.5 37.5t38.5 14.5q27 0 45 -22t18 -64q0 -97 -110 -190z" />
    <glyph glyph-name="quotesinglbase" unicode="&#x201a;" horiz-adv-x="230" 
d="M64 -166l-10 11q51 42 75 84t24 68q0 13 -4.5 14.5t-17 -2.5t-21.5 -4q-23 0 -37.5 16t-14.5 37q0 23 14.5 37.5t38.5 14.5q27 0 45 -22t18 -64q0 -97 -110 -190z" />
    <glyph glyph-name="quotedblleft" unicode="&#x201c;" horiz-adv-x="391" 
d="M276 414q-27 0 -45 22t-18 64q0 97 110 190l10 -11q-51 -42 -75 -84t-24 -68q0 -13 4.5 -14.5t17 2.5t21.5 4q23 0 37.5 -16t14.5 -37q0 -23 -14.5 -37.5t-38.5 -14.5zM115 414q-27 0 -45 22t-18 64q0 97 110 190l10 -11q-51 -42 -75 -84t-24 -68q0 -13 4.5 -14.5t17 2.5
t21.5 4q23 0 37.5 -16t14.5 -37q0 -23 -14.5 -37.5t-38.5 -14.5z" />
    <glyph glyph-name="quotedblright" unicode="&#x201d;" horiz-adv-x="391" 
d="M229 415l-10 11q51 42 75 84t24 68q0 13 -4.5 14.5t-17 -2.5t-21.5 -4q-23 0 -37.5 16t-14.5 37q0 23 14.5 37.5t38.5 14.5q27 0 45 -22t18 -64q0 -97 -110 -190zM68 415l-10 11q51 42 75 84t24 68q0 13 -4.5 14.5t-17 -2.5t-21.5 -4q-23 0 -37.5 16t-14.5 37
q0 23 14.5 37.5t38.5 14.5q27 0 45 -22t18 -64q0 -97 -110 -190z" />
    <glyph glyph-name="quotedblbase" unicode="&#x201e;" horiz-adv-x="391" 
d="M225 -166l-10 11q51 42 75 84t24 68q0 13 -4.5 14.5t-17 -2.5t-21.5 -4q-23 0 -37.5 16t-14.5 37q0 23 14.5 37.5t38.5 14.5q27 0 45 -22t18 -64q0 -97 -110 -190zM64 -166l-10 11q51 42 75 84t24 68q0 13 -4.5 14.5t-17 -2.5t-21.5 -4q-23 0 -37.5 16t-14.5 37
q0 23 14.5 37.5t38.5 14.5q27 0 45 -22t18 -64q0 -97 -110 -190z" />
    <glyph glyph-name="dagger" unicode="&#x2020;" horiz-adv-x="445" 
d="M216 -11q0 191 -42 343q42 57 43 152q-14 0 -26.5 -2.5t-16.5 -4t-16 -7.5l-12 -5q-37 -16 -49 -16q-20 0 -31.5 11t-11.5 30q0 18 12 29t31 11q15 0 49 -16q34 -17 71 -18q-1 65 -19 105q-15 35 -15 49q0 20 10.5 31.5t29.5 11.5t29.5 -11.5t10.5 -31.5q0 -14 -15 -49
q-18 -38 -19 -105q33 1 69 18q34 16 50 16q19 0 31 -11t12 -29q0 -19 -12 -30t-31 -11q-13 0 -50 16q-3 1 -12 5.5t-14.5 6.5t-17 4.5t-25.5 2.5q1 -96 43 -152q-42 -152 -42 -343h-14z" />
    <glyph glyph-name="daggerdbl" unicode="&#x2021;" horiz-adv-x="447" 
d="M223 -9q-17 0 -28.5 12t-11.5 31q0 10 15 49q19 50 20 105q-38 -1 -70 -18q-32 -16 -51 -16q-18 0 -30 11t-12 29t12 29.5t30 11.5q15 0 51 -16q39 -18 70 -19q-1 85 -40 142q39 56 40 142q-35 -1 -71 -19q-34 -16 -50 -16q-18 0 -30 11.5t-12 29.5t12 29t30 11
q20 0 50 -16q30 -17 71 -18q-1 65 -19 105q-15 35 -15 49q0 19 11.5 31t28.5 12t28.5 -12t11.5 -31q0 -10 -15 -49q-19 -48 -20 -105q38 1 70 18q32 16 51 16q18 0 30 -11t12 -29t-12 -29.5t-30 -11.5q-15 0 -51 16q-39 18 -70 19q1 -85 40 -142q-39 -56 -40 -142
q35 1 71 19q34 16 50 16q18 0 30 -11.5t12 -29.5t-12 -29t-30 -11q-20 0 -50 16q-30 17 -71 18q1 -65 19 -105q15 -35 15 -49q0 -19 -11.5 -31t-28.5 -12z" />
    <glyph glyph-name="bullet" unicode="&#x2022;" horiz-adv-x="440" 
d="M220 213q-57 0 -96 38.5t-39 96.5q0 57 39 96t96 39t96 -39t39 -96q0 -58 -39 -96.5t-96 -38.5z" />
    <glyph glyph-name="ellipsis" unicode="&#x2026;" horiz-adv-x="652" 
d="M546 -7q-24 0 -40.5 16.5t-16.5 40.5t16.5 40.5t40.5 16.5t40.5 -16.5t16.5 -40.5t-16.5 -40.5t-40.5 -16.5zM326 -7q-24 0 -40.5 16.5t-16.5 40.5t16.5 40.5t40.5 16.5t40.5 -16.5t16.5 -40.5t-16.5 -40.5t-40.5 -16.5zM106 -7q-24 0 -40.5 16.5t-16.5 40.5t16.5 40.5
t40.5 16.5t40.5 -16.5t16.5 -40.5t-16.5 -40.5t-40.5 -16.5z" />
    <glyph glyph-name="perthousand" unicode="&#x2030;" horiz-adv-x="969" 
d="M161 360q-47 0 -93 41.5t-46 106.5t46 106.5t93 41.5t93 -42t46 -106q0 -65 -46 -106.5t-93 -41.5zM127 -6l356 659h19l-356 -659h-19zM808 -8q-47 0 -93 41.5t-46 106.5t46 106.5t93 41.5t93 -42t46 -106q0 -65 -46 -106.5t-93 -41.5zM472 -8q-47 0 -93 41.5t-46 106.5
t46 106.5t93 41.5t93 -42t46 -106q0 -65 -46 -106.5t-93 -41.5zM161 370q70 0 70 138q0 136 -70 136t-70 -136q0 -138 70 -138zM808 2q70 0 70 138q0 136 -70 136t-70 -136q0 -138 70 -138zM472 2q70 0 70 138q0 136 -70 136t-70 -136q0 -138 70 -138z" />
    <glyph glyph-name="guilsinglleft" unicode="&#x2039;" horiz-adv-x="280" 
d="M225 0l-207 225l207 224h14l-123 -224l123 -225h-14z" />
    <glyph glyph-name="guilsinglright" unicode="&#x203a;" horiz-adv-x="280" 
d="M41 0l123 225l-123 224h14l207 -224l-207 -225h-14z" />
    <glyph glyph-name="fraction" unicode="&#x2044;" horiz-adv-x="257" 
d="M-39 -6l333 659h25l-335 -659h-23z" />
    <glyph glyph-name="fraction" unicode="&#x2215;" horiz-adv-x="257" 
d="M-39 -6l333 659h25l-335 -659h-23z" />
    <glyph glyph-name="Euro" unicode="&#x20ac;" horiz-adv-x="482" 
d="M282 -15q-35 0 -69.5 16t-65.5 48t-53.5 87t-28.5 126h-57v16h56q-2 30 -2 46q0 14 2 48v0h-1v0h-1h-1h-1h-1h-1h-1h-1h-1h-1h-1h-1h-2h-1h-1h-1h-1h-2h-1h-1h-2h-1h-2h-1h-2h-1h-2h-1h-2h-2h-1h-2h-2h-1h-2h-10v16h57q12 135 80 205t155 70q59 0 101 -35t42 -87
q0 -29 -15 -46t-38 -17q-21 0 -35 13.5t-14 36.5q0 19 11.5 33.5t31.5 16.5h8h7t5 1.5t2.5 4t-0.5 7.5q-7 22 -37 39.5t-72 17.5q-44 0 -77 -39t-49 -96.5t-19 -124.5h174v-16h-175q0 -4 -0.5 -21.5t-0.5 -26.5q0 -31 1 -46h175v-16h-174q2 -111 37.5 -185t102.5 -74
q50 0 84.5 39t48.5 98h17q-40 -155 -160 -155z" />
    <glyph glyph-name="trademark" unicode="&#x2122;" horiz-adv-x="786" 
d="M113 371v12h23q16 0 22.5 4.5t6.5 17.5v267q-51 0 -75 -26.5t-31 -88.5h-9l6 127h270l6 -127h-9q-7 61 -31.5 88t-75.5 27v-267q0 -22 30 -22h23v-12h-156zM534 367l-107 272v-208q0 -31 8.5 -39.5t36.5 -8.5h7v-12h-111v12h5q24 0 32.5 9t8.5 39v216q0 13 -6 17.5
t-21 4.5h-16v15h96l91 -243l88 243h93v-15h-16q-27 0 -27 -22v-242q0 -22 27 -22h16v-12h-143v12h19q16 0 22.5 4.5t6.5 17.5v234l-100 -272h-10z" />
    <glyph glyph-name="partialdiff" unicode="&#x2202;" horiz-adv-x="617" 
d="M10 0v15h29q34 0 48.5 14t14.5 47v532q0 35 -14 48t-49 13h-29v15h278q112 0 175.5 -44t63.5 -132q0 -75 -57.5 -123.5t-140.5 -58.5v-1q107 -25 166 -189q30 -83 43 -100q16 -21 47 -21h22v-15h-167l-36 122q-33 111 -72 156t-113 45h-34v-247q0 -32 15 -46.5t49 -14.5
h36v-15h-275zM185 338h80q88 0 128.5 41t40.5 128q0 81 -35.5 121.5t-137.5 40.5h-12q-36 0 -50 -12.5t-14 -47.5v-271z" />
    <glyph glyph-name="product" unicode="&#x220f;" horiz-adv-x="798" 
d="M399 -16q-151 0 -254.5 103.5t-103.5 254.5t103.5 254.5t254.5 103.5t254.5 -103t103.5 -255q0 -151 -103.5 -254.5t-254.5 -103.5zM399 -1q144 0 243 99.5t99 243.5t-99 243.5t-243 99.5t-243 -99.5t-99 -243.5t99 -243.5t243 -99.5zM222 149v14h16q15 0 26 10t11 25
v302q0 34 -37 34h-16v14h176q67 0 105.5 -25.5t38.5 -76.5q0 -75 -120 -96v-2q53 -21 81 -88q20 -50 29.5 -64.5t22.5 -14.5q22 0 21 55h14q3 -44 -13.5 -68t-48.5 -24q-67 0 -74 94q-5 65 -21.5 85t-56.5 20h-45v-145q0 -35 45 -35h17v-14h-171zM331 357h61q89 0 89 90
q0 44 -18 65.5t-75 21.5h-20q-21 0 -29 -6.5t-8 -26.5v-144z" />
    <glyph glyph-name="summation" unicode="&#x2211;" horiz-adv-x="825" 
d="M621 358q-81 0 -136.5 55.5t-55.5 135.5q0 59 37.5 101.5t87.5 42.5q32 0 54 -18.5t22 -43.5q0 -17 -12.5 -30.5t-30.5 -13.5q-19 0 -32 12t-13 29q0 21 11 32q9 9 7.5 15.5t-10.5 6.5q-32 0 -56.5 -29t-24.5 -77q0 -63 57 -118t122 -55q49 0 77.5 22.5t28.5 53.5
q0 9 -6.5 10.5t-15.5 -7.5q-11 -11 -32 -11q-17 0 -29 13t-12 32q0 18 13.5 30.5t30.5 12.5q25 0 43.5 -22t18.5 -54q0 -50 -42.5 -87.5t-101.5 -37.5zM204 358q-59 0 -101.5 37.5t-42.5 87.5q0 32 18.5 54t43.5 22q17 0 30.5 -12.5t13.5 -30.5q0 -19 -12 -32t-29 -13
q-21 0 -32 11q-9 9 -15.5 7.5t-6.5 -10.5q0 -31 28.5 -53.5t77.5 -22.5q65 0 122 55t57 118q0 48 -24.5 77t-56.5 29q-9 0 -10.5 -6.5t7.5 -15.5q11 -11 11 -32q0 -17 -13 -29t-32 -12q-18 0 -30.5 13.5t-12.5 30.5q0 25 22 43.5t54 18.5q50 0 87.5 -42.5t37.5 -101.5
q0 -80 -55.5 -135.5t-136.5 -55.5zM554 -9q-50 0 -87.5 42.5t-37.5 101.5q0 80 55.5 135.5t136.5 55.5q59 0 101.5 -37.5t42.5 -87.5q0 -32 -18.5 -54t-43.5 -22q-17 0 -30.5 12.5t-13.5 30.5q0 19 12 32t29 13q21 0 32 -11q9 -9 15.5 -7.5t6.5 10.5q0 31 -28.5 53.5
t-77.5 22.5q-65 0 -122 -55t-57 -118q0 -48 24.5 -77t56.5 -29q9 0 10.5 6.5t-7.5 15.5q-11 11 -11 32q0 17 13 29t32 12q18 0 30.5 -13.5t12.5 -30.5q0 -25 -22 -43.5t-54 -18.5zM271 -9q-32 0 -54 18.5t-22 43.5q0 17 12.5 30.5t30.5 13.5q19 0 32 -12t13 -29
q0 -21 -11 -32q-9 -9 -7.5 -15.5t10.5 -6.5q32 0 56.5 29t24.5 77q0 63 -57 118t-122 55q-49 0 -77.5 -22.5t-28.5 -53.5q0 -9 6.5 -10.5t15.5 7.5q11 11 32 11q17 0 29 -13t12 -32q0 -18 -13.5 -30.5t-30.5 -12.5q-25 0 -43.5 22t-18.5 54q0 50 42.5 87.5t101.5 37.5
q81 0 136.5 -55.5t55.5 -135.5q0 -59 -37.5 -101.5t-87.5 -42.5z" />
    <glyph glyph-name="minus" unicode="&#x2212;" horiz-adv-x="532" 
d="M45 325v21h442v-21h-442z" />
    <glyph glyph-name="radical" unicode="&#x221a;" horiz-adv-x="544" 
d="M236 -16l-118 221q-22 40 -42 55t-59 17v14h139l103 -208q16 145 41.5 265t54 194.5t57.5 115t54 40.5q16 0 27 -9t11 -24t-6 -25.5t-25 -30.5q-162 -181 -212 -610z" />
    <glyph glyph-name="infinity" unicode="&#x221e;" horiz-adv-x="753" 
d="M25 0v14h8q33 0 43.5 11.5t10.5 45.5v332h-62v15h62v59q0 99 51 160t141 61q98 0 123 -54q52 54 136 54q62 0 96.5 -25t34.5 -57q0 -20 -13.5 -34t-31.5 -14q-19 0 -32 11t-13 31q0 21 15 34q9 7 9 12q0 11 -19 19.5t-50 8.5q-116 0 -116 -184v-82h117l143 9v-356
q0 -33 15 -45t49 -12h18v-14h-216v14h8q33 0 43.5 11.5t10.5 45.5v275q0 35 -10.5 46t-43.5 11h-134v-332q0 -34 10.5 -45.5t43.5 -11.5h24v-14h-212v14h8q33 0 43.5 11.5t10.5 45.5v332h-187v-332q0 -34 10.5 -45.5t43.5 -11.5h24v-14h-212zM159 418h187v69q0 46 13 78
q-39 11 -39 45q0 19 15 34q7 7 7 13q0 11 -18.5 19t-48.5 8q-61 1 -88.5 -48.5t-27.5 -135.5v-82z" />
    <glyph glyph-name="integral" unicode="&#x222b;" horiz-adv-x="825" 
d="M621 358q-81 0 -136.5 55.5t-55.5 135.5q0 59 37.5 101.5t87.5 42.5q32 0 54 -18.5t22 -43.5q0 -17 -12.5 -30.5t-30.5 -13.5q-19 0 -32 12t-13 29q0 21 11 32q9 9 7.5 15.5t-10.5 6.5q-32 0 -56.5 -29t-24.5 -77q0 -63 57 -118t122 -55q49 0 77.5 22.5t28.5 53.5
q0 9 -6.5 10.5t-15.5 -7.5q-11 -11 -32 -11q-17 0 -29 13t-12 32q0 18 13.5 30.5t30.5 12.5q25 0 43.5 -22t18.5 -54q0 -50 -42.5 -87.5t-101.5 -37.5zM204 358q-59 0 -101.5 37.5t-42.5 87.5q0 32 18.5 54t43.5 22q17 0 30.5 -12.5t13.5 -30.5q0 -19 -12 -32t-29 -13
q-21 0 -32 11q-9 9 -15.5 7.5t-6.5 -10.5q0 -31 28.5 -53.5t77.5 -22.5q65 0 122 55t57 118q0 48 -24.5 77t-56.5 29q-9 0 -10.5 -6.5t7.5 -15.5q11 -11 11 -32q0 -17 -13 -29t-32 -12q-18 0 -30.5 13.5t-12.5 30.5q0 25 22 43.5t54 18.5q50 0 87.5 -42.5t37.5 -101.5
q0 -80 -55.5 -135.5t-136.5 -55.5zM554 -9q-50 0 -87.5 42.5t-37.5 101.5q0 80 55.5 135.5t136.5 55.5q59 0 101.5 -37.5t42.5 -87.5q0 -32 -18.5 -54t-43.5 -22q-17 0 -30.5 12.5t-13.5 30.5q0 19 12 32t29 13q21 0 32 -11q9 -9 15.5 -7.5t6.5 10.5q0 31 -28.5 53.5
t-77.5 22.5q-65 0 -122 -55t-57 -118q0 -48 24.5 -77t56.5 -29q9 0 10.5 6.5t-7.5 15.5q-11 11 -11 32q0 17 13 29t32 12q18 0 30.5 -13.5t12.5 -30.5q0 -25 -22 -43.5t-54 -18.5zM271 -9q-32 0 -54 18.5t-22 43.5q0 17 12.5 30.5t30.5 13.5q19 0 32 -12t13 -29
q0 -21 -11 -32q-9 -9 -7.5 -15.5t10.5 -6.5q32 0 56.5 29t24.5 77q0 63 -57 118t-122 55q-49 0 -77.5 -22.5t-28.5 -53.5q0 -9 6.5 -10.5t15.5 7.5q11 11 32 11q17 0 29 -13t12 -32q0 -18 -13.5 -30.5t-30.5 -12.5q-25 0 -43.5 22t-18.5 54q0 50 42.5 87.5t101.5 37.5
q81 0 136.5 -55.5t55.5 -135.5q0 -59 -37.5 -101.5t-87.5 -42.5z" />
    <glyph glyph-name="approxequal" unicode="&#x2248;" horiz-adv-x="532" 
d="M90 132l-15 15l176 176l-177 177l15 15l177 -177l177 177l15 -15l-177 -177l176 -176l-15 -15l-176 176z" />
    <glyph glyph-name="notequal" unicode="&#x2260;" horiz-adv-x="542" 
d="M25 0v14h8q33 0 43.5 11.5t10.5 45.5v332h-62v15h62v59q0 99 51 160t141 61q84 0 119 -49q42 49 111 49q44 0 68.5 -22t24.5 -55q0 -24 -14 -38t-35 -14q-20 0 -32 11.5t-12 31.5q0 21 16 37q11 11 11 17q0 8 -9.5 14t-23.5 6q-48 0 -66 -44t-18 -127v-97h102v-15h-102
v-332q0 -34 10.5 -45.5t43.5 -11.5h19v-14h-207v14h8q33 0 43.5 11.5t10.5 45.5v332h-188v-332q0 -34 10.5 -45.5t43.5 -11.5h24v-14h-212zM159 418h188v69q0 42 9 78q-16 4 -26 16t-10 29q0 19 15 34q7 7 7 13q0 11 -18.5 19t-48.5 8q-116 0 -116 -184v-82z" />
    <glyph glyph-name="lessequal" unicode="&#x2264;" horiz-adv-x="825" 
d="M621 358q-81 0 -136.5 55.5t-55.5 135.5q0 59 37.5 101.5t87.5 42.5q32 0 54 -18.5t22 -43.5q0 -17 -12.5 -30.5t-30.5 -13.5q-19 0 -32 12t-13 29q0 21 11 32q9 9 7.5 15.5t-10.5 6.5q-32 0 -56.5 -29t-24.5 -77q0 -63 57 -118t122 -55q49 0 77.5 22.5t28.5 53.5
q0 9 -6.5 10.5t-15.5 -7.5q-11 -11 -32 -11q-17 0 -29 13t-12 32q0 18 13.5 30.5t30.5 12.5q25 0 43.5 -22t18.5 -54q0 -50 -42.5 -87.5t-101.5 -37.5zM204 358q-59 0 -101.5 37.5t-42.5 87.5q0 32 18.5 54t43.5 22q17 0 30.5 -12.5t13.5 -30.5q0 -19 -12 -32t-29 -13
q-21 0 -32 11q-9 9 -15.5 7.5t-6.5 -10.5q0 -31 28.5 -53.5t77.5 -22.5q65 0 122 55t57 118q0 48 -24.5 77t-56.5 29q-9 0 -10.5 -6.5t7.5 -15.5q11 -11 11 -32q0 -17 -13 -29t-32 -12q-18 0 -30.5 13.5t-12.5 30.5q0 25 22 43.5t54 18.5q50 0 87.5 -42.5t37.5 -101.5
q0 -80 -55.5 -135.5t-136.5 -55.5zM554 -9q-50 0 -87.5 42.5t-37.5 101.5q0 80 55.5 135.5t136.5 55.5q59 0 101.5 -37.5t42.5 -87.5q0 -32 -18.5 -54t-43.5 -22q-17 0 -30.5 12.5t-13.5 30.5q0 19 12 32t29 13q21 0 32 -11q9 -9 15.5 -7.5t6.5 10.5q0 31 -28.5 53.5
t-77.5 22.5q-65 0 -122 -55t-57 -118q0 -48 24.5 -77t56.5 -29q9 0 10.5 6.5t-7.5 15.5q-11 11 -11 32q0 17 13 29t32 12q18 0 30.5 -13.5t12.5 -30.5q0 -25 -22 -43.5t-54 -18.5zM271 -9q-32 0 -54 18.5t-22 43.5q0 17 12.5 30.5t30.5 13.5q19 0 32 -12t13 -29
q0 -21 -11 -32q-9 -9 -7.5 -15.5t10.5 -6.5q32 0 56.5 29t24.5 77q0 63 -57 118t-122 55q-49 0 -77.5 -22.5t-28.5 -53.5q0 -9 6.5 -10.5t15.5 7.5q11 11 32 11q17 0 29 -13t12 -32q0 -18 -13.5 -30.5t-30.5 -12.5q-25 0 -43.5 22t-18.5 54q0 50 42.5 87.5t101.5 37.5
q81 0 136.5 -55.5t55.5 -135.5q0 -59 -37.5 -101.5t-87.5 -42.5z" />
    <glyph glyph-name="greaterequal" unicode="&#x2265;" horiz-adv-x="825" 
d="M621 358q-81 0 -136.5 55.5t-55.5 135.5q0 59 37.5 101.5t87.5 42.5q32 0 54 -18.5t22 -43.5q0 -17 -12.5 -30.5t-30.5 -13.5q-19 0 -32 12t-13 29q0 21 11 32q9 9 7.5 15.5t-10.5 6.5q-32 0 -56.5 -29t-24.5 -77q0 -63 57 -118t122 -55q49 0 77.5 22.5t28.5 53.5
q0 9 -6.5 10.5t-15.5 -7.5q-11 -11 -32 -11q-17 0 -29 13t-12 32q0 18 13.5 30.5t30.5 12.5q25 0 43.5 -22t18.5 -54q0 -50 -42.5 -87.5t-101.5 -37.5zM204 358q-59 0 -101.5 37.5t-42.5 87.5q0 32 18.5 54t43.5 22q17 0 30.5 -12.5t13.5 -30.5q0 -19 -12 -32t-29 -13
q-21 0 -32 11q-9 9 -15.5 7.5t-6.5 -10.5q0 -31 28.5 -53.5t77.5 -22.5q65 0 122 55t57 118q0 48 -24.5 77t-56.5 29q-9 0 -10.5 -6.5t7.5 -15.5q11 -11 11 -32q0 -17 -13 -29t-32 -12q-18 0 -30.5 13.5t-12.5 30.5q0 25 22 43.5t54 18.5q50 0 87.5 -42.5t37.5 -101.5
q0 -80 -55.5 -135.5t-136.5 -55.5zM554 -9q-50 0 -87.5 42.5t-37.5 101.5q0 80 55.5 135.5t136.5 55.5q59 0 101.5 -37.5t42.5 -87.5q0 -32 -18.5 -54t-43.5 -22q-17 0 -30.5 12.5t-13.5 30.5q0 19 12 32t29 13q21 0 32 -11q9 -9 15.5 -7.5t6.5 10.5q0 31 -28.5 53.5
t-77.5 22.5q-65 0 -122 -55t-57 -118q0 -48 24.5 -77t56.5 -29q9 0 10.5 6.5t-7.5 15.5q-11 11 -11 32q0 17 13 29t32 12q18 0 30.5 -13.5t12.5 -30.5q0 -25 -22 -43.5t-54 -18.5zM271 -9q-32 0 -54 18.5t-22 43.5q0 17 12.5 30.5t30.5 13.5q19 0 32 -12t13 -29
q0 -21 -11 -32q-9 -9 -7.5 -15.5t10.5 -6.5q32 0 56.5 29t24.5 77q0 63 -57 118t-122 55q-49 0 -77.5 -22.5t-28.5 -53.5q0 -9 6.5 -10.5t15.5 7.5q11 11 32 11q17 0 29 -13t12 -32q0 -18 -13.5 -30.5t-30.5 -12.5q-25 0 -43.5 22t-18.5 54q0 50 42.5 87.5t101.5 37.5
q81 0 136.5 -55.5t55.5 -135.5q0 -59 -37.5 -101.5t-87.5 -42.5z" />
    <glyph glyph-name="lozenge" unicode="&#x25ca;" horiz-adv-x="825" 
d="M621 358q-81 0 -136.5 55.5t-55.5 135.5q0 59 37.5 101.5t87.5 42.5q32 0 54 -18.5t22 -43.5q0 -17 -12.5 -30.5t-30.5 -13.5q-19 0 -32 12t-13 29q0 21 11 32q9 9 7.5 15.5t-10.5 6.5q-32 0 -56.5 -29t-24.5 -77q0 -63 57 -118t122 -55q49 0 77.5 22.5t28.5 53.5
q0 9 -6.5 10.5t-15.5 -7.5q-11 -11 -32 -11q-17 0 -29 13t-12 32q0 18 13.5 30.5t30.5 12.5q25 0 43.5 -22t18.5 -54q0 -50 -42.5 -87.5t-101.5 -37.5zM204 358q-59 0 -101.5 37.5t-42.5 87.5q0 32 18.5 54t43.5 22q17 0 30.5 -12.5t13.5 -30.5q0 -19 -12 -32t-29 -13
q-21 0 -32 11q-9 9 -15.5 7.5t-6.5 -10.5q0 -31 28.5 -53.5t77.5 -22.5q65 0 122 55t57 118q0 48 -24.5 77t-56.5 29q-9 0 -10.5 -6.5t7.5 -15.5q11 -11 11 -32q0 -17 -13 -29t-32 -12q-18 0 -30.5 13.5t-12.5 30.5q0 25 22 43.5t54 18.5q50 0 87.5 -42.5t37.5 -101.5
q0 -80 -55.5 -135.5t-136.5 -55.5zM554 -9q-50 0 -87.5 42.5t-37.5 101.5q0 80 55.5 135.5t136.5 55.5q59 0 101.5 -37.5t42.5 -87.5q0 -32 -18.5 -54t-43.5 -22q-17 0 -30.5 12.5t-13.5 30.5q0 19 12 32t29 13q21 0 32 -11q9 -9 15.5 -7.5t6.5 10.5q0 31 -28.5 53.5
t-77.5 22.5q-65 0 -122 -55t-57 -118q0 -48 24.5 -77t56.5 -29q9 0 10.5 6.5t-7.5 15.5q-11 11 -11 32q0 17 13 29t32 12q18 0 30.5 -13.5t12.5 -30.5q0 -25 -22 -43.5t-54 -18.5zM271 -9q-32 0 -54 18.5t-22 43.5q0 17 12.5 30.5t30.5 13.5q19 0 32 -12t13 -29
q0 -21 -11 -32q-9 -9 -7.5 -15.5t10.5 -6.5q32 0 56.5 29t24.5 77q0 63 -57 118t-122 55q-49 0 -77.5 -22.5t-28.5 -53.5q0 -9 6.5 -10.5t15.5 7.5q11 11 32 11q17 0 29 -13t12 -32q0 -18 -13.5 -30.5t-30.5 -12.5q-25 0 -43.5 22t-18.5 54q0 50 42.5 87.5t101.5 37.5
q81 0 136.5 -55.5t55.5 -135.5q0 -59 -37.5 -101.5t-87.5 -42.5z" />
    <glyph glyph-name="apple" unicode="&#xf8ff;" horiz-adv-x="825" 
d="M621 358q-81 0 -136.5 55.5t-55.5 135.5q0 59 37.5 101.5t87.5 42.5q32 0 54 -18.5t22 -43.5q0 -17 -12.5 -30.5t-30.5 -13.5q-19 0 -32 12t-13 29q0 21 11 32q9 9 7.5 15.5t-10.5 6.5q-32 0 -56.5 -29t-24.5 -77q0 -63 57 -118t122 -55q49 0 77.5 22.5t28.5 53.5
q0 9 -6.5 10.5t-15.5 -7.5q-11 -11 -32 -11q-17 0 -29 13t-12 32q0 18 13.5 30.5t30.5 12.5q25 0 43.5 -22t18.5 -54q0 -50 -42.5 -87.5t-101.5 -37.5zM204 358q-59 0 -101.5 37.5t-42.5 87.5q0 32 18.5 54t43.5 22q17 0 30.5 -12.5t13.5 -30.5q0 -19 -12 -32t-29 -13
q-21 0 -32 11q-9 9 -15.5 7.5t-6.5 -10.5q0 -31 28.5 -53.5t77.5 -22.5q65 0 122 55t57 118q0 48 -24.5 77t-56.5 29q-9 0 -10.5 -6.5t7.5 -15.5q11 -11 11 -32q0 -17 -13 -29t-32 -12q-18 0 -30.5 13.5t-12.5 30.5q0 25 22 43.5t54 18.5q50 0 87.5 -42.5t37.5 -101.5
q0 -80 -55.5 -135.5t-136.5 -55.5zM554 -9q-50 0 -87.5 42.5t-37.5 101.5q0 80 55.5 135.5t136.5 55.5q59 0 101.5 -37.5t42.5 -87.5q0 -32 -18.5 -54t-43.5 -22q-17 0 -30.5 12.5t-13.5 30.5q0 19 12 32t29 13q21 0 32 -11q9 -9 15.5 -7.5t6.5 10.5q0 31 -28.5 53.5
t-77.5 22.5q-65 0 -122 -55t-57 -118q0 -48 24.5 -77t56.5 -29q9 0 10.5 6.5t-7.5 15.5q-11 11 -11 32q0 17 13 29t32 12q18 0 30.5 -13.5t12.5 -30.5q0 -25 -22 -43.5t-54 -18.5zM271 -9q-32 0 -54 18.5t-22 43.5q0 17 12.5 30.5t30.5 13.5q19 0 32 -12t13 -29
q0 -21 -11 -32q-9 -9 -7.5 -15.5t10.5 -6.5q32 0 56.5 29t24.5 77q0 63 -57 118t-122 55q-49 0 -77.5 -22.5t-28.5 -53.5q0 -9 6.5 -10.5t15.5 7.5q11 11 32 11q17 0 29 -13t12 -32q0 -18 -13.5 -30.5t-30.5 -12.5q-25 0 -43.5 22t-18.5 54q0 50 42.5 87.5t101.5 37.5
q81 0 136.5 -55.5t55.5 -135.5q0 -59 -37.5 -101.5t-87.5 -42.5z" />
    <glyph glyph-name="NUL" horiz-adv-x="0" 
 />
    <glyph glyph-name="R.alt" horiz-adv-x="617" 
d="M10 0v15h29q34 0 48.5 14t14.5 47v532q0 35 -14 48t-49 13h-29v15h278q112 0 175.5 -44t63.5 -132q0 -75 -57.5 -123.5t-140.5 -58.5v-1q107 -25 166 -189q30 -83 43 -100q16 -21 47 -21h22v-15h-167l-36 122q-33 111 -72 156t-113 45h-34v-247q0 -32 15 -46.5t49 -14.5
h36v-15h-275zM185 338h80q88 0 128.5 41t40.5 128q0 81 -35.5 121.5t-137.5 40.5h-12q-36 0 -50 -12.5t-14 -47.5v-271z" />
    </font>
</defs>
</svg>
