<?xml version="1.0" standalone="no"?>
<!DOCTYPE svg PUBLIC "-//W3C//DTD SVG 1.1//EN" "http://www.w3.org/Graphics/SVG/1.1/DTD/svg11.dtd" >
<svg>
<metadata>
Created by FontForge 20090622 at Sat Oct 14 14:01:09 2017
 By deploy user
[c] Copyright 2006, The Font Bureau, Inc. All Rights Reserved.
</metadata>
<defs>
<font id="BentonModDisp-RegularItalic" horiz-adv-x="500" >
  <font-face 
    font-family="BentonModDisp RG I"
    font-weight="400"
    font-style="italic"
    font-stretch="normal"
    units-per-em="1000"
    panose-1="2 0 6 6 9 0 0 9 0 4"
    ascent="780"
    descent="-220"
    x-height="425"
    cap-height="684"
    bbox="-189 -207 957 900"
    underline-thickness="20"
    underline-position="-113"
    slope="-12"
    unicode-range="U+0020-U+FB02"
  />
<missing-glyph 
 />
    <glyph glyph-name="fi" unicode="fi" horiz-adv-x="456" 
d="M-111 -207q-29 0 -43 13.5t-14 33.5t12.5 33.5t29.5 13.5q19 0 29.5 -10.5t10.5 -27.5q0 -6 -1.5 -12t-3 -10.5t-2.5 -8t0.5 -5.5t6.5 -2q12 0 30 42t31 99l106 451h-62l4 15h62l3 14q27 128 89 197t152 69q36 0 55 -15.5t19 -40.5q0 -21 -13 -36t-34 -15q-17 0 -28 11
t-11 28q0 16 9 29.5t9 16.5q0 8 -17 8q-92 0 -144 -210l-14 -56h78l132 8q0 -51 -24 -128l-53 -171q-13 -39 -13 -65q0 -29 21 -29q33 0 91 97l11 -8q-65 -128 -134 -128q-29 0 -45 17t-16 46q0 27 14 72l66 217q7 24 7 33q0 24 -44 24h-94l-55 -222q-52 -211 -101 -299.5
t-112 -88.5z" />
    <glyph glyph-name="fl" unicode="fl" horiz-adv-x="465" 
d="M160 418h143l50 173q-12 1 -22.5 10.5t-10.5 25.5q0 10 6 22t6 13q1 4 0.5 7.5t-6.5 7.5t-18 4q-82 0 -134 -207zM-25 -48l106 451h-62l4 15h62l3 14q8 36 23 75t41.5 85.5t69 76t93.5 29.5q45 0 68 -23l73 25l-161 -566q-16 -55 -16 -72q0 -29 22 -29q33 0 91 97l11 -8
q-65 -128 -134 -128q-29 0 -45 17t-16 46q0 25 12 69l79 277h-142l-55 -222q-52 -211 -101 -299.5t-112 -88.5q-29 0 -43 13.5t-14 33.5t13 33.5t30 13.5q18 0 28.5 -10.5t10.5 -27.5q0 -6 -1.5 -12t-3 -10.5t-2.5 -8t0.5 -5.5t6.5 -2q12 0 30 42t31 99z" />
    <glyph glyph-name="f_f_l" unicode="ffl" horiz-adv-x="678" 
d="M-111 -207q-29 0 -43 13.5t-14 33.5t12.5 33.5t29.5 13.5q19 0 29.5 -10.5t10.5 -27.5q0 -6 -1.5 -12t-3 -10.5t-2.5 -8t0.5 -5.5t6.5 -2q12 0 30 42t31 99l108 451h-64l4 15h64l3 14q27 126 86 193.5t140 67.5q35 0 59.5 -16t24.5 -42q0 -9 -3 -18q62 81 146 81
q45 0 68 -23l73 25l-161 -566q-16 -55 -16 -72q0 -29 22 -29q33 0 91 97l11 -8q-65 -128 -134 -128q-29 0 -45 17t-16 46q0 25 12 69l79 277h-142l-49 -197q-52 -211 -101 -299.5t-112 -88.5q-29 0 -43 13.5t-14 33.5t12.5 33.5t29.5 13.5q19 0 29.5 -10.5t10.5 -27.5
q0 -6 -1.5 -12t-3 -10.5t-2.5 -8t0.5 -5.5t6.5 -2q12 0 30 42t31 99l102 426h-154l-55 -222q-52 -211 -101 -299.5t-112 -88.5zM388 418h143l50 173q-12 1 -22.5 10.5t-10.5 25.5q0 10 6 22t6 13q1 4 0.5 7.5t-6.5 7.5t-18 4q-82 0 -134 -207zM160 418h155l3 14
q20 94 63 161q-12 -7 -25 -7q-12 0 -23.5 9.5t-11.5 26.5q0 10 6 22t6 13q1 4 0.5 7.5t-6.5 7.5t-18 4q-84 0 -135 -202z" />
    <glyph glyph-name="f_f_i" unicode="ffi" horiz-adv-x="684" 
d="M-111 -207q-29 0 -43 13.5t-14 33.5t12.5 33.5t29.5 13.5q19 0 29.5 -10.5t10.5 -27.5q0 -6 -1.5 -12t-3 -10.5t-2.5 -8t0.5 -5.5t6.5 -2q12 0 30 42t31 99l108 451h-64l4 15h64l3 14q27 126 86 193.5t140 67.5q35 0 59.5 -16t24.5 -42q0 -12 -4 -22q64 85 161 85
q36 0 55 -15.5t19 -40.5q0 -21 -13 -36t-34 -15q-17 0 -28 11t-11 28q0 16 9 29.5t9 16.5q0 8 -17 8q-91 0 -144 -210l-14 -56h78l132 8q0 -51 -24 -128l-53 -171q-13 -39 -13 -65q0 -29 21 -29q33 0 91 97l11 -8q-65 -128 -134 -128q-29 0 -45 17t-16 46q0 27 14 72l66 217
q7 24 7 33q0 24 -44 24h-94l-49 -197q-52 -211 -101 -299.5t-112 -88.5q-29 0 -43 13.5t-14 33.5t12.5 33.5t29.5 13.5q19 0 29.5 -10.5t10.5 -27.5q0 -6 -1.5 -12t-3 -10.5t-2.5 -8t0.5 -5.5t6.5 -2q12 0 30 42t31 99l102 426h-154l-55 -222q-52 -211 -101 -299.5
t-112 -88.5zM160 418h155l5 20q24 97 64 158q-12 -10 -28 -10q-12 0 -23.5 9.5t-11.5 26.5q0 10 6 22t6 13q1 4 0.5 7.5t-6.5 7.5t-18 4q-83 0 -135 -202z" />
    <glyph glyph-name="f_f" unicode="ff" horiz-adv-x="486" 
d="M-111 -207q-29 0 -43 13.5t-14 33.5t12.5 33.5t29.5 13.5q19 0 29.5 -10.5t10.5 -27.5q0 -6 -1.5 -12t-3 -10.5t-2.5 -8t0.5 -5.5t6.5 -2q12 0 30 42t31 99l108 451h-64l4 15h64l3 14q27 126 86 193.5t140 67.5q30 0 52 -11.5t29 -30.5q3 -7 3 -16q50 62 119 62
q31 0 49 -15t18 -39q0 -21 -13 -37t-34 -16q-17 0 -28 11t-11 28q0 16 9 29.5t9 16.5q0 8 -12 8q-28 0 -50 -39.5t-44 -127.5l-24 -98h101l-4 -15h-100l-49 -197q-52 -211 -101 -299.5t-112 -88.5q-29 0 -43 13.5t-14 33.5t12.5 33.5t29.5 13.5q19 0 29.5 -10.5t10.5 -27.5
q0 -6 -1.5 -12t-3 -10.5t-2.5 -8t0.5 -5.5t6.5 -2q12 0 30 42t31 99l102 426h-154l-55 -222q-52 -211 -101 -299.5t-112 -88.5zM160 418h155l14 58q19 75 39 111q-2 0 -6 -0.5t-6 -0.5q-12 0 -23.5 9.5t-11.5 26.5q0 10 6 22t6 13q1 4 0.5 7.5t-6.5 7.5t-18 4
q-84 0 -135 -202z" />
    <glyph glyph-name="f_j" unicode="fj" horiz-adv-x="420" 
d="M197 -13l93 359q7 24 7 33q0 24 -44 24h-96l-55 -222q-52 -208 -101 -297.5t-107 -89.5q-27 0 -40.5 12.5t-13.5 30.5t11.5 30t25.5 12q36 0 36 -34q0 -7 -3 -17t-2.5 -14t6.5 -4q12 0 30 42.5t31 99.5l106 451h-62l4 15h62l1 4q32 126 92.5 201t138.5 75q35 0 59.5 -16
t24.5 -42q0 -21 -12 -35t-32 -14q-12 0 -23.5 9.5t-11.5 26.5q0 10 6 22t6 13q1 4 0.5 7.5t-6.5 7.5t-18 4q-80 0 -134 -207l-15 -56h79l132 8q0 -46 -24 -128l-24 -82q-63 -216 -107.5 -301.5t-100.5 -85.5q-27 0 -40.5 12.5t-13.5 30.5t11.5 30t25.5 12q36 0 36 -34
q0 -7 -3 -17t-2.5 -14t6.5 -4q11 0 28.5 41.5t32.5 100.5z" />
    <glyph glyph-name=".notdef" 
 />
    <glyph glyph-name=".null" horiz-adv-x="0" 
 />
    <glyph glyph-name="nonmarkingreturn" horiz-adv-x="333" 
 />
    <glyph glyph-name="space" unicode=" " horiz-adv-x="186" 
 />
    <glyph glyph-name="exclam" unicode="!" horiz-adv-x="243" 
d="M72 197q51 203 56 339q2 62 9 94q17 67 66 67q42 0 42 -50q0 -32 -37 -106q-74 -148 -123 -344h-13zM49 -9q-23 0 -38 15.5t-15 37.5t15 37.5t38 15.5q22 0 37 -15.5t15 -37.5t-15 -37.5t-37 -15.5z" />
    <glyph glyph-name="quotedbl" unicode="&#x22;" horiz-adv-x="391" 
d="M283 410l17 195q7 79 54 79q31 0 38 -25t-8 -55l-86 -194h-15zM118 410l18 195q7 79 53 79q32 0 39 -25.5t-8 -54.5l-87 -194h-15z" />
    <glyph glyph-name="numbersign" unicode="#" horiz-adv-x="496" 
d="M41 -7l54 177h-113l23 74h113l48 157h-121l22 74h122l54 177h20l-54 -177h168l54 177h19l-54 -177h108l-22 -74h-109l-48 -157h117l-23 -74h-117l-54 -177h-19l54 177h-168l-54 -177h-20zM138 244h168l48 157h-168z" />
    <glyph glyph-name="dollar" unicode="$" horiz-adv-x="443" 
d="M92 -135l33 134q-61 6 -99.5 39t-37.5 78q1 35 20 57t46 22q20 0 32.5 -13t12.5 -32q-1 -27 -19.5 -40.5t-45.5 -11.5q-1 0 -4.5 0.5t-6 0t-5.5 -1.5t-4.5 -3.5t-0.5 -7.5q3 -23 36 -44t80 -27l4 15l10 40.5l13.5 54l14.5 59l13 54t10 39.5l4 15q-3 2 -9 6.5t-9 6.5
q-100 73 -98 161q0 24 6 51q14 61 72 99t128 33l18 72h16l-18 -73q61 -7 94 -35t32 -69q-1 -35 -17.5 -53t-40.5 -18q-20 0 -33 13.5t-12 31.5q2 46 55 51q20 2 13 19q-13 37 -95 44l-65 -260l12 -9q63 -44 94 -84t32 -99q1 -83 -60.5 -132.5t-157.5 -50.5h-14l-33 -132h-16
zM220 381l64 252h-10q-51 0 -84 -26t-42 -70q-3 -14 -3 -38q0 -62 75 -118zM145 14h10q66 0 107 31t50 78q9 50 -18 86.5t-81 73.5l-17 -67l-34 -134z" />
    <glyph glyph-name="percent" unicode="%" horiz-adv-x="557" 
d="M141 360q-40 3 -65.5 34.5t-25.5 79.5q0 26 7 51q17 63 64 99t95 32q42 -4 67 -35.5t24 -79.5q0 -25 -7 -50q-17 -64 -63.5 -99.5t-95.5 -31.5zM-2 -6l527 659h19l-527 -659h-19zM334 -8q-40 3 -65.5 34t-25.5 79q0 27 7 52q17 63 64 99t95 32q42 -4 67 -35.5t24 -80.5
q0 -25 -7 -49q-17 -64 -63.5 -99.5t-95.5 -31.5zM155 371q53 3 84 131q12 56 10 88q-1 30 -13.5 43.5t-32.5 12.5q-48 -3 -79 -114q-17 -60 -15 -104q1 -29 13.5 -43.5t32.5 -13.5zM348 3q51 3 81 121q15 55 13 98q-1 30 -13.5 43.5t-32.5 12.5q-51 -3 -81 -122
q-15 -55 -13 -96q1 -29 13.5 -43.5t32.5 -13.5z" />
    <glyph glyph-name="ampersand" unicode="&#x26;" horiz-adv-x="602" 
d="M153 -10q-77 0 -115 43.5t-38 104.5q0 94 51.5 153t148.5 106v33q2 126 55.5 195t120.5 69q47 0 71 -25t24 -67q-1 -52 -44 -91.5t-157 -93.5q16 -177 68 -294q43 54 74.5 116.5t33.5 106.5q1 22 -20.5 31.5t-61.5 10.5l4 14h218l-3 -14q-47 -2 -75.5 -21t-46.5 -61
q-54 -128 -115 -199q37 -69 79 -69q70 0 95 114h12q-31 -160 -138 -160q-56 0 -100 64q-73 -66 -141 -66zM269 431q79 40 112.5 83t35.5 96q1 33 -10 51.5t-32 18.5q-53 0 -80 -57.5t-28 -140.5q0 -32 2 -51zM172 23q58 0 113 47q-35 57 -56.5 142.5t-27.5 168.5
q-127 -79 -127 -229q0 -57 24.5 -93t73.5 -36z" />
    <glyph glyph-name="quotesingle" unicode="'" horiz-adv-x="225" 
d="M117 410l19 195q7 79 53 79q32 0 39 -25.5t-8 -54.5l-86 -194h-17z" />
    <glyph glyph-name="parenleft" unicode="(" horiz-adv-x="300" 
d="M136 -143q-138 125 -134 319q4 161 97.5 298.5t246.5 222.5l-4 -22q-120 -90 -190.5 -241t-73.5 -316q-3 -156 66 -243z" />
    <glyph glyph-name="parenright" unicode=")" horiz-adv-x="300" 
d="M-78 -143l4 22q120 90 190.5 241t73.5 317q3 158 -65 242l6 18q65 -57 100.5 -139.5t34.5 -178.5q-3 -160 -96.5 -298t-247.5 -224z" />
    <glyph glyph-name="asterisk" unicode="*" horiz-adv-x="459" 
d="M341 337q-10 -4 -20 4.5t-17 27.5q-3 8 -9.5 52.5t-19.5 78.5q-26 -24 -52.5 -59.5t-34.5 -42.5q-32 -27 -47 -12q-17 17 16 47q6 6 45 28t67 47q-32 19 -74 33.5t-50 19.5q-38 22 -25 42q13 19 49 -2q8 -5 40.5 -35t64.5 -49q9 36 11 81t4 52q4 20 13 29.5t20 7.5
q23 -5 12 -48q-2 -9 -21.5 -48.5t-28.5 -75.5q39 1 83.5 12t50.5 11q19 1 31 -4.5t13 -15.5q2 -23 -41 -26q-10 -1 -54.5 6.5t-81.5 5.5q13 -37 37 -76t26 -43q16 -38 -7 -48z" />
    <glyph glyph-name="plus" unicode="+" horiz-adv-x="470" 
d="M224 116v199h-183v21h183v199h20v-199h182v-21h-182v-199h-20z" />
    <glyph glyph-name="comma" unicode="," horiz-adv-x="225" 
d="M-41 -138l-7 10q91 59 109 119q3 8 0 9.5t-12 -0.5t-13 -2q-20 0 -33.5 12.5t-13.5 32.5q0 19 13.5 32.5t33.5 13.5q21 0 35 -14.5t14 -44.5q0 -44 -29.5 -83t-96.5 -85z" />
    <glyph glyph-name="hyphen" unicode="-" horiz-adv-x="277" 
d="M-11 200l14 57h229l-14 -57h-229z" />
    <glyph glyph-name="hyphen" unicode="&#xad;" horiz-adv-x="277" 
d="M-11 200l14 57h229l-14 -57h-229z" />
    <glyph glyph-name="period" unicode="." horiz-adv-x="225" 
d="M37 -8q-20 0 -34 14t-14 34t14 34t34 14t34 -14t14 -34t-14 -34t-34 -14z" />
    <glyph glyph-name="slash" unicode="/" horiz-adv-x="346" 
d="M-117 -85l498 774h20l-499 -774h-19z" />
    <glyph glyph-name="zero" unicode="0" horiz-adv-x="476" 
d="M164 -16q-74 0 -117 60t-43 162q0 73 23 153q36 126 111 215t164 89q64 0 112.5 -54.5t48.5 -167.5q0 -51 -13 -113q-31 -137 -113.5 -240.5t-172.5 -103.5zM159 -1q64 0 115.5 86.5t83.5 212.5q32 122 32 210q0 140 -83 140q-60 0 -110 -79.5t-82 -197.5
q-38 -134 -38 -230q0 -142 82 -142z" />
    <glyph glyph-name="one" unicode="1" horiz-adv-x="314" 
d="M-51 0l4 15h31q35 0 52 13.5t24 42.5l110 440q14 58 -45 58h-34l3 15q73 5 112 25t67 58h12l-148 -595q-13 -57 46 -57h29l-3 -15h-260z" />
    <glyph glyph-name="two" unicode="2" horiz-adv-x="416" 
d="M-69 0l5 19q49 91 99.5 151t148.5 135q82 63 115 114t33 111t-26.5 87.5t-64.5 27.5q-58 0 -103.5 -38t-45.5 -85q0 -7 1.5 -9t5.5 -1.5t8 2.5t10.5 4t12.5 2q17 0 30.5 -12.5t13.5 -32.5q0 -23 -15 -37t-39 -14q-22 0 -36.5 17.5t-15.5 46.5q-2 79 54 126t128 47
q79 0 124 -40t43 -104q-3 -70 -48.5 -119.5t-162.5 -120.5q-82 -50 -132.5 -96t-88.5 -108h212q52 0 83 31t52 96h10l-59 -200h-352z" />
    <glyph glyph-name="three" unicode="3" horiz-adv-x="409" 
d="M116 -14q-67 0 -106 35.5t-39 86.5q0 41 21.5 67t48.5 26q22 0 35 -14.5t13 -36.5q0 -21 -14.5 -35t-38.5 -14q-11 0 -23 5.5t-17 5t-6 -11.5q-2 -37 31.5 -68t93.5 -31q65 0 106 53.5t41 143.5q0 58 -26 92t-63 34q-10 0 -23 -2t-24 -2t-11 11q0 13 18 13q8 0 20 -2
t21 -2q67 0 112 46t45 131q0 128 -91 128q-55 0 -95 -32t-40 -57q0 -7 2 -10t5 -3t10 0.5t12 0.5q18 -2 30 -13.5t12 -32.5q0 -22 -14 -36.5t-37 -14.5t-37.5 16.5t-15.5 42.5q-1 69 52.5 112t123.5 43q72 0 116.5 -41.5t44.5 -108.5q0 -71 -53.5 -117t-143.5 -61v-2
q65 -10 98.5 -49.5t33.5 -98.5q0 -88 -68.5 -142.5t-159.5 -54.5z" />
    <glyph glyph-name="four" unicode="4" horiz-adv-x="461" 
d="M99 0l4 15h32q34 0 47.5 11.5t21.5 44.5l22 89h-255l4 16l430 488h24l-120 -483h88l-5 -21h-89l-22 -89q-8 -32 1 -44t42 -12h23l-4 -15h-244zM1 181h231l92 368z" />
    <glyph glyph-name="five" unicode="5" horiz-adv-x="421" 
d="M112 -13q-62 1 -100 38.5t-37 93.5q1 43 22.5 67t47.5 24q22 0 35 -13t13 -35q0 -26 -18.5 -41t-45.5 -8q-2 1 -10.5 4t-12.5 3.5t-8 -3.5t-4 -16q2 -42 34 -70t82 -29q84 -1 125 71t47 186q5 118 -80 119q-32 1 -66 -10t-49 -29q-13 -46 -31 -46q-11 0 -9 10q2 20 28 43
l95 307l7 4q72 -29 152 -31q56 -1 112 26l4 -9q-75 -96 -191 -95q-57 0 -96 14l-67 -203q49 36 123 35q61 -1 105.5 -45.5t43.5 -116.5q-2 -102 -75.5 -174.5t-175.5 -70.5z" />
    <glyph glyph-name="six" unicode="6" horiz-adv-x="424" 
d="M139 -15q-68 0 -102.5 51.5t-34.5 130.5q0 117 49.5 232.5t129 188.5t160.5 73q51 0 78 -23t27 -59q0 -32 -18.5 -51t-42.5 -19q-21 0 -34 13.5t-12 31.5q2 42 38 49q7 1 15 0.5t12.5 -1.5t8.5 -1.5t4.5 1.5t-0.5 8q-4 14 -22.5 25t-51.5 11q-50 0 -99.5 -50.5
t-84 -124.5t-53.5 -157q25 41 64.5 65t76.5 24q60 0 94.5 -39.5t34.5 -106.5q0 -98 -74 -185t-163 -87zM135 0q49 0 86.5 47.5t55 113t17.5 133.5q0 92 -54 92q-64 0 -118 -76t-54 -200q0 -110 67 -110z" />
    <glyph glyph-name="seven" unicode="7" horiz-adv-x="430" 
d="M121 -14q-25 0 -34 25t1 63q22 88 100.5 215t234.5 286h-183q-73 0 -108 -31.5t-72 -124.5h-13l76 228h355l-11 -44q-89 -96 -133 -151.5t-77.5 -122.5t-57.5 -159q-8 -30 -14 -69.5t-8 -48.5q-8 -34 -20 -50t-36 -16z" />
    <glyph glyph-name="eight" unicode="8" horiz-adv-x="455" 
d="M171 -15q-75 0 -129.5 43.5t-54.5 105.5q0 74 51.5 120.5t142.5 80.5q-45 33 -68 67.5t-23 82.5q0 80 58 129t136 49t122 -39t44 -95q0 -59 -45 -98.5t-121 -73.5q51 -34 79 -71t28 -89q0 -87 -62 -149.5t-158 -62.5zM272 365q116 71 116 176q0 50 -27.5 78t-75.5 28
q-59 0 -98.5 -36.5t-39.5 -89.5q0 -68 87 -129q12 -9 38 -27zM170 -1q66 0 114.5 44t48.5 112q0 47 -28.5 80.5t-82.5 71.5l-29 20q-143 -74 -143 -204q0 -54 32.5 -89t87.5 -35z" />
    <glyph glyph-name="nine" unicode="9" horiz-adv-x="425" 
d="M74 -15q-51 0 -78 24t-25 63q1 29 17.5 47t39.5 18q20 0 34 -13.5t14 -32.5q0 -18 -11 -31.5t-28 -16.5q-11 -2 -23.5 1t-15.5 2.5t0 -10.5q4 -14 22 -25t52 -11q67 0 133.5 85.5t103.5 246.5q-25 -41 -64.5 -65t-76.5 -24q-60 0 -94.5 39.5t-34.5 106.5q0 98 74 185
t163 87q68 0 102.5 -51.5t34.5 -130.5q0 -111 -44.5 -224.5t-124.5 -191.5t-170 -78zM175 260q64 0 118 76t54 200q0 110 -67 110q-49 0 -86.5 -47.5t-55 -113t-17.5 -133.5q0 -92 54 -92z" />
    <glyph glyph-name="colon" unicode=":" horiz-adv-x="225" 
d="M110 293q-20 0 -34 14t-14 34t14 34t34 14t34 -14t14 -34t-14 -34t-34 -14zM37 -8q-20 0 -34 14t-14 34t14 34t34 14t34 -14t14 -34t-14 -34t-34 -14z" />
    <glyph glyph-name="semicolon" unicode=";" horiz-adv-x="225" 
d="M109 293q-20 0 -34 14t-14 34t14 34t34 14t34 -14t14 -34t-14 -34t-34 -14zM-41 -138l-7 10q91 59 109 119q3 8 0 9.5t-12 -0.5t-13 -2q-20 0 -33.5 12.5t-13.5 32.5q0 19 13.5 32.5t33.5 13.5q21 0 35 -14.5t14 -44.5q0 -44 -29.5 -83t-96.5 -85z" />
    <glyph glyph-name="less" unicode="&#x3c;" horiz-adv-x="470" 
d="M425 138l-381 180v15l381 180v-22l-349 -165l349 -165v-23z" />
    <glyph glyph-name="equal" unicode="=" horiz-adv-x="470" 
d="M53 395v22h364v-22h-364zM53 234v22h364v-22h-364z" />
    <glyph glyph-name="greater" unicode="&#x3e;" horiz-adv-x="470" 
d="M44 138v23l349 165l-349 165v22l381 -180v-15z" />
    <glyph glyph-name="question" unicode="?" horiz-adv-x="406" 
d="M142 197l4 18q26 121 121 204q72 64 73 158q1 46 -19.5 73.5t-62.5 27.5t-80 -22t-46 -46q-2 -7 -1 -8t7 0t10 1q17 0 30 -13.5t13 -32.5q0 -20 -13.5 -34t-34.5 -14q-20 0 -33.5 15t-13.5 38q1 51 50 91t112 40q78 0 122 -34t43 -98q0 -17 -3.5 -31.5t-13 -29.5
l-15 -23.5t-22.5 -23.5t-21.5 -18.5l-26 -19.5t-22.5 -17q-34 -25 -55.5 -45t-45.5 -57.5t-38 -84.5l-4 -14h-14zM125 -9q-23 0 -38 15.5t-15 37.5t15 37.5t38 15.5q22 0 37 -15.5t15 -37.5t-15 -37.5t-37 -15.5z" />
    <glyph glyph-name="at" unicode="@" horiz-adv-x="847" 
d="M411 -154q-76 0 -145.5 24t-125.5 69.5t-89 120t-33 167.5q0 118 58.5 216.5t153 152.5t200.5 54q144 0 242 -84t98 -229q0 -121 -64 -202t-154 -81q-40 0 -66.5 23.5t-30.5 61.5h-4q-33 -44 -65 -64.5t-77 -20.5q-49 0 -79.5 37.5t-30.5 104.5q0 94 64.5 173.5
t144.5 79.5q77 0 102 -92h5l14 87h76l-75 -283q-22 -85 42 -85q68 0 124 76.5t56 184.5q0 138 -92.5 218t-235.5 80q-73 0 -143.5 -32t-124.5 -85.5t-87 -130t-33 -159.5q0 -91 31.5 -162.5t85.5 -114.5t120.5 -65.5t140.5 -22.5q150 0 278 98l10 -16q-136 -99 -291 -99z
M345 89q60 0 101 74.5t41 155.5q0 50 -17 78t-49 28q-38 0 -72 -42.5t-51.5 -97t-17.5 -99.5q0 -52 15.5 -74.5t49.5 -22.5z" />
    <glyph glyph-name="A" unicode="A" horiz-adv-x="631" 
d="M-87 0l4 15q43 7 64 24.5t55 73.5l357 588h24l62 -616q4 -41 16.5 -54t56.5 -16l-4 -15h-266l4 15h29q49 0 63.5 23.5t9.5 80.5l-10 116h-245l-49 -85q-41 -71 -41 -100q0 -35 46 -35h19l-4 -15h-191zM142 250h234l-31 343z" />
    <glyph glyph-name="B" unicode="B" horiz-adv-x="564" 
d="M-74 0l4 15h29q35 0 53 14.5t26 46.5l132 532q8 33 -4.5 47t-43.5 14h-30l4 15h239q102 0 155.5 -43t44.5 -122q-8 -67 -64.5 -108t-140.5 -56v-3q73 -13 119 -59t39 -110q-9 -83 -89.5 -133t-205.5 -50h-267zM188 359h67q87 0 134.5 43t58.5 110q3 21 3 40
q0 53 -26 84.5t-82 31.5h-13q-35 0 -53.5 -14t-26.5 -46zM167 16h25q94 0 145 49t62 124q2 18 2 28q-1 55 -35.5 91t-111.5 36h-70l-67 -268q-15 -60 50 -60z" />
    <glyph glyph-name="C" unicode="C" horiz-adv-x="585" 
d="M235 -16q-96 0 -153.5 75t-57.5 196q0 52 10 103q28 143 126.5 239.5t218.5 96.5q68 0 125 -46q16 -13 36 -13q27 0 54 53h13l-59 -272h-15q11 124 -37 193t-113 69q-91 0 -158 -93.5t-95 -232.5q-19 -98 -18 -170q2 -179 131 -179q173 0 257 240h20q-87 -259 -285 -259z
" />
    <glyph glyph-name="D" unicode="D" horiz-adv-x="613" 
d="M-74 0l4 15h29q35 0 53 14t26 48l132 530q16 62 -49 62h-29l4 15h249q47 0 88.5 -13.5t78.5 -43t58.5 -83.5t21.5 -127q0 -96 -37.5 -177t-97.5 -132t-131 -79.5t-142 -28.5h-258zM169 16h23q135 0 223.5 125t88.5 320q0 101 -42.5 154t-110.5 53h-21q-63 0 -78 -61
l-132 -530q-8 -32 3.5 -46.5t45.5 -14.5z" />
    <glyph glyph-name="E" unicode="E" horiz-adv-x="579" 
d="M-74 0l4 15h29q34 0 52 14.5t26 46.5l133 532q8 31 -3 46t-43 15h-30l4 15h490l-53 -250h-14q16 131 -13.5 182.5t-132.5 51.5h-42q-66 0 -80 -60l-61 -246h35q79 0 118.5 34t62.5 112h13l-78 -315h-13q18 87 -10.5 120.5t-95.5 33.5h-36l-68 -271q-15 -60 49 -60h57
q99 0 159 62.5t113 191.5h15l-84 -270h-503z" />
    <glyph glyph-name="F" unicode="F" horiz-adv-x="544" 
d="M-74 0l4 15h29q34 0 52 14t26 47l133 532q8 32 -3 46.5t-44 14.5h-30l4 15h485l-53 -246h-14q14 120 -17 175t-131 55h-34q-35 0 -54 -14t-26 -46l-62 -252h31q81 0 119.5 34t60.5 113h14l-79 -316h-14q17 74 -3.5 114t-99.5 40h-33l-67 -265q-15 -61 49 -61h45l-4 -15
h-284z" />
    <glyph glyph-name="G" unicode="G" horiz-adv-x="600" 
d="M227 -9q-93 0 -149.5 76t-53.5 210q4 170 109.5 293.5t242.5 123.5q25 0 46.5 -7t33 -14.5t32.5 -24.5q17 -13 35 -13q28 0 54 58h13l-57 -260h-14q-3 119 -41.5 182t-102.5 63q-74 0 -135 -69.5t-94 -176t-35 -224.5q-2 -88 30 -143.5t94 -55.5q60 0 102.5 41t55.5 92
l22 88q9 35 -2 47.5t-46 12.5h-33l4 15h244l-4 -15h-5q-37 0 -53.5 -12.5t-25.5 -47.5l-59 -239h-11q-2 29 -14 44t-26 15q-18 0 -37 -13q-22 -16 -34 -23t-35.5 -15t-50.5 -8z" />
    <glyph glyph-name="H" unicode="H" horiz-adv-x="643" 
d="M-74 0l4 15h29q63 0 78 61l132 529q16 64 -48 64h-29l4 15h267l-4 -15h-29q-62 0 -77 -61l-63 -255h271l63 252q16 64 -47 64h-30l4 15h267l-4 -15h-29q-33 0 -50.5 -14t-25.5 -45l-134 -534q-6 -24 5.5 -42t42.5 -19h28l-4 -15h-267l4 15h30q62 0 77 61l66 262h-271
l-66 -262q-15 -57 49 -60l28 -1l-4 -15h-267z" />
    <glyph glyph-name="I" unicode="I" horiz-adv-x="296" 
d="M-64 0l4 15h22q35 0 52 12.5t26 47.5l133 532q9 37 -1.5 49.5t-45.5 12.5h-23l4 15h253l-3 -15h-22q-35 0 -52.5 -13t-26.5 -49l-133 -532q-9 -35 2.5 -47.5t45.5 -12.5h22l-4 -15h-253z" />
    <glyph glyph-name="J" unicode="J" horiz-adv-x="445" 
d="M91 -10q-59 0 -95 34t-36 84q0 39 21.5 67.5t55.5 28.5q23 0 37 -15t14 -37t-15 -37.5t-35 -15.5q-16 0 -31.5 8.5t-17.5 8.5q-10 0 -10 -16q1 -39 30 -66t77 -27q40 0 76 43.5t57 126.5l107 431q15 61 -51 61h-35l4 15h278l-4 -15h-29q-65 0 -80 -61l-100 -405
q-53 -213 -218 -213z" />
    <glyph glyph-name="K" unicode="K" horiz-adv-x="615" 
d="M-74 0l4 15h29q63 0 78 61l133 532q8 31 -4 46t-48 15h-25l4 15h267l-4 -15h-28q-64 0 -79 -61l-75 -302l246 228q80 75 85 99q4 20 -11.5 28t-50.5 8h-11l4 15h224l-4 -15q-60 0 -151 -82l-198 -180l149 -331q26 -61 72 -61h9l-4 -15h-246l4 15h21q49 0 56 28
q3 14 -5 34l-121 272l-75 -69l-51 -204q-15 -61 49 -61h28l-4 -15h-267z" />
    <glyph glyph-name="L" unicode="L" horiz-adv-x="529" 
d="M-74 0l4 15h29q63 0 78 61l133 532q16 61 -53 61h-25l4 15h284l-4 -15h-38q-38 0 -57.5 -14.5t-27.5 -46.5l-133 -532q-15 -60 49 -60h40q58 0 99 15.5t72 51.5t52 76.5t47 108.5h14l-83 -268h-484z" />
    <glyph glyph-name="M" unicode="M" horiz-adv-x="732" 
d="M249 -11l-54 627h-2l-119 -477q-18 -65 -3 -94.5t69 -29.5h4l-4 -15h-222l4 15h12q48 0 75.5 28.5t44.5 95.5l115 469q15 61 -52 61h-24l4 15h187l37 -559l309 559h177l-4 -15h-28q-65 0 -80 -61l-131 -532q-16 -61 48 -61h29l-4 -15h-267l4 15h39q32 0 45.5 13t22.5 48
l134 539h-2l-348 -626h-16z" />
    <glyph glyph-name="N" unicode="N" horiz-adv-x="629" 
d="M431 -11l-243 607l-114 -458q-18 -67 -4 -95t70 -28h4l-4 -15h-222l4 15h13q49 0 75.5 28t43.5 95l120 489q-24 41 -94 42l4 15h165l210 -538l99 399q8 33 8 56t-3.5 35t-16 19.5t-20 9t-24.5 3.5q-5 1 -8 1h-3l4 15h221l-4 -15h-7q-57 0 -83 -27t-43 -97l-138 -556h-10z
" />
    <glyph glyph-name="O" unicode="O" horiz-adv-x="602" 
d="M231 -16q-90 0 -149 80t-59 209q0 72 26 144q42 119 132 201t190 82q99 0 155.5 -78t56.5 -195q0 -70 -20 -138q-38 -131 -133 -218t-199 -87zM229 0q84 0 148 87.5t95 224.5q22 101 22 199q0 173 -119 173q-86 0 -149 -90t-95 -220q-24 -98 -24 -182q0 -89 31 -140.5
t91 -51.5z" />
    <glyph glyph-name="P" unicode="P" horiz-adv-x="524" 
d="M-75 0l4 15h29q34 0 52.5 14.5t26.5 46.5l133 532q15 61 -51 61h-24l4 15h231q106 0 165.5 -41t59.5 -123q0 -58 -27.5 -101t-74 -65.5t-98.5 -33t-111 -10.5h-65l-59 -234q-15 -61 54 -61h39l-4 -15h-284zM183 325h58q202 0 218 176q2 23 1 33q-1 71 -34.5 102.5
t-84.5 31.5h-7q-67 0 -81 -59z" />
    <glyph glyph-name="Q" unicode="Q" horiz-adv-x="602" 
d="M367 -180q-31 0 -51.5 26.5t-21.5 77.5q0 32 9 72q-36 -12 -72 -12q-90 0 -149 80t-59 209q0 46 10 87q29 136 127 238t211 102q99 0 155.5 -78t56.5 -195q0 -41 -8 -86q-19 -110 -82.5 -199t-147.5 -130q-2 -24 -2 -32q1 -80 57 -80q63 0 94 106h14q-11 -42 -21.5 -71.5
t-27 -57.5t-39.5 -42.5t-53 -14.5zM167 19l1 3q-26 20 -24 70q2 51 34 88t83 37q46 0 70 -32.5t24 -88.5q0 -18 -3 -38q93 95 128 293q14 81 14 160q0 173 -119 173q-62 0 -114 -51t-84 -122.5t-51 -158.5q-19 -85 -19 -160q0 -128 60 -173zM229 0q43 0 82 25q14 50 14 91
q0 83 -65 83q-41 0 -69 -31t-31 -79q-3 -41 16.5 -65t52.5 -24z" />
    <glyph glyph-name="R" unicode="R" horiz-adv-x="624" 
d="M433 -17q-36 0 -62 28.5t-26 87.5q0 36 8 73q19 91 0 131t-78 40h-90l-66 -268q-7 -30 5 -45t49 -15h32l-4 -15h-276l4 15h29q63 0 78 60l133 534q15 60 -52 60h-24l4 15h239q103 0 161.5 -37t58.5 -108q0 -83 -68 -132t-164 -55v-1q50 -18 77.5 -57t28.5 -120
q1 -124 52 -124q23 0 42 28.5t30 75.5h14q-12 -83 -49 -127t-86 -44zM189 358h75q82 0 135.5 44.5t61.5 113.5q2 24 2 33q-1 59 -32 89t-89 30h-11q-65 0 -80 -60z" />
    <glyph glyph-name="S" unicode="S" horiz-adv-x="499" 
d="M211 -11q-47 0 -76 11t-63 35q-22 15 -37 15q-27 0 -57 -59h-12l60 270h12q-4 -120 42 -188t125 -68q69 0 114.5 42t45.5 108q0 45 -31.5 78t-113.5 84q-126 76 -126 185q0 83 51.5 137.5t140.5 54.5q72 0 123 -45q17 -14 35 -14q26 0 57 59h13l-61 -270h-14
q3 121 -37 187.5t-109 66.5q-63 0 -97 -42t-34 -97q0 -78 110 -142q78 -46 116.5 -88.5t38.5 -113.5q0 -94 -62.5 -150t-153.5 -56z" />
    <glyph glyph-name="T" unicode="T" horiz-adv-x="552" 
d="M42 0l4 15h40q38 0 56.5 14t26.5 47l149 593h-14q-51 0 -88 -16t-66.5 -53.5t-48.5 -76t-47 -107.5h-14l78 268h488l-56 -268h-14l4.5 50t3 44t0 41l-4 34t-9 30.5t-16.5 22t-24 18t-33.5 9.5t-43.5 4h-12l-149 -593q-15 -61 49 -61h45l-4 -15h-300z" />
    <glyph glyph-name="U" unicode="U" horiz-adv-x="630" 
d="M252 -13q-98 0 -147 43.5t-49 120.5q0 37 11 84l93 374q14 60 -53 60h-20l4 15h263l-4 -15h-28q-65 0 -79 -60l-96 -386q-12 -48 -12 -88q0 -126 129 -126q86 0 137.5 52.5t80.5 171.5l76 311q18 64 3.5 94.5t-69.5 30.5h-2l4 15h216l-4 -15h-4q-52 0 -79.5 -28.5
t-44.5 -96.5l-79 -318q-31 -126 -88.5 -182.5t-158.5 -56.5z" />
    <glyph glyph-name="V" unicode="V" horiz-adv-x="632" 
d="M216 -20l-61 612q-5 44 -17.5 59.5t-52.5 17.5l4 15h256l-4 -15h-25q-46 0 -63.5 -26.5t-12.5 -85.5l37 -476l264 438q47 78 47 115q0 18 -11 26.5t-40 8.5h-13l4 15h187l-4 -15q-41 -6 -62.5 -25t-56.5 -76l-359 -588h-17z" />
    <glyph glyph-name="W" unicode="W" horiz-adv-x="874" 
d="M189 -19l-28 598q-2 54 -15.5 71t-60.5 19l4 15h231l-4 -15h-6q-48 0 -59.5 -18t-9.5 -78l17 -467l199 356l-6 125q-2 48 -16 64t-56 18l4 15h247l-4 -15h-26q-47 0 -59.5 -19t-10.5 -75l19 -475l227 410q51 90 51 124q0 35 -50 35h-15l4 15h191l-4 -15q-47 -6 -70 -27
t-55 -78l-330 -583h-15l-24 451l-253 -451h-17z" />
    <glyph glyph-name="X" unicode="X" horiz-adv-x="614" 
d="M-78 0l4 15q50 4 78.5 23.5t76.5 77.5l187 222l-105 269q-1 1 -4 10t-4 11.5t-5 10t-6.5 10l-8 8t-10.5 7t-12.5 3.5t-16.5 2h-5l4 15h233l-4 -15h-25q-23 0 -38.5 -8t-15.5 -22q0 -16 5 -30l80 -213l131 160q33 41 43 57t10 29q0 27 -50 27h-16l4 15h206l-4 -15
q-48 -4 -76 -22t-79 -78l-163 -189l119 -303q7 -19 12.5 -30t20 -21.5t34.5 -10.5h6l-4 -15h-237l4 15h29q55 0 55 28q0 14 -7 32l-93 247l-158 -194q-50 -62 -50 -84q0 -29 52 -29h18l-4 -15h-211z" />
    <glyph glyph-name="Y" unicode="Y" horiz-adv-x="582" 
d="M84 0l4 15h38q33 0 51 17t27 54l48 193l-97 328q-8 29 -23.5 45.5t-50.5 16.5h-4l4 15h246l-4 -15h-25q-64 0 -48 -61l80 -305l187 254q46 63 46 84q0 28 -56 28h-15l4 15h177l-4 -15q-38 -6 -61 -27t-74 -91l-198 -267l-49 -198q-10 -39 -0.5 -55t45.5 -16h41l-4 -15
h-285z" />
    <glyph glyph-name="Z" unicode="Z" horiz-adv-x="538" 
d="M-64 0l7 28l534 641h-151q-100 0 -150.5 -49t-96.5 -183h-20l70 247h443l-5 -28l-534 -641h166q96 0 146 56t101 197h22l-82 -268h-450z" />
    <glyph glyph-name="bracketleft" unicode="[" horiz-adv-x="298" 
d="M-52 -130l203 814h193l-4 -14h-121l-195 -786h123l-4 -14h-195z" />
    <glyph glyph-name="backslash" unicode="\" horiz-adv-x="346" 
d="M223 -85l-113 774h20l112 -774h-19z" />
    <glyph glyph-name="bracketright" unicode="]" horiz-adv-x="298" 
d="M-78 -130l4 14h121l195 786h-123l4 14h195l-203 -814h-193z" />
    <glyph glyph-name="asciicircum" unicode="^" horiz-adv-x="459" 
d="M88 407l-11 6l141 274h59l141 -274l-11 -6l-160 189z" />
    <glyph glyph-name="underscore" unicode="_" horiz-adv-x="425" 
d="M-113 -106l4 15h427l-4 -15h-427z" />
    <glyph glyph-name="grave" unicode="`" 
d="M343 483l-132 71q-37 20 -37 50q0 15 11 25.5t27 10.5q26 0 53 -36l85 -114z" />
    <glyph glyph-name="a" unicode="a" horiz-adv-x="467" 
d="M91 -6q-47 0 -76 37.5t-29 106.5q0 110 68 200.5t146 90.5q74 0 97 -101h3q57 63 76 101h18l-88 -303q-14 -48 -14 -64q0 -29 20 -29q33 0 91 97l11 -8q-65 -128 -134 -128q-29 0 -41.5 15.5t-12.5 47.5q0 25 6 43h-2q-64 -106 -139 -106zM109 18q37 0 79 52t67 124
q21 60 21 109q0 50 -18 78t-47 28q-49 0 -85.5 -57t-52.5 -137q-11 -56 -11 -115q0 -82 47 -82z" />
    <glyph glyph-name="b" unicode="b" horiz-adv-x="426" 
d="M141 -8q-60 0 -96 35.5t-36 104.5q0 45 16 102l109 381q7 26 7 33q-1 14 -10.5 18.5t-32.5 4.5h-20l4 14l149 15l-69 -240q-30 -86 -41 -124h4q65 93 140 93q48 0 77 -37t29 -108q0 -114 -73 -203t-157 -89zM141 12q43 0 85 55t57 146q8 47 8 89q0 102 -48 102
q-42 0 -89.5 -58t-68.5 -140q-10 -43 -10 -80q0 -114 66 -114z" />
    <glyph glyph-name="c" unicode="c" horiz-adv-x="365" 
d="M121 -8q-60 0 -98 42.5t-38 110.5q0 114 73.5 201t171.5 87q49 0 76 -27.5t27 -68.5q0 -26 -15 -41t-34 -15t-32 13.5t-13 31.5q0 21 14 33.5t32 12.5q1 0 7 -1t8.5 0t2.5 6q0 17 -21.5 29.5t-51.5 12.5q-70 0 -117.5 -81t-47.5 -183q0 -132 80 -132q67 0 132 88l10 -9
q-72 -110 -166 -110z" />
    <glyph glyph-name="d" unicode="d" horiz-adv-x="467" 
d="M89 -6q-46 0 -74.5 38.5t-28.5 107.5q0 110 69 199.5t143 89.5q46 0 67.5 -28.5t30.5 -78.5h3l25 116l49 177q7 25 7 33q-1 14 -10.5 18.5t-33.5 4.5h-28l4 14l159 15l-165 -574q-14 -49 -14 -64q0 -29 20 -29q33 0 91 97l11 -8q-65 -128 -134 -128q-54 0 -54 63
q0 29 8 48h-1q-26 -49 -63.5 -80t-80.5 -31zM109 18q37 0 79 52t67 124q21 60 21 109q0 50 -18 78t-47 28q-49 0 -85.5 -57t-52.5 -137q-11 -56 -11 -115q0 -82 47 -82z" />
    <glyph glyph-name="e" unicode="e" horiz-adv-x="373" 
d="M119 -8q-59 0 -96 41.5t-37 115.5q0 98 76.5 191t173.5 93q45 0 72 -24.5t26 -66.5q-1 -113 -268 -161q-2 -24 -2 -34q0 -129 78 -129q81 0 153 97l11 -9q-86 -114 -187 -114zM68 196q107 24 151.5 54.5t45.5 95.5q1 36 -13 53t-34 17q-45 0 -93 -66t-57 -154z" />
    <glyph glyph-name="f" unicode="f" horiz-adv-x="270" 
d="M-111 -207q-29 0 -43 13.5t-14 33.5t13 33.5t30 13.5q18 0 28.5 -10.5t10.5 -27.5q0 -6 -1.5 -12t-3 -10.5t-2.5 -8t0.5 -5.5t6.5 -2q12 0 30 42t31 99l106 451h-62l4 15h62l13 58q22 96 73 158.5t120 62.5q31 0 49 -15t18 -39q0 -21 -13 -37t-34 -16q-17 0 -28 11
t-11 28q0 16 9 29.5t9 16.5q0 8 -12 8q-53 0 -94 -167l-24 -98h101l-4 -15h-100l-55 -222q-52 -211 -101 -299.5t-112 -88.5z" />
    <glyph glyph-name="g" unicode="g" horiz-adv-x="425" 
d="M121 -206q-93 0 -158 28t-65 76q0 42 42.5 70t113.5 40v2q-81 19 -81 59q0 43 102 83q-53 42 -53 110q1 73 52 122t120 49q48 0 86 -25q55 68 96 68q22 0 36 -12.5t14 -35.5q0 -16 -10.5 -26.5t-24.5 -10.5q-15 0 -24.5 10.5t-7.5 29.5q0 2 1.5 6t1.5 6t-1.5 4t-6.5 2
q-8 0 -28 -15t-36 -33q55 -44 55 -110q-1 -70 -52 -120.5t-125 -50.5q-45 0 -82 24q-44 -22 -44 -48q0 -15 26 -25t97 -22q151 -25 151 -119q0 -53 -54.5 -94.5t-140.5 -41.5zM161 134q46 0 76.5 59t32.5 130q2 40 -16 67.5t-49 27.5q-46 0 -75.5 -56t-31.5 -126
q-1 -46 15.5 -74t47.5 -28zM125 -191q57 0 100.5 24t43.5 72q0 43 -50.5 67t-130.5 24q-54 0 -89 -26t-35 -66q0 -42 40.5 -68.5t120.5 -26.5z" />
    <glyph glyph-name="h" unicode="h" horiz-adv-x="457" 
d="M270 -6q-29 0 -45 17t-16 46t17 72l53 139q23 56 23 87q0 20 -6.5 29.5t-24.5 9.5q-46 0 -105 -84t-82 -162l-43 -148h-72l174 606q6 22 6 37q0 14 -9.5 20t-36.5 6h-30l5 15l165 16l-69 -239l-65 -207l3 -1q95 174 187 174q35 0 53.5 -20t18.5 -54q0 -33 -20 -86
l-54 -140q-16 -43 -16 -65q0 -29 21 -29q33 0 91 97l11 -8q-65 -128 -134 -128z" />
    <glyph glyph-name="i" unicode="i" horiz-adv-x="248" 
d="M161 541q-19 0 -32.5 13.5t-13.5 32.5t13.5 32.5t32.5 13.5t32.5 -13.5t13.5 -32.5t-13.5 -32.5t-32.5 -13.5zM61 -6q-29 0 -45 17t-16 46q0 27 14 72l66 217q7 24 7 33q0 24 -44 24h-34l4 14l149 9q0 -51 -24 -128l-53 -171q-13 -39 -13 -65q0 -29 21 -29q33 0 91 97
l11 -8q-65 -128 -134 -128z" />
    <glyph glyph-name="j" unicode="j" horiz-adv-x="224" 
d="M172 541q-19 0 -32.5 13.5t-13.5 32.5t13.5 32.5t32.5 13.5t32.5 -13.5t13.5 -32.5t-13.5 -32.5t-32.5 -13.5zM-109 -206q-37 0 -58.5 19t-21.5 51q0 24 14.5 40.5t34.5 16.5q18 0 28.5 -11.5t10.5 -27.5q0 -29 -30 -40q-18 -7 -18 -15q0 -18 36 -18q51 0 81 107l124 430
q7 24 7 33q0 24 -44 24h-34l4 14l147 9q0 -52 -22 -128l-85 -295q-60 -209 -174 -209z" />
    <glyph glyph-name="k" unicode="k" horiz-adv-x="430" 
d="M244 -6q-32 0 -49 20.5t-16 58.5q1 20 6.5 55.5t5.5 51.5q0 30 -12.5 40t-47.5 10q-3 0 -11 -0.5t-14 -0.5l-28 -105l-36 -124h-71l172 602q6 20 6 41q0 14 -9.5 20t-36.5 6h-30l5 15l165 16l-76 -264l-56 -184q50 3 80 23t53 64q28 55 48 76t51 21q23 0 35.5 -13
t12.5 -35q0 -20 -12.5 -33t-31.5 -13q-17 0 -29 11t-12 31q0 9 5 19q-11 -4 -21.5 -19.5t-24 -42t-25.5 -42.5q-28 -39 -81 -54v-2q50 -5 73.5 -29t23.5 -73q0 -8 -0.5 -17t-1.5 -21t-1 -19q-2 -50 25 -50q17 0 37.5 24.5t50.5 72.5l11 -8q-66 -129 -133 -129z" />
    <glyph glyph-name="l" unicode="l" horiz-adv-x="242" 
d="M55 -6q-29 0 -45 17t-16 46q0 25 12 69l139 486q7 24 7 35q0 14 -9.5 19t-33.5 5h-29l4 14l158 15l-161 -566q-16 -55 -16 -72q0 -29 22 -29q33 0 91 97l11 -8q-65 -128 -134 -128z" />
    <glyph glyph-name="m" unicode="m" horiz-adv-x="684" 
d="M497 -6q-29 0 -45 17t-16 46q0 30 17 72l50 131q26 69 26 95q0 20 -6.5 29.5t-24.5 9.5q-38 0 -97.5 -84t-93.5 -193l-37 -117h-69l80 259q22 75 22 96q0 20 -5.5 29.5t-23.5 9.5q-44 0 -102.5 -83.5t-81.5 -163.5l-43 -147h-72l107 348q6 20 6 30q0 14 -9.5 20t-36.5 6
h-33l4 14l145 8q0 -46 -28 -128l-15 -43l3 -1q97 173 184 173q64 0 64 -75q0 -18 -8.5 -52.5t-14.5 -45.5l3 -1q97 174 180 174q35 0 53.5 -20t18.5 -55q0 -36 -23 -93l-51 -132q-16 -43 -16 -65q0 -29 21 -29q33 0 91 97l11 -8q-65 -128 -134 -128z" />
    <glyph glyph-name="n" unicode="n" horiz-adv-x="463" 
d="M276 -6q-29 0 -45 17t-16 46q0 30 17 72l50 131q26 64 26 95q0 20 -6.5 29.5t-24.5 9.5q-45 0 -104.5 -82.5t-82.5 -163.5l-43 -148h-72l106 345q6 19 6 33t-9.5 20t-36.5 6h-32l4 14l145 8q0 -46 -28 -128l-15 -43l3 -1q97 173 187 173q35 0 53.5 -20t18.5 -55
q0 -36 -23 -93l-51 -132q-16 -43 -16 -65q0 -29 21 -29q33 0 91 97l11 -8q-65 -128 -134 -128z" />
    <glyph glyph-name="o" unicode="o" horiz-adv-x="419" 
d="M123 -8q-62 0 -97.5 50t-35.5 122q0 102 73 185.5t163 83.5q62 0 99.5 -45t39.5 -118q0 -108 -73 -193t-169 -85zM121 6q49 0 89.5 51t61 121t20.5 137q0 54 -16.5 79.5t-40.5 25.5q-68 0 -120.5 -96t-52.5 -218q0 -100 59 -100z" />
    <glyph glyph-name="p" unicode="p" horiz-adv-x="443" 
d="M-140 -204l4 15h12q32 0 47 17t27 56l133 461q4 15 4 30q0 30 -47 30h-28l4 14l143 8q1 -24 -21 -101h3q64 103 150 103q43 0 70.5 -36t27.5 -104q0 -120 -67 -207.5t-143 -87.5q-42 0 -66 24.5t-36 70.5h-2l-24 -98l-31 -109q-12 -36 -5 -53.5t39 -17.5h29l-4 -15h-219z
M165 14q58 0 102.5 82t44.5 204q0 104 -50 104q-52 0 -109 -89t-57 -184q0 -52 18 -84.5t51 -32.5z" />
    <glyph glyph-name="q" unicode="q" horiz-adv-x="428" 
d="M77 -204l3 15h12q34 0 47.5 11.5t23.5 47.5l34 121l37 109h-4q-67 -106 -139 -106q-49 0 -77 38.5t-28 111.5q0 103 67 194t149 91q38 0 62.5 -28t31.5 -73h4q54 54 76 101h18l-159 -561q-10 -34 -2.5 -45.5t40.5 -11.5h18l-4 -15h-210zM109 18q37 0 79 52t67 124
q21 60 21 109q0 50 -18 78t-47 28q-49 0 -85.5 -58.5t-52.5 -138.5q-11 -56 -11 -112q0 -82 47 -82z" />
    <glyph glyph-name="r" unicode="r" horiz-adv-x="333" 
d="M-25 0l107 348q5 20 5 30q0 16 -11 21t-35 5h-32l4 14l145 8q0 -47 -28 -128l-16 -45l3 -1q85 177 160 177q23 0 39.5 -13t16.5 -40q0 -24 -13 -38t-32 -14q-17 0 -27.5 12t-10.5 27q0 5 2 13t1 11.5t-6 3.5q-30 0 -81.5 -82.5t-78.5 -172.5l-41 -136h-71z" />
    <glyph glyph-name="s" unicode="s" horiz-adv-x="333" 
d="M89 -5q-59 2 -95.5 32.5t-34.5 65.5q1 21 14 33.5t30 11.5q15 0 27.5 -11.5t11.5 -29.5q-1 -21 -18 -31t-17 -15q0 -13 23 -26.5t63 -14.5q44 -2 69.5 17.5t26.5 56.5q1 35 -16 57t-65 53q-44 27 -63 51t-18 64q2 52 43.5 86.5t105.5 32.5q52 -1 84.5 -26t31.5 -54
q-1 -18 -12.5 -30.5t-30.5 -11.5q-14 0 -25 10t-10 26q1 14 12.5 27.5t11.5 18.5q1 10 -18 17t-47 8q-38 1 -60 -17t-23 -52q-1 -23 10 -41t21.5 -26.5t37.5 -26.5q28 -19 40 -28.5t27.5 -25t20.5 -33t4 -40.5q-2 -59 -49 -94.5t-113 -33.5z" />
    <glyph glyph-name="t" unicode="t" horiz-adv-x="287" 
d="M77 -6q-38 0 -59.5 22t-21.5 63q0 17 10 54l77 270h-70l3 10q63 10 104 49t82 136h14l-55 -180h123l-4 -15h-125l-82 -273q-7 -21 -7 -44q0 -51 40 -51q33 0 57.5 21.5t58.5 85.5l12 -9q-36 -74 -73.5 -106.5t-83.5 -32.5z" />
    <glyph glyph-name="u" unicode="u" horiz-adv-x="470" 
d="M68 -6q-35 0 -53.5 20t-18.5 55q0 39 19 94l64 183q7 21 7 33q0 24 -44 24h-34l4 14l151 9q2 -47 -26 -126l-50 -138q-22 -63 -22 -96q0 -20 6.5 -29.5t24.5 -9.5q45 0 103 82t85 170l42 137h72l-89 -289q-14 -44 -14 -65q0 -29 20 -29q33 0 91 97l11 -8
q-65 -128 -134 -128q-53 0 -53 63q0 25 13 62l15 43l-3 1q-95 -169 -187 -169z" />
    <glyph glyph-name="v" unicode="v" horiz-adv-x="405" 
d="M116 -8q-50 0 -77.5 28.5t-27.5 85.5q0 44 27 134l34 105q6 21 6 34q0 24 -44 24h-32l4 14l151 7q0 -42 -26 -126l-18 -52q-28 -90 -28 -140q0 -36 15.5 -58t43.5 -22q36 0 80 43t74 103.5t30 107.5q0 18 -7 33.5t-11.5 20.5t-16.5 17q-23 23 -23 44q0 14 11 25.5
t27 11.5q25 0 38.5 -25.5t13.5 -65.5q0 -80 -39 -163t-96 -134.5t-109 -51.5z" />
    <glyph glyph-name="w" unicode="w" horiz-adv-x="614" 
d="M102 -6q-92 0 -92 114q0 40 28 135l34 103q7 24 7 33q0 24 -44 24h-33l4 14l151 7q0 -37 -28 -127l-18 -49q-28 -90 -28 -140q0 -46 12 -64.5t39 -18.5q30 0 60 41.5t46 101.5l71 250h71l-45 -169q-26 -101 -26 -141q0 -36 15.5 -58t43.5 -22q36 0 76 42.5t65.5 102
t25.5 107.5q0 18 -7 33.5t-11.5 20.5t-16.5 17q-23 23 -23 44q0 14 11 25.5t27 11.5q25 0 38.5 -25.5t13.5 -65.5q0 -124 -74 -235.5t-153 -111.5q-49 0 -75 30.5t-26 88.5h-2q-29 -63 -60.5 -91t-76.5 -28z" />
    <glyph glyph-name="x" unicode="x" horiz-adv-x="430" 
d="M235 -6q-24 0 -36 8.5t-23.5 45t-21.5 114.5q-41 -90 -74 -129t-72 -39q-21 0 -35 12t-14 33q0 22 12.5 35t30.5 13q37 0 37 -37v-19q1 -2 5 -2q14 0 44.5 46t62.5 115q-14 109 -26 152t-28 43q-25 0 -86 -95l-12 9q39 65 68.5 95t67.5 30q20 0 30.5 -8.5t22 -45
t20.5 -109.5q42 89 74.5 126.5t72.5 37.5q22 0 36 -13.5t14 -33.5q0 -21 -12.5 -35t-29.5 -14t-28 11t-11 33v6q1 11 -7 11q-14 0 -45 -47t-60 -114q24 -191 56 -191q23 0 81 88l10 -7q-48 -80 -66 -99q-26 -26 -58 -26z" />
    <glyph glyph-name="y" unicode="y" horiz-adv-x="404" 
d="M-22 -207q-27 0 -44.5 16t-18.5 38t12 36t32 14q16 0 26.5 -10.5t10.5 -28.5q0 -11 -6.5 -21.5t-6.5 -12.5q0 -10 9 -10q33 0 81.5 57t84.5 119q-7 92 -46 266q-17 77 -26.5 102.5t-21.5 25.5q-19 0 -78 -92l-12 9q37 64 65 94t64 30q29 0 46.5 -35.5t41.5 -152.5
q14 -71 24 -159q99 167 99 220q0 16 -14.5 44t-14.5 46t11 31t32 13q18 0 29.5 -15.5t11.5 -41.5q0 -81 -156 -333q-87 -141 -137.5 -195t-97.5 -54z" />
    <glyph glyph-name="z" unicode="z" horiz-adv-x="380" 
d="M-15 -6q-28 0 -28 33q0 28 34 64.5t109 98.5q36 29 89 66t80.5 61.5t45.5 58.5l-3 3q-21 -25 -42 -35.5t-53 -10.5q-23 0 -54 14.5t-55 14.5q-61 0 -87 -84h-13q9 62 43.5 105.5t89.5 43.5q30 0 65.5 -28.5t61.5 -28.5t35 32q3 8 10.5 16t15.5 8q21 0 21 -28
q0 -46 -155 -165l-41 -30l-47.5 -35.5l-41 -33t-39 -36t-24.5 -30.5l4 -2q34 25 85 25q27 0 61 -15t60 -15q36 0 63.5 24.5t37.5 75.5h11q-5 -69 -47 -118t-102 -49q-34 0 -74.5 34t-61.5 34q-11 0 -17.5 -10t-6.5 -23q0 -15 -8.5 -25t-21.5 -10z" />
    <glyph glyph-name="braceleft" unicode="{" horiz-adv-x="392" 
d="M221 -129q-80 -5 -124 21.5t-43 84.5q1 35 30.5 106t30.5 106q1 43 -24.5 62.5t-81.5 19.5l4 14q70 -2 109 26.5t55 96.5q7 26 9 78.5t5 67.5q17 79 76 108t156 23l18 -1l-3 -14q-71 -1 -111.5 -26t-52.5 -82q-4 -19 -8.5 -75t-10.5 -82q-8 -31 -23.5 -53.5t-33 -35
t-43.5 -21t-45 -11.5t-47 -6v-2q38 -6 62 -14t42 -28t18 -52q-1 -39 -27.5 -109t-26.5 -96q-2 -91 111 -91l-3 -14z" />
    <glyph glyph-name="bar" unicode="|" horiz-adv-x="219" 
d="M103 -204v893h17v-893h-17z" />
    <glyph glyph-name="braceright" unicode="}" horiz-adv-x="392" 
d="M-79 -126l3 14q71 1 111.5 26t52.5 82q4 19 8.5 75t10.5 82q8 31 23.5 53.5t33 35t43.5 21t45 11.5t47 6v2q-38 6 -62 14t-42 28t-18 52q1 39 27.5 109t26.5 96q2 91 -111 91l3 14l18 1q80 5 124 -21.5t43 -84.5q-1 -35 -30.5 -106t-30.5 -106q-1 -43 24.5 -62.5
t81.5 -19.5l-4 -14q-70 2 -109 -26.5t-55 -96.5q-6 -25 -8 -77.5t-6 -68.5q-17 -79 -76 -108t-156 -23z" />
    <glyph glyph-name="asciitilde" unicode="~" horiz-adv-x="307" 
d="M-2 163l-9 3q11 56 30.5 81.5t56.5 25.5q21 0 64 -10t57 -10q22 0 34 8t22 34l9 -3q-10 -56 -29.5 -82t-57.5 -26q-21 0 -64 10.5t-57 10.5q-22 0 -34 -8t-22 -34z" />
    <glyph glyph-name="nbspace" unicode="&#xa0;" horiz-adv-x="115" 
 />
    <glyph glyph-name="exclamdown" unicode="&#xa1;" horiz-adv-x="243" 
d="M172 491q-51 -203 -56 -339q-2 -62 -9 -94q-17 -67 -66 -67q-42 0 -42 50q0 32 37 106q74 148 123 344h13zM195 697q23 0 38 -15.5t15 -37.5t-15 -37.5t-38 -15.5q-22 0 -37 15.5t-15 37.5t15 37.5t37 15.5z" />
    <glyph glyph-name="cent" unicode="&#xa2;" horiz-adv-x="365" 
d="M-53 -135l86 161q-42 46 -41 122q1 111 72.5 202.5t162.5 91.5q10 0 26 -2l53 99h16l-55 -103q62 -18 62 -90q0 -26 -15 -41t-34 -15t-30.5 12t-12.5 30q-1 21 12.5 35t31.5 14q3 0 6.5 -0.5t5 -0.5h3.5t2.5 1.5t0.5 4.5q0 29 -38 38l-183 -341q17 -67 74 -67
q67 0 132 88l10 -8q-40 -60 -79.5 -85.5t-86.5 -25.5q-49 0 -86 31l-80 -151h-15zM74 105l172 322q-5 1 -16 1q-64 0 -110 -84.5t-48 -187.5q0 -21 2 -51z" />
    <glyph glyph-name="sterling" unicode="&#xa3;" horiz-adv-x="486" 
d="M32 -9q-32 0 -51 19.5t-19 50.5q0 37 26.5 60t62.5 23q39 0 103 -35q22 52 22 108q0 44 -16 108h-101l4 17h93q-18 68 -17 104q1 98 59.5 156.5t149.5 58.5q65 0 103 -35.5t36 -82.5q-4 -77 -58 -77q-22 0 -36 14.5t-14 34.5q0 23 15 37.5t37 14.5q7 0 16.5 -3.5
t12.5 -2.5t3 10q0 25 -31 50.5t-83 25.5q-58 0 -92.5 -46.5t-35.5 -131.5q0 -15 4 -127h157l-4 -17h-152v-38q0 -101 -50 -190q46 -23 87 -23q87 0 131 133l15 -1q-47 -213 -163 -213q-32 0 -53 16t-45 47q-52 -65 -116 -65zM32 6q61 0 103 67q-21 28 -40.5 42.5t-47.5 14.5
q-30 0 -50 -19.5t-20 -49.5q0 -24 15 -39.5t40 -15.5z" />
    <glyph glyph-name="currency" unicode="&#xa4;" horiz-adv-x="453" 
d="M197 -15q-79 0 -122 78.5t-27 203.5h-58l4 16h56q10 59 23 95h-54l4 16h55q42 119 119.5 194t164.5 75q56 0 88.5 -32.5t30.5 -77.5q-1 -39 -18.5 -58.5t-40.5 -19.5q-22 0 -33.5 12t-10.5 32q1 23 15 35.5t34 14.5h10t9.5 0.5t5.5 4.5t3 13q1 19 -26 40t-66 21
q-63 0 -117.5 -72t-87.5 -182h178l-4 -16h-178q-13 -44 -21 -95h177l-4 -16h-176q-19 -108 -0.5 -185t79.5 -77q96 0 158 138h18q-37 -80 -81.5 -119t-106.5 -39z" />
    <glyph glyph-name="yen" unicode="&#xa5;" horiz-adv-x="555" 
d="M59 0l4 15h33q34 0 50.5 13t25.5 48l49 194h-189l4 16h179l-37 120h-112l4 16h103l-44 149q-10 33 -27.5 47t-50.5 14h-3l4 15h232l-4 -15h-20q-46 0 -48 -32q0 -12 5 -29l73 -281l173 230q40 54 42 84q1 15 -12.5 21.5t-39.5 6.5h-13l4 15h197l-4 -15
q-51 -6 -77.5 -27.5t-77.5 -86.5l-73 -95h115l-4 -16h-123l-93 -121h186l-4 -16h-190l-48 -195q-9 -35 2 -47.5t45 -12.5h33l-4 -15h-265z" />
    <glyph glyph-name="brokenbar" unicode="&#xa6;" horiz-adv-x="219" 
d="M103 316v373h17v-373h-17zM103 -204v374h17v-374h-17z" />
    <glyph glyph-name="section" unicode="&#xa7;" horiz-adv-x="474" 
d="M162 -14q-61 0 -90 24.5t-29 58.5q0 24 13 39.5t33 15.5q16 0 26.5 -10.5t10.5 -25.5q0 -28 -30 -37q-5 -1 -11 -2l-9 -1.5t-5.5 -2t-2 -4t2.5 -7.5q17 -36 89 -36q33 0 58.5 16.5t34.5 47.5q23 76 -69 115q-131 56 -127 136q3 56 45.5 86t101.5 36q-60 50 -36 131
q12 42 51.5 68.5t94.5 26.5q62 0 90.5 -24.5t28.5 -57.5q0 -23 -13 -39t-33 -16q-17 0 -26.5 10.5t-9.5 25.5q0 28 31 35q24 6 25 6q2 3 -2 12q-18 36 -89 36q-33 0 -58.5 -16.5t-34.5 -47.5q-23 -76 69 -115q67 -29 98.5 -61.5t28.5 -74.5q-3 -56 -45 -86t-102 -36
q61 -47 36 -131q-12 -42 -51.5 -68.5t-94.5 -26.5zM257 223q98 4 106 71q4 33 -18 57t-81 50q-23 9 -45 23q-96 -2 -106 -72q-5 -32 17 -56t82 -50q23 -9 45 -23z" />
    <glyph glyph-name="dieresis" unicode="&#xa8;" 
d="M397 488q-21 0 -36 15t-15 36t15 36t36 15t36 -15t15 -36t-15 -36t-36 -15zM240 488q-20 0 -35.5 15t-15.5 36t15.5 36t35.5 15t35.5 -15t15.5 -36t-15.5 -36t-35.5 -15z" />
    <glyph glyph-name="copyright" unicode="&#xa9;" horiz-adv-x="798" 
d="M399 -16q-151 0 -254.5 103.5t-103.5 254.5t103.5 254.5t254.5 103.5t254.5 -103.5t103.5 -254.5t-103.5 -254.5t-254.5 -103.5zM399 -1q144 0 243 99.5t99 243.5t-99 243.5t-243 99.5t-243 -99.5t-99 -243.5t99 -243.5t243 -99.5zM400 135q-75 0 -129.5 61t-54.5 148
q0 90 55 150t129 60q39 0 83 -27q12 -8 30 -8q9 0 14 7t11 28h9l5 -168h-12q-15 77 -54 117t-89 40q-53 0 -79.5 -56.5t-26.5 -139.5q0 -81 29.5 -140t84.5 -59q115 0 145 152h12q-13 -80 -55.5 -122.5t-106.5 -42.5z" />
    <glyph glyph-name="ordfeminine" unicode="&#xaa;" horiz-adv-x="362" 
d="M133 332q-35 0 -54.5 27.5t-18.5 81.5q2 86 50 150t100 64q31 0 46.5 -20t21.5 -60h2q13 13 30 39t24 44h13l-65 -228q-8 -27 -9 -46q-1 -15 11 -15q21 0 61 65l8 -6q-25 -47 -45 -70t-45 -23q-40 0 -40 45q0 13 7 34q-13 -31 -42 -56.5t-55 -25.5zM30 250l4 16h266
l-4 -16h-266zM145 352q36 0 74 64.5t42 139.5q2 36 -9.5 60.5t-32.5 24.5q-38 0 -69 -64t-34 -155q-3 -70 29 -70z" />
    <glyph glyph-name="guillemotleft" unicode="&#xab;" horiz-adv-x="448" 
d="M310 0l-156 225l269 224h13l-188 -230l75 -219h-13zM145 0l-156 225l269 224h13l-188 -230l75 -219h-13z" />
    <glyph glyph-name="logicalnot" unicode="&#xac;" horiz-adv-x="825" 
d="M619 358q-81 0 -136.5 55.5t-55.5 135.5q0 59 37.5 101.5t87.5 42.5q32 0 54 -18.5t22 -43.5q0 -17 -12.5 -30.5t-30.5 -13.5q-19 0 -32 12t-13 29q0 21 11 32q9 9 7.5 15.5t-10.5 6.5q-32 0 -56.5 -29t-24.5 -77q0 -63 57 -118t122 -55q49 0 77.5 22.5t28.5 53.5
q0 9 -6.5 10.5t-15.5 -7.5q-11 -11 -32 -11q-17 0 -29 13t-12 32q0 18 13.5 30.5t30.5 12.5q25 0 43.5 -22t18.5 -54q0 -50 -42.5 -87.5t-101.5 -37.5zM202 358q-59 0 -101.5 37.5t-42.5 87.5q0 32 18.5 54t43.5 22q17 0 30.5 -12.5t13.5 -30.5q0 -19 -12 -32t-29 -13
q-21 0 -32 11q-9 9 -15.5 7.5t-6.5 -10.5q0 -31 28.5 -53.5t77.5 -22.5q65 0 122 55t57 118q0 48 -24.5 77t-56.5 29q-9 0 -10.5 -6.5t7.5 -15.5q11 -11 11 -32q0 -17 -13 -29t-32 -12q-18 0 -30.5 13.5t-12.5 30.5q0 25 22 43.5t54 18.5q50 0 87.5 -42.5t37.5 -101.5
q0 -80 -55.5 -135.5t-136.5 -55.5zM552 -9q-50 0 -87.5 42.5t-37.5 101.5q0 80 55.5 135.5t136.5 55.5q59 0 101.5 -37.5t42.5 -87.5q0 -32 -18.5 -54t-43.5 -22q-17 0 -30.5 12.5t-13.5 30.5q0 19 12 32t29 13q21 0 32 -11q9 -9 15.5 -7.5t6.5 10.5q0 31 -28.5 53.5
t-77.5 22.5q-65 0 -122 -55t-57 -118q0 -48 24.5 -77t56.5 -29q9 0 10.5 6.5t-7.5 15.5q-11 11 -11 32q0 17 13 29t32 12q18 0 30.5 -13.5t12.5 -30.5q0 -25 -22 -43.5t-54 -18.5zM269 -9q-32 0 -54 18.5t-22 43.5q0 17 12.5 30.5t30.5 13.5q19 0 32 -12t13 -29
q0 -21 -11 -32q-9 -9 -7.5 -15.5t10.5 -6.5q32 0 56.5 29t24.5 77q0 63 -57 118t-122 55q-49 0 -77.5 -22.5t-28.5 -53.5q0 -9 6.5 -10.5t15.5 7.5q11 11 32 11q17 0 29 -13t12 -32q0 -18 -13.5 -30.5t-30.5 -12.5q-25 0 -43.5 22t-18.5 54q0 50 42.5 87.5t101.5 37.5
q81 0 136.5 -55.5t55.5 -135.5q0 -59 -37.5 -101.5t-87.5 -42.5z" />
    <glyph glyph-name="registered" unicode="&#xae;" horiz-adv-x="449" 
d="M266 327q-77 0 -130.5 53t-53.5 130t53.5 130t130.5 53t130.5 -53t53.5 -130t-53.5 -130t-130.5 -53zM266 342q71 0 119 48.5t48 119.5t-48 119.5t-119 48.5t-119 -48.5t-48 -119.5t48 -119.5t119 -48.5zM341 407q-38 0 -42 58q-1 18 -9.5 30.5t-22.5 12.5h-25v-75
q0 -8 3.5 -10.5t12.5 -2.5h18v-10h-99v10h11q17 0 17 13v162q0 14 -17 14h-11v11h85q89 0 89 -54q0 -20 -19.5 -35.5t-47.5 -17.5q26 -6 43 -48q9 -22 14 -28.5t14 -6.5q14 0 13 34h7q2 -28 -8 -42.5t-26 -14.5zM242 519h28q40 0 40 46q0 44 -38 44h-14q-16 0 -16 -14v-76z
" />
    <glyph glyph-name="macron" unicode="&#xaf;" 
d="M185 481l15 58h240l-15 -58h-240z" />
    <glyph glyph-name="macron" unicode="&#x2c9;" 
d="M185 481l15 58h240l-15 -58h-240z" />
    <glyph glyph-name="degree" unicode="&#xb0;" horiz-adv-x="330" 
d="M215 426q-49 0 -83 34t-34 83t34 83t83 34t83 -34t34 -83t-34 -83t-83 -34zM215 441q43 0 71 29t28 73q0 42 -28.5 72t-70.5 30t-70.5 -29.5t-28.5 -72.5t28.5 -72.5t70.5 -29.5z" />
    <glyph glyph-name="plusminus" unicode="&#xb1;" horiz-adv-x="678" 
d="M-111 -207q-29 0 -43 13.5t-14 33.5t12.5 33.5t29.5 13.5q19 0 29.5 -10.5t10.5 -27.5q0 -6 -1.5 -12t-3 -10.5t-2.5 -8t0.5 -5.5t6.5 -2q12 0 30 42t31 99l108 451h-64l4 15h64l3 14q27 126 86 193.5t140 67.5q35 0 59.5 -16t24.5 -42q0 -9 -3 -18q62 81 146 81
q45 0 68 -23l73 25l-161 -566q-16 -55 -16 -72q0 -29 22 -29q33 0 91 97l11 -8q-65 -128 -134 -128q-29 0 -45 17t-16 46q0 25 12 69l79 277h-142l-49 -197q-52 -211 -101 -299.5t-112 -88.5q-29 0 -43 13.5t-14 33.5t12.5 33.5t29.5 13.5q19 0 29.5 -10.5t10.5 -27.5
q0 -6 -1.5 -12t-3 -10.5t-2.5 -8t0.5 -5.5t6.5 -2q12 0 30 42t31 99l102 426h-154l-55 -222q-52 -211 -101 -299.5t-112 -88.5zM388 418h143l50 173q-12 1 -22.5 10.5t-10.5 25.5q0 10 6 22t6 13q1 4 0.5 7.5t-6.5 7.5t-18 4q-82 0 -134 -207zM160 418h155l3 14
q20 94 63 161q-12 -7 -25 -7q-12 0 -23.5 9.5t-11.5 26.5q0 10 6 22t6 13q1 4 0.5 7.5t-6.5 7.5t-18 4q-84 0 -135 -202z" />
    <glyph glyph-name="twosuperior" unicode="&#xb2;" horiz-adv-x="340" 
d="M37 296l3 16q28 48 54.5 78.5t81.5 73.5q45 36 63 63.5t19 60.5q1 25 -12 42t-37 17q-31 0 -52 -15.5t-21 -38.5q0 -5 6 -4q17 2 28 -5.5t11 -22.5q0 -17 -11 -26.5t-26 -9.5t-26 11t-11 30q1 45 34 72t72 27q44 0 73.5 -24.5t28.5 -59.5q-1 -39 -27.5 -67.5t-93.5 -69.5
q-44 -27 -69 -47.5t-46 -51.5h115q26 0 40 14.5t28 49.5l10 -1l-31 -112h-204z" />
    <glyph glyph-name="threesuperior" unicode="&#xb3;" horiz-adv-x="343" 
d="M144 285q-38 0 -63.5 23.5t-24.5 55.5q1 30 15.5 45t35.5 15q15 0 23 -9.5t7 -24.5q-1 -18 -16.5 -26.5t-38.5 -3.5q-7 1 -7 -3q-1 -21 17 -38t53 -17q36 0 57 29.5t22 76.5q1 28 -12.5 45.5t-38.5 17.5q-6 0 -12.5 -1t-10.5 -1q-14 0 -14 11q0 12 20 12q2 0 10 -1.5
t13 -1.5q76 0 81 97q2 28 -12.5 46.5t-41.5 18.5q-26 0 -43 -12t-17 -26q0 -5 6 -5q15 0 24 -9t9 -23q0 -16 -10 -25t-25 -9q-14 0 -24.5 10.5t-10.5 26.5q1 41 31.5 65t72.5 24q40 0 69.5 -26.5t28.5 -64.5q-1 -39 -37.5 -66t-85.5 -30v-2q37 -3 63 -27t25 -57
q-1 -47 -44.5 -78.5t-93.5 -31.5z" />
    <glyph glyph-name="acute" unicode="&#xb4;" 
d="M280 482l-4 6l108 119q32 35 60 35q16 0 24.5 -10.5t8.5 -23.5q0 -34 -50 -57z" />
    <glyph glyph-name="mu" unicode="&#xb5;" horiz-adv-x="825" 
d="M619 358q-81 0 -136.5 55.5t-55.5 135.5q0 59 37.5 101.5t87.5 42.5q32 0 54 -18.5t22 -43.5q0 -17 -12.5 -30.5t-30.5 -13.5q-19 0 -32 12t-13 29q0 21 11 32q9 9 7.5 15.5t-10.5 6.5q-32 0 -56.5 -29t-24.5 -77q0 -63 57 -118t122 -55q49 0 77.5 22.5t28.5 53.5
q0 9 -6.5 10.5t-15.5 -7.5q-11 -11 -32 -11q-17 0 -29 13t-12 32q0 18 13.5 30.5t30.5 12.5q25 0 43.5 -22t18.5 -54q0 -50 -42.5 -87.5t-101.5 -37.5zM202 358q-59 0 -101.5 37.5t-42.5 87.5q0 32 18.5 54t43.5 22q17 0 30.5 -12.5t13.5 -30.5q0 -19 -12 -32t-29 -13
q-21 0 -32 11q-9 9 -15.5 7.5t-6.5 -10.5q0 -31 28.5 -53.5t77.5 -22.5q65 0 122 55t57 118q0 48 -24.5 77t-56.5 29q-9 0 -10.5 -6.5t7.5 -15.5q11 -11 11 -32q0 -17 -13 -29t-32 -12q-18 0 -30.5 13.5t-12.5 30.5q0 25 22 43.5t54 18.5q50 0 87.5 -42.5t37.5 -101.5
q0 -80 -55.5 -135.5t-136.5 -55.5zM552 -9q-50 0 -87.5 42.5t-37.5 101.5q0 80 55.5 135.5t136.5 55.5q59 0 101.5 -37.5t42.5 -87.5q0 -32 -18.5 -54t-43.5 -22q-17 0 -30.5 12.5t-13.5 30.5q0 19 12 32t29 13q21 0 32 -11q9 -9 15.5 -7.5t6.5 10.5q0 31 -28.5 53.5
t-77.5 22.5q-65 0 -122 -55t-57 -118q0 -48 24.5 -77t56.5 -29q9 0 10.5 6.5t-7.5 15.5q-11 11 -11 32q0 17 13 29t32 12q18 0 30.5 -13.5t12.5 -30.5q0 -25 -22 -43.5t-54 -18.5zM269 -9q-32 0 -54 18.5t-22 43.5q0 17 12.5 30.5t30.5 13.5q19 0 32 -12t13 -29
q0 -21 -11 -32q-9 -9 -7.5 -15.5t10.5 -6.5q32 0 56.5 29t24.5 77q0 63 -57 118t-122 55q-49 0 -77.5 -22.5t-28.5 -53.5q0 -9 6.5 -10.5t15.5 7.5q11 11 32 11q17 0 29 -13t12 -32q0 -18 -13.5 -30.5t-30.5 -12.5q-25 0 -43.5 22t-18.5 54q0 50 42.5 87.5t101.5 37.5
q81 0 136.5 -55.5t55.5 -135.5q0 -59 -37.5 -101.5t-87.5 -42.5z" />
    <glyph glyph-name="mu" unicode="&#x3bc;" horiz-adv-x="825" 
d="M619 358q-81 0 -136.5 55.5t-55.5 135.5q0 59 37.5 101.5t87.5 42.5q32 0 54 -18.5t22 -43.5q0 -17 -12.5 -30.5t-30.5 -13.5q-19 0 -32 12t-13 29q0 21 11 32q9 9 7.5 15.5t-10.5 6.5q-32 0 -56.5 -29t-24.5 -77q0 -63 57 -118t122 -55q49 0 77.5 22.5t28.5 53.5
q0 9 -6.5 10.5t-15.5 -7.5q-11 -11 -32 -11q-17 0 -29 13t-12 32q0 18 13.5 30.5t30.5 12.5q25 0 43.5 -22t18.5 -54q0 -50 -42.5 -87.5t-101.5 -37.5zM202 358q-59 0 -101.5 37.5t-42.5 87.5q0 32 18.5 54t43.5 22q17 0 30.5 -12.5t13.5 -30.5q0 -19 -12 -32t-29 -13
q-21 0 -32 11q-9 9 -15.5 7.5t-6.5 -10.5q0 -31 28.5 -53.5t77.5 -22.5q65 0 122 55t57 118q0 48 -24.5 77t-56.5 29q-9 0 -10.5 -6.5t7.5 -15.5q11 -11 11 -32q0 -17 -13 -29t-32 -12q-18 0 -30.5 13.5t-12.5 30.5q0 25 22 43.5t54 18.5q50 0 87.5 -42.5t37.5 -101.5
q0 -80 -55.5 -135.5t-136.5 -55.5zM552 -9q-50 0 -87.5 42.5t-37.5 101.5q0 80 55.5 135.5t136.5 55.5q59 0 101.5 -37.5t42.5 -87.5q0 -32 -18.5 -54t-43.5 -22q-17 0 -30.5 12.5t-13.5 30.5q0 19 12 32t29 13q21 0 32 -11q9 -9 15.5 -7.5t6.5 10.5q0 31 -28.5 53.5
t-77.5 22.5q-65 0 -122 -55t-57 -118q0 -48 24.5 -77t56.5 -29q9 0 10.5 6.5t-7.5 15.5q-11 11 -11 32q0 17 13 29t32 12q18 0 30.5 -13.5t12.5 -30.5q0 -25 -22 -43.5t-54 -18.5zM269 -9q-32 0 -54 18.5t-22 43.5q0 17 12.5 30.5t30.5 13.5q19 0 32 -12t13 -29
q0 -21 -11 -32q-9 -9 -7.5 -15.5t10.5 -6.5q32 0 56.5 29t24.5 77q0 63 -57 118t-122 55q-49 0 -77.5 -22.5t-28.5 -53.5q0 -9 6.5 -10.5t15.5 7.5q11 11 32 11q17 0 29 -13t12 -32q0 -18 -13.5 -30.5t-30.5 -12.5q-25 0 -43.5 22t-18.5 54q0 50 42.5 87.5t101.5 37.5
q81 0 136.5 -55.5t55.5 -135.5q0 -59 -37.5 -101.5t-87.5 -42.5z" />
    <glyph glyph-name="paragraph" unicode="&#xb6;" horiz-adv-x="498" 
d="M124 -5l80 322q-127 26 -126 143q1 86 61.5 136.5t155.5 50.5h223l-4 -15h-90l-159 -637h-16l157 637h-107l-159 -637h-16z" />
    <glyph glyph-name="periodcentered" unicode="&#xb7;" horiz-adv-x="225" 
d="M88 192q-20 0 -34 14t-14 34t14 34t34 14t34 -14t14 -34t-14 -34t-34 -14z" />
    <glyph glyph-name="periodcentered" unicode="&#x2219;" horiz-adv-x="225" 
d="M88 192q-20 0 -34 14t-14 34t14 34t34 14t34 -14t14 -34t-14 -34t-34 -14z" />
    <glyph glyph-name="cedilla" unicode="&#xb8;" 
d="M143 -203q-50 0 -104 43l9 12q41 -32 90 -32q33 0 48.5 19.5t15.5 44.5q0 28 -12 39.5t-26 11.5q-11 0 -23 -2l24 67h15l-18 -50q10 2 22 2q35 0 58 -20t22 -48q-1 -40 -37 -63.5t-84 -23.5z" />
    <glyph glyph-name="onesuperior" unicode="&#xb9;" horiz-adv-x="333" 
d="M61 295l4 15h17q20 0 28.5 6.5t13.5 23.5l60 231q4 17 -1 23.5t-24 7.5h-18l2 15q73 6 103 46h13l-80 -323q-5 -17 0 -23.5t23 -6.5h16l-3 -15h-154z" />
    <glyph glyph-name="ordmasculine" unicode="&#xba;" horiz-adv-x="322" 
d="M161 333q-44 0 -68 34t-23 89q1 76 51.5 137.5t110.5 61.5q45 0 68.5 -34.5t22.5 -89.5q-1 -76 -51.5 -137t-110.5 -61zM30 250l4 16h226l-3 -16h-227zM156 343q45 -2 79.5 71t35.5 154q0 74 -34 77q-43 3 -76.5 -70.5t-36.5 -156.5q-3 -73 32 -75z" />
    <glyph glyph-name="guillemotright" unicode="&#xbb;" horiz-adv-x="448" 
d="M119 0l188 230l-75 219h13l156 -225l-269 -224h-13zM-46 0l188 230l-75 219h13l156 -225l-269 -224h-13z" />
    <glyph glyph-name="onequarter" unicode="&#xbc;" horiz-adv-x="600" 
d="M37 -6l499 659h25l-501 -659h-23zM347 0l4 15l18 1q19 1 25.5 6t11.5 24l10 47h-148l4 15l231 255l34 -1l-62 -250h47l-5 -19h-47l-10 -48q-5 -18 -1 -22.5t23 -6.5l13 -1l-3 -15h-145zM298 112h123l47 189zM31 295l4 15h17q20 0 28.5 6.5t13.5 23.5l60 231q4 17 -1 23.5
t-24 7.5h-18l2 15q73 6 103 46h13l-80 -323q-5 -17 0 -23.5t23 -6.5h16l-3 -15h-154z" />
    <glyph glyph-name="onehalf" unicode="&#xbd;" horiz-adv-x="664" 
d="M31 295l4 15h17q20 0 28.5 6.5t13.5 23.5l60 231q4 17 -1 23.5t-24 7.5h-18l2 15q73 6 103 46h13l-80 -323q-5 -17 0 -23.5t23 -6.5h16l-3 -15h-154zM37 -6l499 659h25l-501 -659h-23zM312 0l3 16q28 48 54.5 78.5t81.5 73.5q45 36 63 63.5t19 60.5q1 25 -12 42t-37 17
q-31 0 -52 -15.5t-21 -38.5q0 -5 6 -4q17 2 28 -5.5t11 -22.5q0 -17 -11 -26.5t-26 -9.5t-26 11t-11 30q1 45 34 72t72 27q44 0 73.5 -24.5t28.5 -59.5q-1 -38 -26.5 -65t-94.5 -72q-44 -29 -65.5 -48.5t-42.5 -50.5h108q26 0 40 14.5t28 49.5l10 -1l-31 -112h-204z" />
    <glyph glyph-name="threequarters" unicode="&#xbe;" horiz-adv-x="641" 
d="M149 285q-38 0 -63.5 23.5t-24.5 55.5q1 30 15.5 45t35.5 15q15 0 23 -9.5t7 -24.5q-1 -18 -16.5 -26.5t-38.5 -3.5q-7 1 -7 -3q-1 -21 17.5 -38t52.5 -17q36 0 57 29.5t22 76.5q1 28 -12.5 45.5t-38.5 17.5q-6 0 -12.5 -1t-10.5 -1q-14 0 -14 11q0 12 20 12q3 0 10 -1.5
t13 -1.5q76 0 81 97q2 28 -11.5 46.5t-37.5 18.5q-28 0 -46.5 -12t-18.5 -26q0 -5 6 -5q15 0 24 -9t9 -23q0 -16 -10 -25t-25 -9q-13 0 -24 10.5t-11 26.5q1 41 31.5 65t72.5 24q40 0 69.5 -26.5t28.5 -64.5q-1 -39 -37.5 -66t-85.5 -30v-2q37 -3 63 -27t25 -57
q-1 -47 -44.5 -78.5t-93.5 -31.5zM91 -6l499 659h25l-501 -659h-23zM391 0l4 15l18 1q19 1 25.5 6t11.5 24l10 47h-148l4 15l231 255l34 -1l-62 -250h47l-5 -19h-47l-10 -48q-5 -18 -1 -22.5t23 -6.5l13 -1l-3 -15h-145zM342 112h123l47 189z" />
    <glyph glyph-name="questiondown" unicode="&#xbf;" horiz-adv-x="405" 
d="M281 487l-4 -18q-26 -121 -121 -204q-72 -64 -73 -158q-1 -46 19.5 -73.5t62.5 -27.5t80 22t46 46q2 7 1 8t-7 0t-10 -1q-17 0 -30 13.5t-13 32.5q0 20 13.5 34t34.5 14q20 0 33.5 -15t13.5 -38q-1 -51 -50 -91t-112 -40q-78 0 -122 34t-43 98q0 17 3.5 31.5t13 29.5
l15 23.5t22.5 23.5t21.5 18.5l26 19.5t22.5 17q34 25 55.5 45t45.5 57.5t38 84.5l4 14h14zM298 693q22 0 37.5 -15.5t15.5 -37.5t-15.5 -37.5t-37.5 -15.5t-37 15.5t-15 37.5t15 37.5t37 15.5z" />
    <glyph glyph-name="Agrave" unicode="&#xc0;" horiz-adv-x="631" 
d="M-87 0l4 15q43 7 64 24.5t55 73.5l357 588h24l62 -616q4 -41 16.5 -54t56.5 -16l-4 -15h-266l4 15h29q49 0 63.5 23.5t9.5 80.5l-10 116h-245l-49 -85q-41 -71 -41 -100q0 -35 46 -35h19l-4 -15h-191zM142 250h234l-31 343zM439 736l-132 71q-37 20 -37 50q0 15 11 25.5
t27 10.5q26 0 53 -36l85 -114z" />
    <glyph glyph-name="Aacute" unicode="&#xc1;" horiz-adv-x="631" 
d="M-87 0l4 15q43 7 64 24.5t55 73.5l357 588h24l62 -616q4 -41 16.5 -54t56.5 -16l-4 -15h-266l4 15h29q49 0 63.5 23.5t9.5 80.5l-10 116h-245l-49 -85q-41 -71 -41 -100q0 -35 46 -35h19l-4 -15h-191zM142 250h234l-31 343zM366 739l-4 6l108 119q32 35 60 35
q16 0 24.5 -10.5t8.5 -23.5q0 -34 -50 -57z" />
    <glyph glyph-name="Acircumflex" unicode="&#xc2;" horiz-adv-x="631" 
d="M-87 0l4 15q43 7 64 24.5t55 73.5l357 588h24l62 -616q4 -41 16.5 -54t56.5 -16l-4 -15h-266l4 15h29q49 0 63.5 23.5t9.5 80.5l-10 116h-245l-49 -85q-41 -71 -41 -100q0 -35 46 -35h19l-4 -15h-191zM142 250h234l-31 343zM283 713l-6 5l129 147h52l54 -145l-6 -5
l-88 81z" />
    <glyph glyph-name="Atilde" unicode="&#xc3;" horiz-adv-x="631" 
d="M-87 0l4 15q43 7 64 24.5t55 73.5l357 588h24l62 -616q4 -41 16.5 -54t56.5 -16l-4 -15h-266l4 15h29q49 0 63.5 23.5t9.5 80.5l-10 116h-245l-49 -85q-41 -71 -41 -100q0 -35 46 -35h19l-4 -15h-191zM142 250h234l-31 343zM274 728l-7 4q30 52 55 73t61 18
q22 -2 58 -15.5t48 -14.5q36 -3 63 37l7 -4q-30 -52 -55 -73t-61 -18q-22 2 -58 15.5t-48 14.5q-36 3 -63 -37z" />
    <glyph glyph-name="Adieresis" unicode="&#xc4;" horiz-adv-x="631" 
d="M-87 0l4 15q43 7 64 24.5t55 73.5l357 588h24l62 -616q4 -41 16.5 -54t56.5 -16l-4 -15h-266l4 15h29q49 0 63.5 23.5t9.5 80.5l-10 116h-245l-49 -85q-41 -71 -41 -100q0 -35 46 -35h19l-4 -15h-191zM142 250h234l-31 343zM484 741q-21 0 -36 15t-15 36t15 36t36 15
t36 -15t15 -36t-15 -36t-36 -15zM327 741q-20 0 -35.5 15t-15.5 36t15.5 36t35.5 15t35.5 -15t15.5 -36t-15.5 -36t-35.5 -15z" />
    <glyph glyph-name="Aring" unicode="&#xc5;" horiz-adv-x="631" 
d="M-87 0l4 15q43 7 64 24.5t55 73.5l348 573q-27 8 -43.5 30.5t-16.5 51.5q0 35 24.5 60t59.5 25t59.5 -25t24.5 -60q0 -33 -21 -56.5t-52 -28.5l60 -598q4 -41 16.5 -54t56.5 -16l-4 -15h-266l4 15h29q49 0 63.5 23.5t9.5 80.5l-10 116h-245l-49 -85q-41 -71 -41 -100
q0 -35 46 -35h19l-4 -15h-191zM142 250h234l-31 343zM408 702q28 0 43 18.5t15 47.5q0 31 -15 48.5t-43 17.5q-27 0 -42.5 -18t-15.5 -48q0 -29 15.5 -47.5t42.5 -18.5z" />
    <glyph glyph-name="AE" unicode="&#xc6;" horiz-adv-x="937" 
d="M-73 0l3 15q14 1 26.5 5l21 6.5t20.5 12t17 12.5t18 18l16.5 19t19.5 24l20 25l321 386q79 96 79 120q0 26 -61 26h-25l4 15h539l-53 -250h-14q16 131 -13.5 182.5t-132.5 51.5h-44q-66 0 -80 -60l-60 -246h36q79 0 118.5 34t62.5 112h13l-78 -315h-13q18 87 -10.5 120.5
t-95.5 33.5h-36l-68 -271q-15 -60 49 -60h57q99 0 159 62.5t113 191.5h15l-84 -270h-503l4 15h29q34 0 52 14.5t26 46.5l38 154h-243l-47 -57q-42 -52 -55 -75.5t-13 -44.5q0 -35 48 -37l19 -1l-4 -15h-211zM206 250h232l97 391h-7z" />
    <glyph glyph-name="Ccedilla" unicode="&#xc7;" horiz-adv-x="585" 
d="M213 -204q-50 0 -104 43l9 12q41 -32 90 -32q33 0 48.5 19.5t15.5 44.5q0 28 -12 39.5t-26 11.5q-11 0 -23 -2l18 52q-93 2 -149 76.5t-56 194.5q0 52 10 103q28 143 126.5 239.5t218.5 96.5q68 0 125 -46q16 -13 36 -13q27 0 54 53h13l-59 -272h-15q11 124 -37 193
t-113 69q-91 0 -158 -93.5t-95 -232.5q-19 -98 -18 -170q2 -179 131 -179q173 0 257 240h20q-85 -252 -276 -259l-12 -35q10 2 22 2q35 0 58 -20t22 -48q-1 -40 -37 -63.5t-84 -23.5z" />
    <glyph glyph-name="Egrave" unicode="&#xc8;" horiz-adv-x="579" 
d="M-74 0l4 15h29q34 0 52 14.5t26 46.5l133 532q8 31 -3 46t-43 15h-30l4 15h490l-53 -250h-14q16 131 -13.5 182.5t-132.5 51.5h-42q-66 0 -80 -60l-61 -246h35q79 0 118.5 34t62.5 112h13l-78 -315h-13q18 87 -10.5 120.5t-95.5 33.5h-36l-68 -271q-15 -60 49 -60h57
q99 0 159 62.5t113 191.5h15l-84 -270h-503zM432 736l-132 71q-37 20 -37 50q0 15 11 25.5t27 10.5q26 0 53 -36l85 -114z" />
    <glyph glyph-name="Eacute" unicode="&#xc9;" horiz-adv-x="579" 
d="M-74 0l4 15h29q34 0 52 14.5t26 46.5l133 532q8 31 -3 46t-43 15h-30l4 15h490l-53 -250h-14q16 131 -13.5 182.5t-132.5 51.5h-42q-66 0 -80 -60l-61 -246h35q79 0 118.5 34t62.5 112h13l-78 -315h-13q18 87 -10.5 120.5t-95.5 33.5h-36l-68 -271q-15 -60 49 -60h57
q99 0 159 62.5t113 191.5h15l-84 -270h-503zM327 734l-4 6l108 119q32 35 60 35q16 0 24.5 -10.5t8.5 -23.5q0 -34 -50 -57z" />
    <glyph glyph-name="Ecircumflex" unicode="&#xca;" horiz-adv-x="579" 
d="M-74 0l4 15h29q34 0 52 14.5t26 46.5l133 532q8 31 -3 46t-43 15h-30l4 15h490l-53 -250h-14q16 131 -13.5 182.5t-132.5 51.5h-42q-66 0 -80 -60l-61 -246h35q79 0 118.5 34t62.5 112h13l-78 -315h-13q18 87 -10.5 120.5t-95.5 33.5h-36l-68 -271q-15 -60 49 -60h57
q99 0 159 62.5t113 191.5h15l-84 -270h-503zM270 712l-6 5l129 147h52l54 -145l-6 -5l-88 81z" />
    <glyph glyph-name="Edieresis" unicode="&#xcb;" horiz-adv-x="579" 
d="M-74 0l4 15h29q34 0 52 14.5t26 46.5l133 532q8 31 -3 46t-43 15h-30l4 15h490l-53 -250h-14q16 131 -13.5 182.5t-132.5 51.5h-42q-66 0 -80 -60l-61 -246h35q79 0 118.5 34t62.5 112h13l-78 -315h-13q18 87 -10.5 120.5t-95.5 33.5h-36l-68 -271q-15 -60 49 -60h57
q99 0 159 62.5t113 191.5h15l-84 -270h-503zM459 741q-21 0 -36 15t-15 36t15 36t36 15t36 -15t15 -36t-15 -36t-36 -15zM302 741q-20 0 -35.5 15t-15.5 36t15.5 36t35.5 15t35.5 -15t15.5 -36t-15.5 -36t-35.5 -15z" />
    <glyph glyph-name="Igrave" unicode="&#xcc;" horiz-adv-x="296" 
d="M-64 0l4 15h22q35 0 52 12.5t26 47.5l133 532q9 37 -1.5 49.5t-45.5 12.5h-23l4 15h253l-3 -15h-22q-35 0 -52.5 -13t-26.5 -49l-133 -532q-9 -35 2.5 -47.5t45.5 -12.5h22l-4 -15h-253zM292 739l-132 71q-37 20 -37 50q0 15 11 25.5t27 10.5q26 0 53 -36l85 -114z" />
    <glyph glyph-name="Iacute" unicode="&#xcd;" horiz-adv-x="296" 
d="M-64 0l4 15h22q35 0 52 12.5t26 47.5l133 532q9 37 -1.5 49.5t-45.5 12.5h-23l4 15h253l-3 -15h-22q-35 0 -52.5 -13t-26.5 -49l-133 -532q-9 -35 2.5 -47.5t45.5 -12.5h22l-4 -15h-253zM206 739l-4 6l108 119q32 35 60 35q16 0 24.5 -10.5t8.5 -23.5q0 -34 -50 -57z" />
    <glyph glyph-name="Icircumflex" unicode="&#xce;" horiz-adv-x="296" 
d="M-64 0l4 15h22q35 0 52 12.5t26 47.5l133 532q9 37 -1.5 49.5t-45.5 12.5h-23l4 15h253l-3 -15h-22q-35 0 -52.5 -13t-26.5 -49l-133 -532q-9 -35 2.5 -47.5t45.5 -12.5h22l-4 -15h-253zM126 712l-6 5l129 147h52l54 -145l-6 -5l-88 81z" />
    <glyph glyph-name="Idieresis" unicode="&#xcf;" horiz-adv-x="296" 
d="M-64 0l4 15h22q35 0 52 12.5t26 47.5l133 532q9 37 -1.5 49.5t-45.5 12.5h-23l4 15h253l-3 -15h-22q-35 0 -52.5 -13t-26.5 -49l-133 -532q-9 -35 2.5 -47.5t45.5 -12.5h22l-4 -15h-253zM325 742q-21 0 -36 15t-15 36t15 36t36 15t36 -15t15 -36t-15 -36t-36 -15z
M168 742q-20 0 -35.5 15t-15.5 36t15.5 36t35.5 15t35.5 -15t15.5 -36t-15.5 -36t-35.5 -15z" />
    <glyph glyph-name="Eth" unicode="&#xd0;" horiz-adv-x="613" 
d="M-74 0l4 15h29q35 0 53 14t26 48l62 251h-81l4 15h81l66 264q16 62 -49 62h-29l4 15h249q47 0 88.5 -13.5t78.5 -43t58.5 -83.5t21.5 -127q0 -96 -37.5 -177t-97.5 -132t-131 -79.5t-142 -28.5h-258zM169 16h23q135 0 223.5 125t88.5 320q0 101 -42.5 154t-110.5 53h-21
q-63 0 -78 -61l-66 -264h137l-4 -15h-137l-62 -251q-8 -32 3.5 -46.5t45.5 -14.5z" />
    <glyph glyph-name="Ntilde" unicode="&#xd1;" horiz-adv-x="629" 
d="M431 -11l-243 607l-114 -458q-18 -67 -4 -95t70 -28h4l-4 -15h-222l4 15h13q49 0 75.5 28t43.5 95l120 489q-24 41 -94 42l4 15h165l210 -538l99 399q8 33 8 56t-3.5 35t-16 19.5t-20 9t-24.5 3.5q-5 1 -8 1h-3l4 15h221l-4 -15h-7q-57 0 -83 -27t-43 -97l-138 -556h-10z
M297 727l-7 4q30 52 55 73t61 18q22 -2 58 -15.5t48 -14.5q36 -3 63 37l7 -4q-30 -52 -55 -73t-61 -18q-22 2 -58 15.5t-48 14.5q-36 3 -63 -37z" />
    <glyph glyph-name="Ograve" unicode="&#xd2;" horiz-adv-x="602" 
d="M231 -16q-90 0 -149 80t-59 209q0 72 26 144q42 119 132 201t190 82q99 0 155.5 -78t56.5 -195q0 -70 -20 -138q-38 -131 -133 -218t-199 -87zM229 0q84 0 148 87.5t95 224.5q22 101 22 199q0 173 -119 173q-86 0 -149 -90t-95 -220q-24 -98 -24 -182q0 -89 31 -140.5
t91 -51.5zM436 740l-132 71q-37 20 -37 50q0 15 11 25.5t27 10.5q26 0 53 -36l85 -114z" />
    <glyph glyph-name="Oacute" unicode="&#xd3;" horiz-adv-x="602" 
d="M231 -16q-90 0 -149 80t-59 209q0 72 26 144q42 119 132 201t190 82q99 0 155.5 -78t56.5 -195q0 -70 -20 -138q-38 -131 -133 -218t-199 -87zM229 0q84 0 148 87.5t95 224.5q22 101 22 199q0 173 -119 173q-86 0 -149 -90t-95 -220q-24 -98 -24 -182q0 -89 31 -140.5
t91 -51.5zM361 739l-4 6l108 119q32 35 60 35q16 0 24.5 -10.5t8.5 -23.5q0 -34 -50 -57z" />
    <glyph glyph-name="Ocircumflex" unicode="&#xd4;" horiz-adv-x="602" 
d="M231 -16q-90 0 -149 80t-59 209q0 72 26 144q42 119 132 201t190 82q99 0 155.5 -78t56.5 -195q0 -70 -20 -138q-38 -131 -133 -218t-199 -87zM229 0q84 0 148 87.5t95 224.5q22 101 22 199q0 173 -119 173q-86 0 -149 -90t-95 -220q-24 -98 -24 -182q0 -89 31 -140.5
t91 -51.5zM259 713l-6 5l129 147h52l54 -145l-6 -5l-88 81z" />
    <glyph glyph-name="Otilde" unicode="&#xd5;" horiz-adv-x="602" 
d="M231 -16q-90 0 -149 80t-59 209q0 72 26 144q42 119 132 201t190 82q99 0 155.5 -78t56.5 -195q0 -70 -20 -138q-38 -131 -133 -218t-199 -87zM229 0q84 0 148 87.5t95 224.5q22 101 22 199q0 173 -119 173q-86 0 -149 -90t-95 -220q-24 -98 -24 -182q0 -89 31 -140.5
t91 -51.5zM268 729l-7 4q30 52 55 73t61 18q22 -2 58 -15.5t48 -14.5q36 -3 63 37l7 -4q-30 -52 -55 -73t-61 -18q-22 2 -58 15.5t-48 14.5q-36 3 -63 -37z" />
    <glyph glyph-name="Odieresis" unicode="&#xd6;" horiz-adv-x="602" 
d="M231 -16q-90 0 -149 80t-59 209q0 72 26 144q42 119 132 201t190 82q99 0 155.5 -78t56.5 -195q0 -70 -20 -138q-38 -131 -133 -218t-199 -87zM229 0q84 0 148 87.5t95 224.5q22 101 22 199q0 173 -119 173q-86 0 -149 -90t-95 -220q-24 -98 -24 -182q0 -89 31 -140.5
t91 -51.5zM463 743q-21 0 -36 15t-15 36t15 36t36 15t36 -15t15 -36t-15 -36t-36 -15zM306 743q-20 0 -35.5 15t-15.5 36t15.5 36t35.5 15t35.5 -15t15.5 -36t-15.5 -36t-35.5 -15z" />
    <glyph glyph-name="multiply" unicode="&#xd7;" horiz-adv-x="470" 
d="M62 137l-14 15l175 173l-167 167l15 15l166 -167l169 169l14 -14l-168 -169l169 -169l-15 -15l-169 169z" />
    <glyph glyph-name="Oslash" unicode="&#xd8;" horiz-adv-x="602" 
d="M-30 -39l100 121q-47 79 -47 191q0 72 26 144q42 119 132 201t190 82q93 0 151 -72l78 95h18l-88 -106q53 -74 53 -190q0 -70 -20 -138q-38 -131 -133 -218t-199 -87q-95 0 -153 86l-90 -109h-18zM111 132l376 454q-22 98 -112 98q-86 0 -149 -90t-95 -220
q-24 -98 -24 -182q0 -35 4 -60zM490 569l-376 -455q24 -114 115 -114q84 0 148 87.5t95 224.5q22 101 22 199q0 34 -4 58z" />
    <glyph glyph-name="Ugrave" unicode="&#xd9;" horiz-adv-x="630" 
d="M252 -13q-98 0 -147 43.5t-49 120.5q0 37 11 84l93 374q14 60 -53 60h-20l4 15h263l-4 -15h-28q-65 0 -79 -60l-96 -386q-12 -48 -12 -88q0 -126 129 -126q86 0 137.5 52.5t80.5 171.5l76 311q18 64 3.5 94.5t-69.5 30.5h-2l4 15h216l-4 -15h-4q-52 0 -79.5 -28.5
t-44.5 -96.5l-79 -318q-31 -126 -88.5 -182.5t-158.5 -56.5zM477 739l-132 71q-37 20 -37 50q0 15 11 25.5t27 10.5q26 0 53 -36l85 -114z" />
    <glyph glyph-name="Uacute" unicode="&#xda;" horiz-adv-x="630" 
d="M252 -13q-98 0 -147 43.5t-49 120.5q0 37 11 84l93 374q14 60 -53 60h-20l4 15h263l-4 -15h-28q-65 0 -79 -60l-96 -386q-12 -48 -12 -88q0 -126 129 -126q86 0 137.5 52.5t80.5 171.5l76 311q18 64 3.5 94.5t-69.5 30.5h-2l4 15h216l-4 -15h-4q-52 0 -79.5 -28.5
t-44.5 -96.5l-79 -318q-31 -126 -88.5 -182.5t-158.5 -56.5zM380 739l-4 6l108 119q32 35 60 35q16 0 24.5 -10.5t8.5 -23.5q0 -34 -50 -57z" />
    <glyph glyph-name="Ucircumflex" unicode="&#xdb;" horiz-adv-x="630" 
d="M252 -13q-98 0 -147 43.5t-49 120.5q0 37 11 84l93 374q14 60 -53 60h-20l4 15h263l-4 -15h-28q-65 0 -79 -60l-96 -386q-12 -48 -12 -88q0 -126 129 -126q86 0 137.5 52.5t80.5 171.5l76 311q18 64 3.5 94.5t-69.5 30.5h-2l4 15h216l-4 -15h-4q-52 0 -79.5 -28.5
t-44.5 -96.5l-79 -318q-31 -126 -88.5 -182.5t-158.5 -56.5zM307 712l-6 5l129 147h52l54 -145l-6 -5l-88 81z" />
    <glyph glyph-name="Udieresis" unicode="&#xdc;" horiz-adv-x="630" 
d="M252 -13q-98 0 -147 43.5t-49 120.5q0 37 11 84l93 374q14 60 -53 60h-20l4 15h263l-4 -15h-28q-65 0 -79 -60l-96 -386q-12 -48 -12 -88q0 -126 129 -126q86 0 137.5 52.5t80.5 171.5l76 311q18 64 3.5 94.5t-69.5 30.5h-2l4 15h216l-4 -15h-4q-52 0 -79.5 -28.5
t-44.5 -96.5l-79 -318q-31 -126 -88.5 -182.5t-158.5 -56.5zM518 742q-21 0 -36 15t-15 36t15 36t36 15t36 -15t15 -36t-15 -36t-36 -15zM361 742q-20 0 -35.5 15t-15.5 36t15.5 36t35.5 15t35.5 -15t15.5 -36t-15.5 -36t-35.5 -15z" />
    <glyph glyph-name="Yacute" unicode="&#xdd;" horiz-adv-x="582" 
d="M84 0l4 15h38q33 0 51 17t27 54l48 193l-97 328q-8 29 -23.5 45.5t-50.5 16.5h-4l4 15h246l-4 -15h-25q-64 0 -48 -61l80 -305l187 254q46 63 46 84q0 28 -56 28h-15l4 15h177l-4 -15q-38 -6 -61 -27t-74 -91l-198 -267l-49 -198q-10 -39 -0.5 -55t45.5 -16h41l-4 -15
h-285zM374 740l-4 6l108 119q32 35 60 35q16 0 24.5 -10.5t8.5 -23.5q0 -34 -50 -57z" />
    <glyph glyph-name="Thorn" unicode="&#xde;" horiz-adv-x="544" 
d="M-75 0l4 15h29q34 0 52.5 14.5t26.5 46.5l133 531q8 32 -3.5 47t-47.5 15h-24l4 15h263l-4 -15h-26q-34 0 -52.5 -14.5t-26.5 -46.5l-15 -60h58q113 0 172.5 -47t51.5 -145q-8 -91 -98.5 -136.5t-221.5 -45.5h-55l-25 -98q-15 -61 54 -61h39l-4 -15h-284zM148 189h59
q99 0 159 51.5t60 154.5q0 72 -33.5 105t-85.5 33h-7q-65 0 -80 -60z" />
    <glyph glyph-name="germandbls" unicode="&#xdf;" horiz-adv-x="480" 
d="M-111 -207q-29 0 -43 13.5t-14 33.5t12.5 33.5t29.5 13.5q19 0 29.5 -10.5t10.5 -27.5q0 -6 -1.5 -12t-3 -10.5t-2.5 -8t0.5 -5.5t6.5 -2q12 0 30 42t31 99l106 451h-62l4 15h62l14 59q22 96 82 159t128 63q53 0 82 -28t27 -77q-2 -62 -78 -140q-12 -13 -38 -33.5
t-37.5 -35.5t-11.5 -33q0 -15 11.5 -27.5t40 -31t36.5 -24.5q37 -28 57 -56.5t19 -67.5q-1 -74 -53 -115t-112 -41q-59 0 -86 27t-26 65q1 25 16.5 41t36.5 16q17 0 27 -10.5t10 -25.5q0 -31 -28 -43q-5 -2 -11 -3.5l-10 -2.5t-7.5 -1.5t-5 -2t-1.5 -4.5q2 -18 24.5 -31.5
t56.5 -13.5q51 0 83.5 33.5t31.5 76.5q-1 46 -71 98q-3 2 -13 9.5t-13 10l-11.5 9.5l-11.5 9.5t-9.5 9t-8.5 11t-6 11t-5.5 12t-2.5 12.5t-1 15q0 26 15.5 48.5t45 54t47.5 56.5q32 47 34 127q1 41 -13 62t-35 21q-32 0 -56.5 -25.5t-37.5 -60t-27 -89.5l-81 -330
q-52 -211 -101 -299.5t-112 -88.5z" />
    <glyph glyph-name="agrave" unicode="&#xe0;" horiz-adv-x="467" 
d="M91 -6q-47 0 -76 37.5t-29 106.5q0 110 68 200.5t146 90.5q74 0 97 -101h3q57 63 76 101h18l-88 -303q-14 -48 -14 -64q0 -29 20 -29q33 0 91 97l11 -8q-65 -128 -134 -128q-29 0 -41.5 15.5t-12.5 47.5q0 25 6 43h-2q-64 -106 -139 -106zM109 18q37 0 79 52t67 124
q21 60 21 109q0 50 -18 78t-47 28q-49 0 -85.5 -57t-52.5 -137q-11 -56 -11 -115q0 -82 47 -82zM274 483l-132 71q-37 20 -37 50q0 15 11 25.5t27 10.5q26 0 53 -36l85 -114z" />
    <glyph glyph-name="aacute" unicode="&#xe1;" horiz-adv-x="467" 
d="M91 -6q-47 0 -76 37.5t-29 106.5q0 110 68 200.5t146 90.5q74 0 97 -101h3q57 63 76 101h18l-88 -303q-14 -48 -14 -64q0 -29 20 -29q33 0 91 97l11 -8q-65 -128 -134 -128q-29 0 -41.5 15.5t-12.5 47.5q0 25 6 43h-2q-64 -106 -139 -106zM109 18q37 0 79 52t67 124
q21 60 21 109q0 50 -18 78t-47 28q-49 0 -85.5 -57t-52.5 -137q-11 -56 -11 -115q0 -82 47 -82zM214 482l-4 6l108 119q32 35 60 35q16 0 24.5 -10.5t8.5 -23.5q0 -34 -50 -57z" />
    <glyph glyph-name="acircumflex" unicode="&#xe2;" horiz-adv-x="467" 
d="M91 -6q-47 0 -76 37.5t-29 106.5q0 110 68 200.5t146 90.5q74 0 97 -101h3q57 63 76 101h18l-88 -303q-14 -48 -14 -64q0 -29 20 -29q33 0 91 97l11 -8q-65 -128 -134 -128q-29 0 -41.5 15.5t-12.5 47.5q0 25 6 43h-2q-64 -106 -139 -106zM109 18q37 0 79 52t67 124
q21 60 21 109q0 50 -18 78t-47 28q-49 0 -85.5 -57t-52.5 -137q-11 -56 -11 -115q0 -82 47 -82zM110 455l-6 5l129 147h52l54 -145l-6 -5l-88 81z" />
    <glyph glyph-name="atilde" unicode="&#xe3;" horiz-adv-x="467" 
d="M91 -6q-47 0 -76 37.5t-29 106.5q0 110 68 200.5t146 90.5q74 0 97 -101h3q57 63 76 101h18l-88 -303q-14 -48 -14 -64q0 -29 20 -29q33 0 91 97l11 -8q-65 -128 -134 -128q-29 0 -41.5 15.5t-12.5 47.5q0 25 6 43h-2q-64 -106 -139 -106zM109 18q37 0 79 52t67 124
q21 60 21 109q0 50 -18 78t-47 28q-49 0 -85.5 -57t-52.5 -137q-11 -56 -11 -115q0 -82 47 -82zM104 475l-7 4q30 52 55 73t61 18q22 -2 58 -15.5t48 -14.5q36 -3 63 37l7 -4q-30 -52 -55 -73t-61 -18q-22 2 -58 15.5t-48 14.5q-36 3 -63 -37z" />
    <glyph glyph-name="adieresis" unicode="&#xe4;" horiz-adv-x="467" 
d="M91 -6q-47 0 -76 37.5t-29 106.5q0 110 68 200.5t146 90.5q74 0 97 -101h3q57 63 76 101h18l-88 -303q-14 -48 -14 -64q0 -29 20 -29q33 0 91 97l11 -8q-65 -128 -134 -128q-29 0 -41.5 15.5t-12.5 47.5q0 25 6 43h-2q-64 -106 -139 -106zM109 18q37 0 79 52t67 124
q21 60 21 109q0 50 -18 78t-47 28q-49 0 -85.5 -57t-52.5 -137q-11 -56 -11 -115q0 -82 47 -82zM315 488q-21 0 -36 15t-15 36t15 36t36 15t36 -15t15 -36t-15 -36t-36 -15zM158 488q-20 0 -35.5 15t-15.5 36t15.5 36t35.5 15t35.5 -15t15.5 -36t-15.5 -36t-35.5 -15z" />
    <glyph glyph-name="aring" unicode="&#xe5;" horiz-adv-x="467" 
d="M91 -6q-47 0 -76 37.5t-29 106.5q0 110 68 200.5t146 90.5q74 0 97 -101h3q57 63 76 101h18l-88 -303q-14 -48 -14 -64q0 -29 20 -29q33 0 91 97l11 -8q-65 -128 -134 -128q-29 0 -41.5 15.5t-12.5 47.5q0 25 6 43h-2q-64 -106 -139 -106zM109 18q37 0 79 52t67 124
q21 60 21 109q0 50 -18 78t-47 28q-49 0 -85.5 -57t-52.5 -137q-11 -56 -11 -115q0 -82 47 -82zM247 469q-35 0 -59.5 25t-24.5 60t24.5 60t59.5 25t59.5 -25t24.5 -60t-24.5 -60t-59.5 -25zM247 488q28 0 43 18.5t15 47.5q0 31 -15 48.5t-43 17.5q-27 0 -42.5 -18
t-15.5 -48q0 -29 15.5 -47.5t42.5 -18.5z" />
    <glyph glyph-name="ae" unicode="&#xe6;" horiz-adv-x="633" 
d="M72 -6q-43 0 -69 22t-26 68q0 70 66.5 107t223.5 68l4 18q16 79 1 109.5t-65 30.5q-40 0 -66.5 -12.5t-26.5 -25.5q0 -5 2 -8t7 -5t7 -3q20 -14 20 -34q-1 -22 -14.5 -33.5t-30.5 -11.5q-19 0 -32 13t-13 34q0 41 41.5 71.5t109.5 30.5q53 0 87.5 -20t39.5 -58
q73 78 158 78q44 0 71.5 -24t26.5 -65q-1 -112 -268 -160q-2 -22 -2 -35q-1 -59 21.5 -93.5t56.5 -34.5q82 0 153 94l11 -8q-86 -112 -187 -112q-53 0 -89.5 33.5t-39.5 92.5q-2 -1 -2 0q-27 -57 -76 -92t-100 -35zM328 199q109 24 152.5 53.5t44.5 95.5q1 35 -13 51.5
t-34 16.5q-46 0 -92.5 -63.5t-57.5 -153.5zM111 36q42 0 82.5 34.5t55.5 108.5l15 64q-117 -22 -161 -55t-45 -90q-1 -29 12.5 -45.5t40.5 -16.5z" />
    <glyph glyph-name="ccedilla" unicode="&#xe7;" horiz-adv-x="365" 
d="M87 -203q-50 0 -104 43l9 12q41 -32 90 -32q33 0 48.5 19.5t15.5 44.5q0 28 -12 39.5t-26 11.5q-11 0 -23 -2l21 60q-54 5 -87.5 46.5t-33.5 105.5q0 114 73.5 201t171.5 87q49 0 76 -27.5t27 -68.5q0 -26 -15 -41t-34 -15t-32 13.5t-13 31.5q0 21 14 33.5t32 12.5
q1 0 7 -1t8.5 0t2.5 6q0 17 -21.5 29.5t-51.5 12.5q-70 0 -117.5 -81t-47.5 -183q0 -132 80 -132q67 0 132 88l10 -9q-72 -110 -166 -110l-15 -42q10 2 22 2q35 0 58 -20t22 -48q-1 -40 -37 -63.5t-84 -23.5z" />
    <glyph glyph-name="egrave" unicode="&#xe8;" horiz-adv-x="373" 
d="M119 -8q-59 0 -96 41.5t-37 115.5q0 98 76.5 191t173.5 93q45 0 72 -24.5t26 -66.5q-1 -113 -268 -161q-2 -24 -2 -34q0 -129 78 -129q81 0 153 97l11 -9q-86 -114 -187 -114zM68 196q107 24 151.5 54.5t45.5 95.5q1 36 -13 53t-34 17q-45 0 -93 -66t-57 -154zM283 483
l-132 71q-37 20 -37 50q0 15 11 25.5t27 10.5q26 0 53 -36l85 -114z" />
    <glyph glyph-name="eacute" unicode="&#xe9;" horiz-adv-x="373" 
d="M119 -8q-59 0 -96 41.5t-37 115.5q0 98 76.5 191t173.5 93q45 0 72 -24.5t26 -66.5q-1 -113 -268 -161q-2 -24 -2 -34q0 -129 78 -129q81 0 153 97l11 -9q-86 -114 -187 -114zM68 196q107 24 151.5 54.5t45.5 95.5q1 36 -13 53t-34 17q-45 0 -93 -66t-57 -154zM180 482
l-4 6l108 119q32 35 60 35q16 0 24.5 -10.5t8.5 -23.5q0 -34 -50 -57z" />
    <glyph glyph-name="ecircumflex" unicode="&#xea;" horiz-adv-x="373" 
d="M119 -8q-59 0 -96 41.5t-37 115.5q0 98 76.5 191t173.5 93q45 0 72 -24.5t26 -66.5q-1 -113 -268 -161q-2 -24 -2 -34q0 -129 78 -129q81 0 153 97l11 -9q-86 -114 -187 -114zM68 196q107 24 151.5 54.5t45.5 95.5q1 36 -13 53t-34 17q-45 0 -93 -66t-57 -154zM125 455
l-6 5l129 147h52l54 -145l-6 -5l-88 81z" />
    <glyph glyph-name="edieresis" unicode="&#xeb;" horiz-adv-x="373" 
d="M119 -8q-59 0 -96 41.5t-37 115.5q0 98 76.5 191t173.5 93q45 0 72 -24.5t26 -66.5q-1 -113 -268 -161q-2 -24 -2 -34q0 -129 78 -129q81 0 153 97l11 -9q-86 -114 -187 -114zM68 196q107 24 151.5 54.5t45.5 95.5q1 36 -13 53t-34 17q-45 0 -93 -66t-57 -154zM317 488
q-21 0 -36 15t-15 36t15 36t36 15t36 -15t15 -36t-15 -36t-36 -15zM160 488q-20 0 -35.5 15t-15.5 36t15.5 36t35.5 15t35.5 -15t15.5 -36t-15.5 -36t-35.5 -15z" />
    <glyph glyph-name="igrave" unicode="&#xec;" horiz-adv-x="248" 
d="M61 -6q-29 0 -45 17t-16 46q0 27 14 72l66 217q7 24 7 33q0 24 -44 24h-34l4 14l149 9q0 -51 -24 -128l-53 -171q-13 -39 -13 -65q0 -29 21 -29q33 0 91 97l11 -8q-65 -128 -134 -128zM158 483l-132 71q-37 20 -37 50q0 15 11 25.5t27 10.5q26 0 53 -36l85 -114z" />
    <glyph glyph-name="iacute" unicode="&#xed;" horiz-adv-x="248" 
d="M61 -6q-29 0 -45 17t-16 46q0 27 14 72l66 217q7 24 7 33q0 24 -44 24h-34l4 14l149 9q0 -51 -24 -128l-53 -171q-13 -39 -13 -65q0 -29 21 -29q33 0 91 97l11 -8q-65 -128 -134 -128zM72 482l-4 6l108 119q32 35 60 35q16 0 24.5 -10.5t8.5 -23.5q0 -34 -50 -57z" />
    <glyph glyph-name="icircumflex" unicode="&#xee;" horiz-adv-x="248" 
d="M61 -6q-29 0 -45 17t-16 46q0 27 14 72l66 217q7 24 7 33q0 24 -44 24h-34l4 14l149 9q0 -51 -24 -128l-53 -171q-13 -39 -13 -65q0 -29 21 -29q33 0 91 97l11 -8q-65 -128 -134 -128zM7 455l-6 5l129 147h52l54 -145l-6 -5l-88 81z" />
    <glyph glyph-name="idieresis" unicode="&#xef;" horiz-adv-x="248" 
d="M61 -6q-29 0 -45 17t-16 46q0 27 14 72l66 217q7 24 7 33q0 24 -44 24h-34l4 14l149 9q0 -51 -24 -128l-53 -171q-13 -39 -13 -65q0 -29 21 -29q33 0 91 97l11 -8q-65 -128 -134 -128zM203 488q-21 0 -36 15t-15 36t15 36t36 15t36 -15t15 -36t-15 -36t-36 -15zM46 488
q-20 0 -35.5 15t-15.5 36t15.5 36t35.5 15t35.5 -15t15.5 -36t-15.5 -36t-35.5 -15z" />
    <glyph glyph-name="eth" unicode="&#xf0;" horiz-adv-x="419" 
d="M123 -8q-62 0 -97.5 50t-35.5 122q0 102 73 185.5t163 83.5q33 0 55.5 -13t31.5 -30q5 41 1 97.5t-14 90.5l-100 -58l-7 14q6 4 17 10t33 19t37 21l15 9q-21 58 -56 94l10 13q45 -36 77 -88l94 55l7 -14l-93 -55q51 -94 50 -208q-1 -98 -23.5 -175.5t-59.5 -125
t-82.5 -72.5t-95.5 -25zM121 6q49 0 89.5 51t61 121t20.5 137q0 54 -16.5 79.5t-40.5 25.5q-68 0 -120.5 -96t-52.5 -218q0 -100 59 -100z" />
    <glyph glyph-name="ntilde" unicode="&#xf1;" horiz-adv-x="463" 
d="M276 -6q-29 0 -45 17t-16 46q0 30 17 72l50 131q26 64 26 95q0 20 -6.5 29.5t-24.5 9.5q-45 0 -104.5 -82.5t-82.5 -163.5l-43 -148h-72l106 345q6 19 6 33t-9.5 20t-36.5 6h-32l4 14l145 8q0 -46 -28 -128l-15 -43l3 -1q97 173 187 173q35 0 53.5 -20t18.5 -55
q0 -36 -23 -93l-51 -132q-16 -43 -16 -65q0 -29 21 -29q33 0 91 97l11 -8q-65 -128 -134 -128zM145 475l-7 4q30 52 55 73t61 18q22 -2 58 -15.5t48 -14.5q36 -3 63 37l7 -4q-30 -52 -55 -73t-61 -18q-22 2 -58 15.5t-48 14.5q-36 3 -63 -37z" />
    <glyph glyph-name="ograve" unicode="&#xf2;" horiz-adv-x="419" 
d="M123 -8q-62 0 -97.5 50t-35.5 122q0 102 73 185.5t163 83.5q62 0 99.5 -45t39.5 -118q0 -108 -73 -193t-169 -85zM121 6q49 0 89.5 51t61 121t20.5 137q0 54 -16.5 79.5t-40.5 25.5q-68 0 -120.5 -96t-52.5 -218q0 -100 59 -100zM308 483l-132 71q-37 20 -37 50
q0 15 11 25.5t27 10.5q26 0 53 -36l85 -114z" />
    <glyph glyph-name="oacute" unicode="&#xf3;" horiz-adv-x="419" 
d="M123 -8q-62 0 -97.5 50t-35.5 122q0 102 73 185.5t163 83.5q62 0 99.5 -45t39.5 -118q0 -108 -73 -193t-169 -85zM121 6q49 0 89.5 51t61 121t20.5 137q0 54 -16.5 79.5t-40.5 25.5q-68 0 -120.5 -96t-52.5 -218q0 -100 59 -100zM199 482l-4 6l108 119q32 35 60 35
q16 0 24.5 -10.5t8.5 -23.5q0 -34 -50 -57z" />
    <glyph glyph-name="ocircumflex" unicode="&#xf4;" horiz-adv-x="419" 
d="M123 -8q-62 0 -97.5 50t-35.5 122q0 102 73 185.5t163 83.5q62 0 99.5 -45t39.5 -118q0 -108 -73 -193t-169 -85zM121 6q49 0 89.5 51t61 121t20.5 137q0 54 -16.5 79.5t-40.5 25.5q-68 0 -120.5 -96t-52.5 -218q0 -100 59 -100zM123 455l-6 5l129 147h52l54 -145l-6 -5
l-88 81z" />
    <glyph glyph-name="otilde" unicode="&#xf5;" horiz-adv-x="419" 
d="M123 -8q-62 0 -97.5 50t-35.5 122q0 102 73 185.5t163 83.5q62 0 99.5 -45t39.5 -118q0 -108 -73 -193t-169 -85zM121 6q49 0 89.5 51t61 121t20.5 137q0 54 -16.5 79.5t-40.5 25.5q-68 0 -120.5 -96t-52.5 -218q0 -100 59 -100zM117 475l-7 4q30 52 55 73t61 18
q22 -2 58 -15.5t48 -14.5q36 -3 63 37l7 -4q-30 -52 -55 -73t-61 -18q-22 2 -58 15.5t-48 14.5q-36 3 -63 -37z" />
    <glyph glyph-name="odieresis" unicode="&#xf6;" horiz-adv-x="419" 
d="M123 -8q-62 0 -97.5 50t-35.5 122q0 102 73 185.5t163 83.5q62 0 99.5 -45t39.5 -118q0 -108 -73 -193t-169 -85zM121 6q49 0 89.5 51t61 121t20.5 137q0 54 -16.5 79.5t-40.5 25.5q-68 0 -120.5 -96t-52.5 -218q0 -100 59 -100zM330 488q-21 0 -36 15t-15 36t15 36
t36 15t36 -15t15 -36t-15 -36t-36 -15zM173 488q-20 0 -35.5 15t-15.5 36t15.5 36t35.5 15t35.5 -15t15.5 -36t-15.5 -36t-35.5 -15z" />
    <glyph glyph-name="divide" unicode="&#xf7;" horiz-adv-x="470" 
d="M236 437q-20 0 -35.5 15.5t-15.5 35.5t15.5 35.5t35.5 15.5t35.5 -15.5t15.5 -35.5t-15.5 -35.5t-35.5 -15.5zM42 315v21h385v-21h-385zM236 113q-20 0 -35.5 15.5t-15.5 35.5t15.5 36t35.5 16t35.5 -16t15.5 -36t-15.5 -35.5t-35.5 -15.5z" />
    <glyph glyph-name="oslash" unicode="&#xf8;" horiz-adv-x="419" 
d="M-58 -51l81 97q-33 48 -33 119q0 102 73 185t163 83q57 0 92 -37l73 87h17l-80 -97q36 -47 37 -116q0 -107 -73 -192t-169 -85q-57 0 -92 43l-72 -87h-17zM62 94l226 265q-6 31 -20.5 46t-32.5 15q-68 0 -120.5 -95.5t-52.5 -217.5v-13zM121 7q49 0 89.5 50.5t61 120.5
t20.5 137q0 18 -1 26l-57 -66l-113 -133l-57 -66q11 -69 57 -69z" />
    <glyph glyph-name="ugrave" unicode="&#xf9;" horiz-adv-x="470" 
d="M68 -6q-35 0 -53.5 20t-18.5 55q0 39 19 94l64 183q7 21 7 33q0 24 -44 24h-34l4 14l151 9q2 -47 -26 -126l-50 -138q-22 -63 -22 -96q0 -20 6.5 -29.5t24.5 -9.5q45 0 103 82t85 170l42 137h72l-89 -289q-14 -44 -14 -65q0 -29 20 -29q33 0 91 97l11 -8
q-65 -128 -134 -128q-53 0 -53 63q0 25 13 62l15 43l-3 1q-95 -169 -187 -169zM294 483l-132 71q-37 20 -37 50q0 15 11 25.5t27 10.5q26 0 53 -36l85 -114z" />
    <glyph glyph-name="uacute" unicode="&#xfa;" horiz-adv-x="470" 
d="M68 -6q-35 0 -53.5 20t-18.5 55q0 39 19 94l64 183q7 21 7 33q0 24 -44 24h-34l4 14l151 9q2 -47 -26 -126l-50 -138q-22 -63 -22 -96q0 -20 6.5 -29.5t24.5 -9.5q45 0 103 82t85 170l42 137h72l-89 -289q-14 -44 -14 -65q0 -29 20 -29q33 0 91 97l11 -8
q-65 -128 -134 -128q-53 0 -53 63q0 25 13 62l15 43l-3 1q-95 -169 -187 -169zM200 482l-4 6l108 119q32 35 60 35q16 0 24.5 -10.5t8.5 -23.5q0 -34 -50 -57z" />
    <glyph glyph-name="ucircumflex" unicode="&#xfb;" horiz-adv-x="470" 
d="M68 -6q-35 0 -53.5 20t-18.5 55q0 39 19 94l64 183q7 21 7 33q0 24 -44 24h-34l4 14l151 9q2 -47 -26 -126l-50 -138q-22 -63 -22 -96q0 -20 6.5 -29.5t24.5 -9.5q45 0 103 82t85 170l42 137h72l-89 -289q-14 -44 -14 -65q0 -29 20 -29q33 0 91 97l11 -8
q-65 -128 -134 -128q-53 0 -53 63q0 25 13 62l15 43l-3 1q-95 -169 -187 -169zM147 455l-6 5l129 147h52l54 -145l-6 -5l-88 81z" />
    <glyph glyph-name="udieresis" unicode="&#xfc;" horiz-adv-x="470" 
d="M68 -6q-35 0 -53.5 20t-18.5 55q0 39 19 94l64 183q7 21 7 33q0 24 -44 24h-34l4 14l151 9q2 -47 -26 -126l-50 -138q-22 -63 -22 -96q0 -20 6.5 -29.5t24.5 -9.5q45 0 103 82t85 170l42 137h72l-89 -289q-14 -44 -14 -65q0 -29 20 -29q33 0 91 97l11 -8
q-65 -128 -134 -128q-53 0 -53 63q0 25 13 62l15 43l-3 1q-95 -169 -187 -169zM344 488q-21 0 -36 15t-15 36t15 36t36 15t36 -15t15 -36t-15 -36t-36 -15zM187 488q-20 0 -35.5 15t-15.5 36t15.5 36t35.5 15t35.5 -15t15.5 -36t-15.5 -36t-35.5 -15z" />
    <glyph glyph-name="yacute" unicode="&#xfd;" horiz-adv-x="404" 
d="M-22 -207q-27 0 -44.5 16t-18.5 38t12 36t32 14q16 0 26.5 -10.5t10.5 -28.5q0 -11 -6.5 -21.5t-6.5 -12.5q0 -10 9 -10q33 0 81.5 57t84.5 119q-7 92 -46 266q-17 77 -26.5 102.5t-21.5 25.5q-19 0 -78 -92l-12 9q37 64 65 94t64 30q29 0 46.5 -35.5t41.5 -152.5
q14 -71 24 -159q99 167 99 220q0 16 -14.5 44t-14.5 46t11 31t32 13q18 0 29.5 -15.5t11.5 -41.5q0 -81 -156 -333q-87 -141 -137.5 -195t-97.5 -54zM209 482l-4 6l108 119q32 35 60 35q16 0 24.5 -10.5t8.5 -23.5q0 -34 -50 -57z" />
    <glyph glyph-name="thorn" unicode="&#xfe;" horiz-adv-x="443" 
d="M-140 -204l4 15h12q32 0 47.5 17.5t26.5 55.5l206 726q4 15 4 30q0 30 -47 30h-28l4 14l159 15l-75 -269q-17 -57 -35 -104h3q64 103 150 103q43 0 70.5 -36t27.5 -104q0 -120 -67 -207.5t-143 -87.5q-78 0 -102 93h-2l-24 -96l-31 -109q-12 -36 -5 -53.5t39 -17.5h29
l-4 -15h-219zM165 14q58 0 102.5 82t44.5 204q0 104 -50 104q-52 0 -109 -89t-57 -184q0 -50 18 -83.5t51 -33.5z" />
    <glyph glyph-name="ydieresis" unicode="&#xff;" horiz-adv-x="404" 
d="M-22 -207q-27 0 -44.5 16t-18.5 38t12 36t32 14q16 0 26.5 -10.5t10.5 -28.5q0 -11 -6.5 -21.5t-6.5 -12.5q0 -10 9 -10q33 0 81.5 57t84.5 119q-7 92 -46 266q-17 77 -26.5 102.5t-21.5 25.5q-19 0 -78 -92l-12 9q37 64 65 94t64 30q29 0 46.5 -35.5t41.5 -152.5
q14 -71 24 -159q99 167 99 220q0 16 -14.5 44t-14.5 46t11 31t32 13q18 0 29.5 -15.5t11.5 -41.5q0 -81 -156 -333q-87 -141 -137.5 -195t-97.5 -54zM307 488q-21 0 -36 15t-15 36t15 36t36 15t36 -15t15 -36t-15 -36t-36 -15zM150 488q-20 0 -35.5 15t-15.5 36t15.5 36
t35.5 15t35.5 -15t15.5 -36t-15.5 -36t-35.5 -15z" />
    <glyph glyph-name="dotlessi" unicode="&#x131;" horiz-adv-x="248" 
d="M61 -6q-29 0 -45 17t-16 46q0 27 14 72l66 217q7 24 7 33q0 24 -44 24h-34l4 14l149 9q0 -51 -24 -128l-53 -171q-13 -39 -13 -65q0 -29 21 -29q33 0 91 97l11 -8q-65 -128 -134 -128z" />
    <glyph glyph-name="Lslash" unicode="&#x141;" horiz-adv-x="529" 
d="M-74 0l4 15h29q63 0 78 61l52 208l-79 -43l5 21l79 43l76 303q8 31 -3 46t-48 15h-27l4 15h284l-4 -15h-38q-38 0 -57.5 -14.5t-27.5 -46.5l-67 -268l161 90l-5 -22l-162 -90l-60 -242q-15 -60 49 -60h40q58 0 99 15.5t72 51.5t52 76.5t47 108.5h14l-83 -268h-484z" />
    <glyph glyph-name="lslash" unicode="&#x142;" horiz-adv-x="242" 
d="M55 -6q-29 0 -45 17t-16 46q0 25 12 69l47 165l-64 -36l3 19l67 37l86 301q7 24 7 35q0 14 -9.5 19t-33.5 5h-29l4 14l158 15l-103 -361l70 39l-4 -19l-71 -39l-53 -186q-16 -55 -16 -72q0 -29 22 -29q33 0 91 97l11 -8q-65 -128 -134 -128z" />
    <glyph glyph-name="OE" unicode="&#x152;" horiz-adv-x="905" 
d="M755 0h-484q-47 0 -89 13.5t-79 43t-59 83.5t-22 127q0 96 38 177t98 132t131.5 79.5t142.5 28.5h482l-53 -250h-14q16 131 -13.5 182.5t-132.5 51.5h-44q-66 0 -80 -60l-60 -246h36q79 0 118.5 34t62.5 112h13l-78 -315h-13q18 87 -10.5 120.5t-95.5 33.5h-36l-68 -271
q-15 -60 49 -60h57q99 0 159 62.5t113 191.5h15zM265 16h21q63 0 78 61l132 530q8 32 -3.5 46.5t-45.5 14.5h-23q-135 0 -222.5 -124.5t-87.5 -320.5q0 -101 41.5 -154t109.5 -53z" />
    <glyph glyph-name="oe" unicode="&#x153;" horiz-adv-x="663" 
d="M126 -6q-63 0 -99.5 48.5t-36.5 119.5q0 111 74.5 191t159.5 80q48 0 81.5 -25.5t47.5 -68.5q80 94 173 94q44 0 71.5 -24t26.5 -65q-1 -112 -268 -161q-2 -22 -2 -35q-1 -64 21.5 -96t57.5 -32q81 0 152 97l11 -8q-87 -115 -187 -115q-89 0 -121 86q-73 -86 -162 -86z
M358 198q108 25 152 54t45 94q1 36 -13 53t-34 17q-46 0 -93.5 -65.5t-56.5 -152.5zM121 8q49 0 89.5 50.5t61 120t20.5 136.5q0 54 -16.5 79.5t-40.5 25.5q-68 0 -120.5 -95t-52.5 -217q0 -100 59 -100z" />
    <glyph glyph-name="Scaron" unicode="&#x160;" horiz-adv-x="499" 
d="M211 -11q-47 0 -76 11t-63 35q-22 15 -37 15q-27 0 -57 -59h-12l60 270h12q-4 -120 42 -188t125 -68q69 0 114.5 42t45.5 108q0 45 -31.5 78t-113.5 84q-126 76 -126 185q0 83 51.5 137.5t140.5 54.5q72 0 123 -45q17 -14 35 -14q26 0 57 59h13l-61 -270h-14
q3 121 -37 187.5t-109 66.5q-63 0 -97 -42t-34 -97q0 -78 110 -142q78 -46 116.5 -88.5t38.5 -113.5q0 -94 -62.5 -150t-153.5 -56zM292 725l-54 145l6 5l88 -81l135 83l6 -5l-129 -147h-52z" />
    <glyph glyph-name="scaron" unicode="&#x161;" horiz-adv-x="333" 
d="M89 -5q-59 2 -95.5 32.5t-34.5 65.5q1 21 14 33.5t30 11.5q15 0 27.5 -11.5t11.5 -29.5q-1 -21 -18 -31t-17 -15q0 -13 23 -26.5t63 -14.5q44 -2 69.5 17.5t26.5 56.5q1 35 -16 57t-65 53q-44 27 -63 51t-18 64q2 52 43.5 86.5t105.5 32.5q52 -1 84.5 -26t31.5 -54
q-1 -18 -12.5 -30.5t-30.5 -11.5q-14 0 -25 10t-10 26q1 14 12.5 27.5t11.5 18.5q1 10 -18 17t-47 8q-38 1 -60 -17t-23 -52q-1 -23 10 -41t21.5 -26.5t37.5 -26.5q28 -19 40 -28.5t27.5 -25t20.5 -33t4 -40.5q-2 -59 -49 -94.5t-113 -33.5zM154 468l-54 145l6 5l88 -81
l135 83l6 -5l-129 -147h-52z" />
    <glyph glyph-name="Ydieresis" unicode="&#x178;" horiz-adv-x="582" 
d="M84 0l4 15h38q33 0 51 17t27 54l48 193l-97 328q-8 29 -23.5 45.5t-50.5 16.5h-4l4 15h246l-4 -15h-25q-64 0 -48 -61l80 -305l187 254q46 63 46 84q0 28 -56 28h-15l4 15h177l-4 -15q-38 -6 -61 -27t-74 -91l-198 -267l-49 -198q-10 -39 -0.5 -55t45.5 -16h41l-4 -15
h-285zM503 745q-21 0 -36 15t-15 36t15 36t36 15t36 -15t15 -36t-15 -36t-36 -15zM346 745q-20 0 -35.5 15t-15.5 36t15.5 36t35.5 15t35.5 -15t15.5 -36t-15.5 -36t-35.5 -15z" />
    <glyph glyph-name="Zcaron" unicode="&#x17d;" horiz-adv-x="538" 
d="M-64 0l7 28l534 641h-151q-100 0 -150.5 -49t-96.5 -183h-20l70 247h443l-5 -28l-534 -641h166q96 0 146 56t101 197h22l-82 -268h-450zM319 725l-54 145l6 5l88 -81l135 83l6 -5l-129 -147h-52z" />
    <glyph glyph-name="zcaron" unicode="&#x17e;" horiz-adv-x="380" 
d="M-15 -6q-28 0 -28 33q0 28 34 64.5t109 98.5q36 29 89 66t80.5 61.5t45.5 58.5l-3 3q-21 -25 -42 -35.5t-53 -10.5q-23 0 -54 14.5t-55 14.5q-61 0 -87 -84h-13q9 62 43.5 105.5t89.5 43.5q30 0 65.5 -28.5t61.5 -28.5t35 32q3 8 10.5 16t15.5 8q21 0 21 -28
q0 -46 -155 -165l-41 -30l-47.5 -35.5l-41 -33t-39 -36t-24.5 -30.5l4 -2q34 25 85 25q27 0 61 -15t60 -15q36 0 63.5 24.5t37.5 75.5h11q-5 -69 -47 -118t-102 -49q-34 0 -74.5 34t-61.5 34q-11 0 -17.5 -10t-6.5 -23q0 -15 -8.5 -25t-21.5 -10zM187 468l-54 145l6 5
l88 -81l135 83l6 -5l-129 -147h-52z" />
    <glyph glyph-name="florin" unicode="&#x192;" horiz-adv-x="372" 
d="M-97 -205q-33 0 -50 16.5t-16 40.5q1 22 15 36t34 14q17 0 27 -10.5t10 -28.5q0 -12 -9 -25.5t-9 -17.5q0 -10 11 -10q24 0 46 40.5t49 142.5q57 221 68 267q18 74 34 123h-79l4 15h80q89 263 231 263q38 0 61.5 -24t22.5 -54q-1 -24 -15.5 -40t-35.5 -16q-17 0 -28.5 11
t-11.5 28q0 18 10 30t24 14q5 1 9 0.5t7 -1t4.5 -0.5t2.5 1t1 4q0 11 -15.5 21.5t-35.5 10.5q-47 0 -77.5 -49.5t-71.5 -198.5h106l-4 -15h-106q-20 -73 -32 -122q-45 -180 -89.5 -285t-84 -143t-87.5 -38z" />
    <glyph glyph-name="circumflex" unicode="&#x2c6;" 
d="M186 455l-6 5l129 147h52l54 -145l-6 -5l-88 81z" />
    <glyph glyph-name="caron" unicode="&#x2c7;" 
d="M282 468l-54 145l6 5l88 -81l135 83l6 -5l-129 -147h-52z" />
    <glyph glyph-name="breve" unicode="&#x2d8;" 
d="M314 468q-53 0 -76 44.5t-12 109.5l11 2q4 -40 27.5 -61t59.5 -21q84 0 133 83l11 -3q-21 -69 -60 -111.5t-94 -42.5z" />
    <glyph glyph-name="dotaccent" unicode="&#x2d9;" 
d="M323 478q-23 0 -39 16t-16 39t16 39t39 16t39 -16t16 -39t-16 -39t-39 -16z" />
    <glyph glyph-name="ring" unicode="&#x2da;" 
d="M329 469q-35 0 -59.5 25t-24.5 60t24.5 60t59.5 25t59.5 -25t24.5 -60t-24.5 -60t-59.5 -25zM329 488q28 0 43 18.5t15 47.5q0 31 -15 48.5t-43 17.5q-27 0 -42.5 -18t-15.5 -48q0 -29 15.5 -47.5t42.5 -18.5z" />
    <glyph glyph-name="ogonek" unicode="&#x2db;" 
d="M139 -205q-31 0 -48.5 16.5t-16.5 44.5q1 41 39 74t113 70h17q-100 -62 -100 -128q0 -39 36 -39q30 0 62 17l5 -10q-58 -45 -107 -45z" />
    <glyph glyph-name="tilde" unicode="&#x2dc;" 
d="M177 475l-7 4q30 52 55 73t61 18q22 -2 58 -15.5t48 -14.5q36 -3 63 37l7 -4q-30 -52 -55 -73t-61 -18q-22 2 -58 15.5t-48 14.5q-36 3 -63 -37z" />
    <glyph glyph-name="hungarumlaut" unicode="&#x2dd;" 
d="M373 479l-4 6l119 119q35 35 59 35q13 0 21.5 -9.5t7.5 -22.5q-2 -35 -53 -58zM214 479l-4 6l119 119q35 35 59 35q13 0 21.5 -9.5t7.5 -22.5q-2 -35 -53 -58z" />
    <glyph glyph-name="Delta" unicode="&#x394;" horiz-adv-x="420" 
d="M197 -13l93 359q7 24 7 33q0 24 -44 24h-96l-55 -222q-52 -208 -101 -297.5t-107 -89.5q-27 0 -40.5 12.5t-13.5 30.5t11.5 30t25.5 12q36 0 36 -34q0 -7 -3 -17t-2.5 -14t6.5 -4q12 0 30 42.5t31 99.5l106 451h-62l4 15h62l1 4q32 126 92.5 201t138.5 75q35 0 59.5 -16
t24.5 -42q0 -21 -12 -35t-32 -14q-12 0 -23.5 9.5t-11.5 26.5q0 10 6 22t6 13q1 4 0.5 7.5t-6.5 7.5t-18 4q-80 0 -134 -207l-15 -56h79l132 8q0 -46 -24 -128l-24 -82q-63 -216 -107.5 -301.5t-100.5 -85.5q-27 0 -40.5 12.5t-13.5 30.5t11.5 30t25.5 12q36 0 36 -34
q0 -7 -3 -17t-2.5 -14t6.5 -4q11 0 28.5 41.5t32.5 100.5z" />
    <glyph glyph-name="Delta" unicode="&#x2206;" horiz-adv-x="420" 
d="M197 -13l93 359q7 24 7 33q0 24 -44 24h-96l-55 -222q-52 -208 -101 -297.5t-107 -89.5q-27 0 -40.5 12.5t-13.5 30.5t11.5 30t25.5 12q36 0 36 -34q0 -7 -3 -17t-2.5 -14t6.5 -4q12 0 30 42.5t31 99.5l106 451h-62l4 15h62l1 4q32 126 92.5 201t138.5 75q35 0 59.5 -16
t24.5 -42q0 -21 -12 -35t-32 -14q-12 0 -23.5 9.5t-11.5 26.5q0 10 6 22t6 13q1 4 0.5 7.5t-6.5 7.5t-18 4q-80 0 -134 -207l-15 -56h79l132 8q0 -46 -24 -128l-24 -82q-63 -216 -107.5 -301.5t-100.5 -85.5q-27 0 -40.5 12.5t-13.5 30.5t11.5 30t25.5 12q36 0 36 -34
q0 -7 -3 -17t-2.5 -14t6.5 -4q11 0 28.5 41.5t32.5 100.5z" />
    <glyph glyph-name="Omega" unicode="&#x3a9;" horiz-adv-x="494" 
d="M33 314l6 20h407l-6 -20h-407z" />
    <glyph glyph-name="Omega" unicode="&#x2126;" horiz-adv-x="494" 
d="M33 314l6 20h407l-6 -20h-407z" />
    <glyph glyph-name="pi" unicode="&#x3c0;" horiz-adv-x="798" 
d="M399 -16q-151 0 -254.5 103.5t-103.5 254.5t103.5 254.5t254.5 103.5t254.5 -103.5t103.5 -254.5t-103.5 -254.5t-254.5 -103.5zM399 -1q144 0 243 99.5t99 243.5t-99 243.5t-243 99.5t-243 -99.5t-99 -243.5t99 -243.5t243 -99.5zM248 144v14h18q20 0 28.5 7.5t8.5 27.5
v306q0 20 -8.5 27.5t-28.5 7.5h-18v14h175q67 0 111 -28t44 -80q0 -54 -48.5 -85.5t-114.5 -31.5h-50v-130q0 -20 8.5 -27.5t29.5 -7.5h26v-14h-181zM365 336h47q96 0 96 100q0 101 -93 101h-12q-21 0 -29.5 -7.5t-8.5 -27.5v-166z" />
    <glyph glyph-name="endash" unicode="&#x2013;" horiz-adv-x="417" 
d="M-7 218l6 24h369l-6 -24h-369z" />
    <glyph glyph-name="emdash" unicode="&#x2014;" horiz-adv-x="830" 
d="M-7 218l6 24h782l-6 -24h-782z" />
    <glyph glyph-name="quoteleft" unicode="&#x2018;" horiz-adv-x="228" 
d="M151 464q-21 0 -34 15t-13 42q0 90 135 176l7 -10q-39 -22 -80.5 -63t-39.5 -71q0 -3 1 -4t3.5 -0.5t5 1.5t7 2t9.5 1q19 0 31.5 -13.5t12.5 -31.5q0 -20 -12 -32t-33 -12z" />
    <glyph glyph-name="quoteright" unicode="&#x2019;" horiz-adv-x="228" 
d="M107 460l-7 10q39 22 80.5 63t39.5 71q0 3 -1 4t-3.5 0.5t-5 -1.5t-7 -2t-9.5 -1q-19 0 -31.5 13.5t-12.5 31.5q0 20 12 32t33 12t34 -15t13 -42q0 -90 -135 -176z" />
    <glyph glyph-name="quotesinglbase" unicode="&#x201a;" horiz-adv-x="228" 
d="M-57 -141l-7 10q39 22 80.5 63t39.5 71q0 3 -1 4t-3.5 0.5t-5 -1.5t-7 -2t-9.5 -1q-19 0 -31.5 13.5t-12.5 31.5q0 20 12 32t33 12t34 -15t13 -42q0 -90 -135 -176z" />
    <glyph glyph-name="quotedblleft" unicode="&#x201c;" horiz-adv-x="373" 
d="M296 464q-21 0 -34 15t-13 42q0 90 135 176l7 -10q-39 -22 -80.5 -63t-39.5 -71q0 -3 1 -4t3.5 -0.5t5 1.5t7 2t9.5 1q19 0 31.5 -13.5t12.5 -31.5q0 -20 -12 -32t-33 -12zM151 464q-21 0 -34 15t-13 42q0 90 135 176l7 -10q-39 -22 -80.5 -63t-39.5 -71q0 -3 1 -4
t3.5 -0.5t5 1.5t7 2t9.5 1q19 0 31.5 -13.5t12.5 -31.5q0 -20 -12 -32t-33 -12z" />
    <glyph glyph-name="quotedblright" unicode="&#x201d;" horiz-adv-x="373" 
d="M252 458l-7 10q39 22 80.5 63t39.5 71q0 3 -1 4t-3.5 0.5t-5 -1.5t-7 -2t-9.5 -1q-19 0 -31.5 13.5t-12.5 31.5q0 20 12 32t33 12t34 -15t13 -42q0 -90 -135 -176zM107 458l-7 10q39 22 80.5 63t39.5 71q0 3 -1 4t-3.5 0.5t-5 -1.5t-7 -2t-9.5 -1q-19 0 -31.5 13.5
t-12.5 31.5q0 20 12 32t33 12t34 -15t13 -42q0 -90 -135 -176z" />
    <glyph glyph-name="quotedblbase" unicode="&#x201e;" horiz-adv-x="373" 
d="M88 -141l-7 10q39 22 80.5 63t39.5 71q0 3 -1 4t-3.5 0.5t-5 -1.5t-7 -2t-9.5 -1q-19 0 -31.5 13.5t-12.5 31.5q0 20 12 32t33 12t34 -15t13 -42q0 -90 -135 -176zM-57 -141l-7 10q39 22 80.5 63t39.5 71q0 3 -1 4t-3.5 0.5t-5 -1.5t-7 -2t-9.5 -1q-19 0 -31.5 13.5
t-12.5 31.5q0 20 12 32t33 12t34 -15t13 -42q0 -90 -135 -176z" />
    <glyph glyph-name="dagger" unicode="&#x2020;" horiz-adv-x="451" 
d="M130 -11q47 187 45 344q56 60 79 151q-13 0 -26 -3t-19.5 -5.5t-17 -7.5t-13.5 -6q-39 -16 -51 -16q-17 0 -27.5 11t-9.5 28q1 22 15 34t34 12q16 0 42 -16q30 -18 76 -19q7 33 10 83q1 15 -1.5 34t-2.5 25q2 55 46 55q15 0 24.5 -10.5t9.5 -26.5q0 -20 -29 -63l-10 -14
q-9 -14 -12.5 -20.5t-10.5 -24t-12 -38.5q42 1 80 19q37 16 50 16q17 0 27 -10t9 -26q-1 -23 -15 -36t-34 -13q-13 0 -45 16q-42 21 -75 22q-24 -95 4 -152q-79 -155 -125 -343h-15z" />
    <glyph glyph-name="daggerdbl" unicode="&#x2021;" horiz-adv-x="453" 
d="M142 -9q-16 0 -25 10.5t-8 26.5q1 23 27 62q1 2 5.5 8.5t7 9.5t6.5 10.5t7 14l7 15t7.5 19.5t6.5 23q-31 -1 -77 -21q-37 -16 -51 -16q-16 0 -26 11t-10 28q0 22 14 34t35 12q15 0 41 -16q30 -19 76 -20q20 85 -6 140q20 22 29.5 35t23.5 41.5t23 64.5q-33 -1 -76 -21
q-39 -16 -51 -16q-17 0 -27.5 11t-9.5 28q1 22 15 34t34 12q16 0 42 -16q30 -19 76 -20q9 37 9 84q0 14 -2.5 35t-2.5 29q4 50 48 50q15 0 24.5 -10.5t9.5 -26.5q0 -20 -29 -62q-31 -44 -45 -99q40 1 80 20q37 16 50 16q16 0 26.5 -10t9.5 -26q-1 -23 -15 -36t-34 -13
q-13 0 -45 16q-37 20 -75 21q-13 -63 -10.5 -87.5t15.5 -53.5q-18 -21 -28.5 -35t-24 -41.5t-22.5 -63.5q40 1 80 20q37 16 51 16q16 0 25.5 -10t8.5 -26q-1 -23 -14.5 -36t-33.5 -13q-13 0 -45 16q-35 20 -75 21q-11 -45 -9 -85q0 -8 2 -30t1 -32q-3 -52 -46 -52z" />
    <glyph glyph-name="bullet" unicode="&#x2022;" horiz-adv-x="392" 
d="M196 224q-53 0 -88.5 35.5t-35.5 88.5q0 52 35.5 87.5t88.5 35.5t88.5 -35.5t35.5 -87.5q0 -53 -35.5 -88.5t-88.5 -35.5z" />
    <glyph glyph-name="ellipsis" unicode="&#x2026;" horiz-adv-x="662" 
d="M474 -8q-20 0 -34 14t-14 34t14 34t34 14t34 -14t14 -34t-14 -34t-34 -14zM253 -8q-20 0 -34 14t-14 34t14 34t34 14t34 -14t14 -34t-14 -34t-34 -14zM37 -8q-20 0 -34 14t-14 34t14 34t34 14t34 -14t14 -34t-14 -34t-34 -14z" />
    <glyph glyph-name="perthousand" unicode="&#x2030;" horiz-adv-x="852" 
d="M141 360q-40 3 -65.5 34.5t-25.5 79.5q0 26 7 51q17 63 64 99t95 32q42 -4 67 -35.5t24 -79.5q0 -25 -7 -50q-17 -64 -63.5 -99.5t-95.5 -31.5zM-2 -6l527 659h19l-527 -659h-19zM629 -8q-40 3 -65.5 34t-25.5 79q0 27 7 52q17 63 64 99t95 32q42 -4 67 -35.5t24 -80.5
q0 -25 -7 -49q-17 -64 -63.5 -99.5t-95.5 -31.5zM334 -8q-40 3 -65.5 34t-25.5 79q0 27 7 52q17 63 64 99t95 32q42 -4 67 -35.5t24 -80.5q0 -25 -7 -49q-17 -64 -63.5 -99.5t-95.5 -31.5zM155 371q53 3 84 131q12 56 10 88q-1 30 -13.5 43.5t-32.5 12.5q-52 -3 -82 -126
q-14 -53 -12 -92q1 -29 13.5 -43.5t32.5 -13.5zM643 3q51 3 81 121q15 55 13 98q-1 30 -13.5 43.5t-32.5 12.5q-51 -3 -81 -122q-15 -55 -13 -96q1 -29 13.5 -43.5t32.5 -13.5zM348 3q51 3 81 121q15 55 13 98q-1 30 -13.5 43.5t-32.5 12.5q-51 -3 -81 -122q-15 -55 -13 -96
q1 -29 13.5 -43.5t32.5 -13.5z" />
    <glyph glyph-name="guilsinglleft" unicode="&#x2039;" horiz-adv-x="283" 
d="M145 0l-156 225l269 224h13l-188 -230l75 -219h-13z" />
    <glyph glyph-name="guilsinglright" unicode="&#x203a;" horiz-adv-x="283" 
d="M-56 0l188 230l-75 219h13l156 -225l-269 -224h-13z" />
    <glyph glyph-name="fraction" unicode="&#x2044;" horiz-adv-x="269" 
d="M-132 -6l499 659h25l-501 -659h-23z" />
    <glyph glyph-name="fraction" unicode="&#x2215;" horiz-adv-x="269" 
d="M-132 -6l499 659h25l-501 -659h-23z" />
    <glyph glyph-name="Euro" unicode="&#x20ac;" horiz-adv-x="453" 
d="M197 -15q-79 0 -122 78.5t-27 203.5h-58l4 16h56q10 59 23 95h-54l4 16h55q42 119 119.5 194t164.5 75q56 0 88.5 -32.5t30.5 -77.5q-1 -39 -18.5 -58.5t-40.5 -19.5q-22 0 -33.5 12t-10.5 32q1 23 15 35.5t34 14.5h10t9.5 0.5t5.5 4.5t3 13q1 19 -26 40t-66 21
q-63 0 -117.5 -72t-87.5 -182h178l-4 -16h-178q-13 -44 -21 -95h177l-4 -16h-176q-19 -108 -0.5 -185t79.5 -77q96 0 158 138h18q-37 -80 -81.5 -119t-106.5 -39z" />
    <glyph glyph-name="trademark" unicode="&#x2122;" horiz-adv-x="858" 
d="M193 371v12h23q16 0 22.5 4.5t6.5 17.5v267q-51 0 -75 -26.5t-31 -88.5h-9l6 127h270l6 -127h-9q-7 61 -31.5 88t-75.5 27v-267q0 -22 30 -22h23v-12h-156zM614 367l-107 272v-208q0 -31 8.5 -39.5t36.5 -8.5h7v-12h-111v12h5q24 0 32.5 9t8.5 39v216q0 13 -6 17.5
t-21 4.5h-16v15h96l91 -243l88 243h93v-15h-16q-27 0 -27 -22v-242q0 -22 27 -22h16v-12h-143v12h19q16 0 22.5 4.5t6.5 17.5v234l-100 -272h-10z" />
    <glyph glyph-name="partialdiff" unicode="&#x2202;" horiz-adv-x="580" 
d="M-74 0l4 15h28q36 2 53 14t26 47l132 530q9 36 -2 48.5t-46 14.5h-29l4 15h246q103 1 156 -40.5t53 -119.5q0 -76 -63 -123.5t-165 -64.5v-1q33 -16 52 -32.5t36 -58.5t22 -109q1 -11 1.5 -25.5t1 -22.5t2 -19t2.5 -16.5t3.5 -13t5.5 -11t8 -6.5t11.5 -4.5t14.5 -1.5h11
l-4 -15h-140l-2 123q-2 121 -27.5 165t-93.5 44h-43l-64 -256q-9 -35 2 -47.5t46 -13.5h37l-4 -15h-275zM188 347h80q101 0 149.5 55t48.5 146q0 61 -29 90.5t-100 29.5h-6q-35 0 -52.5 -13t-26.5 -48z" />
    <glyph glyph-name="product" unicode="&#x220f;" horiz-adv-x="798" 
d="M399 -16q-151 0 -254.5 103.5t-103.5 254.5t103.5 254.5t254.5 103.5t254.5 -103t103.5 -255q0 -151 -103.5 -254.5t-254.5 -103.5zM399 -1q144 0 243 99.5t99 243.5t-99 243.5t-243 99.5t-243 -99.5t-99 -243.5t99 -243.5t243 -99.5zM222 149v14h16q15 0 26 10t11 25
v302q0 34 -37 34h-16v14h176q67 0 105.5 -25.5t38.5 -76.5q0 -75 -120 -96v-2q53 -21 81 -88q20 -50 29.5 -64.5t22.5 -14.5q22 0 21 55h14q3 -44 -13.5 -68t-48.5 -24q-67 0 -74 94q-5 65 -21.5 85t-56.5 20h-45v-145q0 -35 45 -35h17v-14h-171zM331 357h61q89 0 89 90
q0 44 -18 65.5t-75 21.5h-20q-21 0 -29 -6.5t-8 -26.5v-144z" />
    <glyph glyph-name="summation" unicode="&#x2211;" horiz-adv-x="825" 
d="M619 358q-81 0 -136.5 55.5t-55.5 135.5q0 59 37.5 101.5t87.5 42.5q32 0 54 -18.5t22 -43.5q0 -17 -12.5 -30.5t-30.5 -13.5q-19 0 -32 12t-13 29q0 21 11 32q9 9 7.5 15.5t-10.5 6.5q-32 0 -56.5 -29t-24.5 -77q0 -63 57 -118t122 -55q49 0 77.5 22.5t28.5 53.5
q0 9 -6.5 10.5t-15.5 -7.5q-11 -11 -32 -11q-17 0 -29 13t-12 32q0 18 13.5 30.5t30.5 12.5q25 0 43.5 -22t18.5 -54q0 -50 -42.5 -87.5t-101.5 -37.5zM202 358q-59 0 -101.5 37.5t-42.5 87.5q0 32 18.5 54t43.5 22q17 0 30.5 -12.5t13.5 -30.5q0 -19 -12 -32t-29 -13
q-21 0 -32 11q-9 9 -15.5 7.5t-6.5 -10.5q0 -31 28.5 -53.5t77.5 -22.5q65 0 122 55t57 118q0 48 -24.5 77t-56.5 29q-9 0 -10.5 -6.5t7.5 -15.5q11 -11 11 -32q0 -17 -13 -29t-32 -12q-18 0 -30.5 13.5t-12.5 30.5q0 25 22 43.5t54 18.5q50 0 87.5 -42.5t37.5 -101.5
q0 -80 -55.5 -135.5t-136.5 -55.5zM552 -9q-50 0 -87.5 42.5t-37.5 101.5q0 80 55.5 135.5t136.5 55.5q59 0 101.5 -37.5t42.5 -87.5q0 -32 -18.5 -54t-43.5 -22q-17 0 -30.5 12.5t-13.5 30.5q0 19 12 32t29 13q21 0 32 -11q9 -9 15.5 -7.5t6.5 10.5q0 31 -28.5 53.5
t-77.5 22.5q-65 0 -122 -55t-57 -118q0 -48 24.5 -77t56.5 -29q9 0 10.5 6.5t-7.5 15.5q-11 11 -11 32q0 17 13 29t32 12q18 0 30.5 -13.5t12.5 -30.5q0 -25 -22 -43.5t-54 -18.5zM269 -9q-32 0 -54 18.5t-22 43.5q0 17 12.5 30.5t30.5 13.5q19 0 32 -12t13 -29
q0 -21 -11 -32q-9 -9 -7.5 -15.5t10.5 -6.5q32 0 56.5 29t24.5 77q0 63 -57 118t-122 55q-49 0 -77.5 -22.5t-28.5 -53.5q0 -9 6.5 -10.5t15.5 7.5q11 11 32 11q17 0 29 -13t12 -32q0 -18 -13.5 -30.5t-30.5 -12.5q-25 0 -43.5 22t-18.5 54q0 50 42.5 87.5t101.5 37.5
q81 0 136.5 -55.5t55.5 -135.5q0 -59 -37.5 -101.5t-87.5 -42.5z" />
    <glyph glyph-name="minus" unicode="&#x2212;" horiz-adv-x="470" 
d="M53 314v22h364v-22h-364z" />
    <glyph glyph-name="radical" unicode="&#x221a;" horiz-adv-x="550" 
d="M152 -14l-66 232q-12 43 -26.5 56.5t-55.5 14.5l4 14h142l49 -216h2q75 210 155.5 359t144.5 214q27 27 51 34.5t33 -5.5q25 -30 -37 -83q-103 -89 -199 -246t-169 -363z" />
    <glyph glyph-name="infinity" unicode="&#x221e;" horiz-adv-x="684" 
d="M-111 -207q-29 0 -43 13.5t-14 33.5t12.5 33.5t29.5 13.5q19 0 29.5 -10.5t10.5 -27.5q0 -6 -1.5 -12t-3 -10.5t-2.5 -8t0.5 -5.5t6.5 -2q12 0 30 42t31 99l108 451h-64l4 15h64l3 14q27 126 86 193.5t140 67.5q35 0 59.5 -16t24.5 -42q0 -12 -4 -22q64 85 161 85
q36 0 55 -15.5t19 -40.5q0 -21 -13 -36t-34 -15q-17 0 -28 11t-11 28q0 16 9 29.5t9 16.5q0 8 -17 8q-91 0 -144 -210l-14 -56h78l132 8q0 -51 -24 -128l-53 -171q-13 -39 -13 -65q0 -29 21 -29q33 0 91 97l11 -8q-65 -128 -134 -128q-29 0 -45 17t-16 46q0 27 14 72l66 217
q7 24 7 33q0 24 -44 24h-94l-49 -197q-52 -211 -101 -299.5t-112 -88.5q-29 0 -43 13.5t-14 33.5t12.5 33.5t29.5 13.5q19 0 29.5 -10.5t10.5 -27.5q0 -6 -1.5 -12t-3 -10.5t-2.5 -8t0.5 -5.5t6.5 -2q12 0 30 42t31 99l102 426h-154l-55 -222q-52 -211 -101 -299.5
t-112 -88.5zM160 418h155l5 20q24 97 64 158q-12 -10 -28 -10q-12 0 -23.5 9.5t-11.5 26.5q0 10 6 22t6 13q1 4 0.5 7.5t-6.5 7.5t-18 4q-83 0 -135 -202z" />
    <glyph glyph-name="integral" unicode="&#x222b;" horiz-adv-x="825" 
d="M619 358q-81 0 -136.5 55.5t-55.5 135.5q0 59 37.5 101.5t87.5 42.5q32 0 54 -18.5t22 -43.5q0 -17 -12.5 -30.5t-30.5 -13.5q-19 0 -32 12t-13 29q0 21 11 32q9 9 7.5 15.5t-10.5 6.5q-32 0 -56.5 -29t-24.5 -77q0 -63 57 -118t122 -55q49 0 77.5 22.5t28.5 53.5
q0 9 -6.5 10.5t-15.5 -7.5q-11 -11 -32 -11q-17 0 -29 13t-12 32q0 18 13.5 30.5t30.5 12.5q25 0 43.5 -22t18.5 -54q0 -50 -42.5 -87.5t-101.5 -37.5zM202 358q-59 0 -101.5 37.5t-42.5 87.5q0 32 18.5 54t43.5 22q17 0 30.5 -12.5t13.5 -30.5q0 -19 -12 -32t-29 -13
q-21 0 -32 11q-9 9 -15.5 7.5t-6.5 -10.5q0 -31 28.5 -53.5t77.5 -22.5q65 0 122 55t57 118q0 48 -24.5 77t-56.5 29q-9 0 -10.5 -6.5t7.5 -15.5q11 -11 11 -32q0 -17 -13 -29t-32 -12q-18 0 -30.5 13.5t-12.5 30.5q0 25 22 43.5t54 18.5q50 0 87.5 -42.5t37.5 -101.5
q0 -80 -55.5 -135.5t-136.5 -55.5zM552 -9q-50 0 -87.5 42.5t-37.5 101.5q0 80 55.5 135.5t136.5 55.5q59 0 101.5 -37.5t42.5 -87.5q0 -32 -18.5 -54t-43.5 -22q-17 0 -30.5 12.5t-13.5 30.5q0 19 12 32t29 13q21 0 32 -11q9 -9 15.5 -7.5t6.5 10.5q0 31 -28.5 53.5
t-77.5 22.5q-65 0 -122 -55t-57 -118q0 -48 24.5 -77t56.5 -29q9 0 10.5 6.5t-7.5 15.5q-11 11 -11 32q0 17 13 29t32 12q18 0 30.5 -13.5t12.5 -30.5q0 -25 -22 -43.5t-54 -18.5zM269 -9q-32 0 -54 18.5t-22 43.5q0 17 12.5 30.5t30.5 13.5q19 0 32 -12t13 -29
q0 -21 -11 -32q-9 -9 -7.5 -15.5t10.5 -6.5q32 0 56.5 29t24.5 77q0 63 -57 118t-122 55q-49 0 -77.5 -22.5t-28.5 -53.5q0 -9 6.5 -10.5t15.5 7.5q11 11 32 11q17 0 29 -13t12 -32q0 -18 -13.5 -30.5t-30.5 -12.5q-25 0 -43.5 22t-18.5 54q0 50 42.5 87.5t101.5 37.5
q81 0 136.5 -55.5t55.5 -135.5q0 -59 -37.5 -101.5t-87.5 -42.5z" />
    <glyph glyph-name="approxequal" unicode="&#x2248;" horiz-adv-x="470" 
d="M57 134l-13 13l177 177l-177 177l14 14l177 -177l177 177l13 -13l-177 -177l178 -178l-14 -14l-178 178z" />
    <glyph glyph-name="notequal" unicode="&#x2260;" horiz-adv-x="486" 
d="M-111 -207q-29 0 -43 13.5t-14 33.5t12.5 33.5t29.5 13.5q19 0 29.5 -10.5t10.5 -27.5q0 -6 -1.5 -12t-3 -10.5t-2.5 -8t0.5 -5.5t6.5 -2q12 0 30 42t31 99l108 451h-64l4 15h64l3 14q27 126 86 193.5t140 67.5q30 0 52 -11.5t29 -30.5q3 -7 3 -16q50 62 119 62
q31 0 49 -15t18 -39q0 -21 -13 -37t-34 -16q-17 0 -28 11t-11 28q0 16 9 29.5t9 16.5q0 8 -12 8q-28 0 -50 -39.5t-44 -127.5l-24 -98h101l-4 -15h-100l-49 -197q-52 -211 -101 -299.5t-112 -88.5q-29 0 -43 13.5t-14 33.5t12.5 33.5t29.5 13.5q19 0 29.5 -10.5t10.5 -27.5
q0 -6 -1.5 -12t-3 -10.5t-2.5 -8t0.5 -5.5t6.5 -2q12 0 30 42t31 99l102 426h-154l-55 -222q-52 -211 -101 -299.5t-112 -88.5zM160 418h155l14 58q19 75 39 111q-2 0 -6 -0.5t-6 -0.5q-12 0 -23.5 9.5t-11.5 26.5q0 10 6 22t6 13q1 4 0.5 7.5t-6.5 7.5t-18 4
q-84 0 -135 -202z" />
    <glyph glyph-name="lessequal" unicode="&#x2264;" horiz-adv-x="825" 
d="M619 358q-81 0 -136.5 55.5t-55.5 135.5q0 59 37.5 101.5t87.5 42.5q32 0 54 -18.5t22 -43.5q0 -17 -12.5 -30.5t-30.5 -13.5q-19 0 -32 12t-13 29q0 21 11 32q9 9 7.5 15.5t-10.5 6.5q-32 0 -56.5 -29t-24.5 -77q0 -63 57 -118t122 -55q49 0 77.5 22.5t28.5 53.5
q0 9 -6.5 10.5t-15.5 -7.5q-11 -11 -32 -11q-17 0 -29 13t-12 32q0 18 13.5 30.5t30.5 12.5q25 0 43.5 -22t18.5 -54q0 -50 -42.5 -87.5t-101.5 -37.5zM202 358q-59 0 -101.5 37.5t-42.5 87.5q0 32 18.5 54t43.5 22q17 0 30.5 -12.5t13.5 -30.5q0 -19 -12 -32t-29 -13
q-21 0 -32 11q-9 9 -15.5 7.5t-6.5 -10.5q0 -31 28.5 -53.5t77.5 -22.5q65 0 122 55t57 118q0 48 -24.5 77t-56.5 29q-9 0 -10.5 -6.5t7.5 -15.5q11 -11 11 -32q0 -17 -13 -29t-32 -12q-18 0 -30.5 13.5t-12.5 30.5q0 25 22 43.5t54 18.5q50 0 87.5 -42.5t37.5 -101.5
q0 -80 -55.5 -135.5t-136.5 -55.5zM552 -9q-50 0 -87.5 42.5t-37.5 101.5q0 80 55.5 135.5t136.5 55.5q59 0 101.5 -37.5t42.5 -87.5q0 -32 -18.5 -54t-43.5 -22q-17 0 -30.5 12.5t-13.5 30.5q0 19 12 32t29 13q21 0 32 -11q9 -9 15.5 -7.5t6.5 10.5q0 31 -28.5 53.5
t-77.5 22.5q-65 0 -122 -55t-57 -118q0 -48 24.5 -77t56.5 -29q9 0 10.5 6.5t-7.5 15.5q-11 11 -11 32q0 17 13 29t32 12q18 0 30.5 -13.5t12.5 -30.5q0 -25 -22 -43.5t-54 -18.5zM269 -9q-32 0 -54 18.5t-22 43.5q0 17 12.5 30.5t30.5 13.5q19 0 32 -12t13 -29
q0 -21 -11 -32q-9 -9 -7.5 -15.5t10.5 -6.5q32 0 56.5 29t24.5 77q0 63 -57 118t-122 55q-49 0 -77.5 -22.5t-28.5 -53.5q0 -9 6.5 -10.5t15.5 7.5q11 11 32 11q17 0 29 -13t12 -32q0 -18 -13.5 -30.5t-30.5 -12.5q-25 0 -43.5 22t-18.5 54q0 50 42.5 87.5t101.5 37.5
q81 0 136.5 -55.5t55.5 -135.5q0 -59 -37.5 -101.5t-87.5 -42.5z" />
    <glyph glyph-name="greaterequal" unicode="&#x2265;" horiz-adv-x="825" 
d="M619 358q-81 0 -136.5 55.5t-55.5 135.5q0 59 37.5 101.5t87.5 42.5q32 0 54 -18.5t22 -43.5q0 -17 -12.5 -30.5t-30.5 -13.5q-19 0 -32 12t-13 29q0 21 11 32q9 9 7.5 15.5t-10.5 6.5q-32 0 -56.5 -29t-24.5 -77q0 -63 57 -118t122 -55q49 0 77.5 22.5t28.5 53.5
q0 9 -6.5 10.5t-15.5 -7.5q-11 -11 -32 -11q-17 0 -29 13t-12 32q0 18 13.5 30.5t30.5 12.5q25 0 43.5 -22t18.5 -54q0 -50 -42.5 -87.5t-101.5 -37.5zM202 358q-59 0 -101.5 37.5t-42.5 87.5q0 32 18.5 54t43.5 22q17 0 30.5 -12.5t13.5 -30.5q0 -19 -12 -32t-29 -13
q-21 0 -32 11q-9 9 -15.5 7.5t-6.5 -10.5q0 -31 28.5 -53.5t77.5 -22.5q65 0 122 55t57 118q0 48 -24.5 77t-56.5 29q-9 0 -10.5 -6.5t7.5 -15.5q11 -11 11 -32q0 -17 -13 -29t-32 -12q-18 0 -30.5 13.5t-12.5 30.5q0 25 22 43.5t54 18.5q50 0 87.5 -42.5t37.5 -101.5
q0 -80 -55.5 -135.5t-136.5 -55.5zM552 -9q-50 0 -87.5 42.5t-37.5 101.5q0 80 55.5 135.5t136.5 55.5q59 0 101.5 -37.5t42.5 -87.5q0 -32 -18.5 -54t-43.5 -22q-17 0 -30.5 12.5t-13.5 30.5q0 19 12 32t29 13q21 0 32 -11q9 -9 15.5 -7.5t6.5 10.5q0 31 -28.5 53.5
t-77.5 22.5q-65 0 -122 -55t-57 -118q0 -48 24.5 -77t56.5 -29q9 0 10.5 6.5t-7.5 15.5q-11 11 -11 32q0 17 13 29t32 12q18 0 30.5 -13.5t12.5 -30.5q0 -25 -22 -43.5t-54 -18.5zM269 -9q-32 0 -54 18.5t-22 43.5q0 17 12.5 30.5t30.5 13.5q19 0 32 -12t13 -29
q0 -21 -11 -32q-9 -9 -7.5 -15.5t10.5 -6.5q32 0 56.5 29t24.5 77q0 63 -57 118t-122 55q-49 0 -77.5 -22.5t-28.5 -53.5q0 -9 6.5 -10.5t15.5 7.5q11 11 32 11q17 0 29 -13t12 -32q0 -18 -13.5 -30.5t-30.5 -12.5q-25 0 -43.5 22t-18.5 54q0 50 42.5 87.5t101.5 37.5
q81 0 136.5 -55.5t55.5 -135.5q0 -59 -37.5 -101.5t-87.5 -42.5z" />
    <glyph glyph-name="lozenge" unicode="&#x25ca;" horiz-adv-x="825" 
d="M619 358q-81 0 -136.5 55.5t-55.5 135.5q0 59 37.5 101.5t87.5 42.5q32 0 54 -18.5t22 -43.5q0 -17 -12.5 -30.5t-30.5 -13.5q-19 0 -32 12t-13 29q0 21 11 32q9 9 7.5 15.5t-10.5 6.5q-32 0 -56.5 -29t-24.5 -77q0 -63 57 -118t122 -55q49 0 77.5 22.5t28.5 53.5
q0 9 -6.5 10.5t-15.5 -7.5q-11 -11 -32 -11q-17 0 -29 13t-12 32q0 18 13.5 30.5t30.5 12.5q25 0 43.5 -22t18.5 -54q0 -50 -42.5 -87.5t-101.5 -37.5zM202 358q-59 0 -101.5 37.5t-42.5 87.5q0 32 18.5 54t43.5 22q17 0 30.5 -12.5t13.5 -30.5q0 -19 -12 -32t-29 -13
q-21 0 -32 11q-9 9 -15.5 7.5t-6.5 -10.5q0 -31 28.5 -53.5t77.5 -22.5q65 0 122 55t57 118q0 48 -24.5 77t-56.5 29q-9 0 -10.5 -6.5t7.5 -15.5q11 -11 11 -32q0 -17 -13 -29t-32 -12q-18 0 -30.5 13.5t-12.5 30.5q0 25 22 43.5t54 18.5q50 0 87.5 -42.5t37.5 -101.5
q0 -80 -55.5 -135.5t-136.5 -55.5zM552 -9q-50 0 -87.5 42.5t-37.5 101.5q0 80 55.5 135.5t136.5 55.5q59 0 101.5 -37.5t42.5 -87.5q0 -32 -18.5 -54t-43.5 -22q-17 0 -30.5 12.5t-13.5 30.5q0 19 12 32t29 13q21 0 32 -11q9 -9 15.5 -7.5t6.5 10.5q0 31 -28.5 53.5
t-77.5 22.5q-65 0 -122 -55t-57 -118q0 -48 24.5 -77t56.5 -29q9 0 10.5 6.5t-7.5 15.5q-11 11 -11 32q0 17 13 29t32 12q18 0 30.5 -13.5t12.5 -30.5q0 -25 -22 -43.5t-54 -18.5zM269 -9q-32 0 -54 18.5t-22 43.5q0 17 12.5 30.5t30.5 13.5q19 0 32 -12t13 -29
q0 -21 -11 -32q-9 -9 -7.5 -15.5t10.5 -6.5q32 0 56.5 29t24.5 77q0 63 -57 118t-122 55q-49 0 -77.5 -22.5t-28.5 -53.5q0 -9 6.5 -10.5t15.5 7.5q11 11 32 11q17 0 29 -13t12 -32q0 -18 -13.5 -30.5t-30.5 -12.5q-25 0 -43.5 22t-18.5 54q0 50 42.5 87.5t101.5 37.5
q81 0 136.5 -55.5t55.5 -135.5q0 -59 -37.5 -101.5t-87.5 -42.5z" />
    <glyph glyph-name="apple" unicode="&#xf8ff;" horiz-adv-x="825" 
d="M619 358q-81 0 -136.5 55.5t-55.5 135.5q0 59 37.5 101.5t87.5 42.5q32 0 54 -18.5t22 -43.5q0 -17 -12.5 -30.5t-30.5 -13.5q-19 0 -32 12t-13 29q0 21 11 32q9 9 7.5 15.5t-10.5 6.5q-32 0 -56.5 -29t-24.5 -77q0 -63 57 -118t122 -55q49 0 77.5 22.5t28.5 53.5
q0 9 -6.5 10.5t-15.5 -7.5q-11 -11 -32 -11q-17 0 -29 13t-12 32q0 18 13.5 30.5t30.5 12.5q25 0 43.5 -22t18.5 -54q0 -50 -42.5 -87.5t-101.5 -37.5zM202 358q-59 0 -101.5 37.5t-42.5 87.5q0 32 18.5 54t43.5 22q17 0 30.5 -12.5t13.5 -30.5q0 -19 -12 -32t-29 -13
q-21 0 -32 11q-9 9 -15.5 7.5t-6.5 -10.5q0 -31 28.5 -53.5t77.5 -22.5q65 0 122 55t57 118q0 48 -24.5 77t-56.5 29q-9 0 -10.5 -6.5t7.5 -15.5q11 -11 11 -32q0 -17 -13 -29t-32 -12q-18 0 -30.5 13.5t-12.5 30.5q0 25 22 43.5t54 18.5q50 0 87.5 -42.5t37.5 -101.5
q0 -80 -55.5 -135.5t-136.5 -55.5zM552 -9q-50 0 -87.5 42.5t-37.5 101.5q0 80 55.5 135.5t136.5 55.5q59 0 101.5 -37.5t42.5 -87.5q0 -32 -18.5 -54t-43.5 -22q-17 0 -30.5 12.5t-13.5 30.5q0 19 12 32t29 13q21 0 32 -11q9 -9 15.5 -7.5t6.5 10.5q0 31 -28.5 53.5
t-77.5 22.5q-65 0 -122 -55t-57 -118q0 -48 24.5 -77t56.5 -29q9 0 10.5 6.5t-7.5 15.5q-11 11 -11 32q0 17 13 29t32 12q18 0 30.5 -13.5t12.5 -30.5q0 -25 -22 -43.5t-54 -18.5zM269 -9q-32 0 -54 18.5t-22 43.5q0 17 12.5 30.5t30.5 13.5q19 0 32 -12t13 -29
q0 -21 -11 -32q-9 -9 -7.5 -15.5t10.5 -6.5q32 0 56.5 29t24.5 77q0 63 -57 118t-122 55q-49 0 -77.5 -22.5t-28.5 -53.5q0 -9 6.5 -10.5t15.5 7.5q11 11 32 11q17 0 29 -13t12 -32q0 -18 -13.5 -30.5t-30.5 -12.5q-25 0 -43.5 22t-18.5 54q0 50 42.5 87.5t101.5 37.5
q81 0 136.5 -55.5t55.5 -135.5q0 -59 -37.5 -101.5t-87.5 -42.5z" />
    <glyph glyph-name="NUL" horiz-adv-x="0" 
 />
    <glyph glyph-name="R.alt" horiz-adv-x="580" 
d="M-74 0l4 15h28q36 2 53 14t26 47l132 530q9 36 -2 48.5t-46 14.5h-29l4 15h246q103 1 156 -40.5t53 -119.5q0 -76 -63 -123.5t-165 -64.5v-1q33 -16 52 -32.5t36 -58.5t22 -109q1 -11 1.5 -25.5t1 -22.5t2 -19t2.5 -16.5t3.5 -13t5.5 -11t8 -6.5t11.5 -4.5t14.5 -1.5h11
l-4 -15h-140l-2 123q-2 121 -27.5 165t-93.5 44h-43l-64 -256q-9 -35 2 -47.5t46 -13.5h37l-4 -15h-275zM188 347h80q101 0 149.5 55t48.5 146q0 61 -29 90.5t-100 29.5h-6q-35 0 -52.5 -13t-26.5 -48z" />
    </font>
</defs>
</svg>
